<?xml version="1.0" standalone="no"?>
<!DOCTYPE svg PUBLIC "-//W3C//DTD SVG 1.1//EN" "http://www.w3.org/Graphics/SVG/1.1/DTD/svg11.dtd" >
<svg>
<metadata>
Created by FontForge 20090914 at Sat Nov 12 10:44:37 2016
 By www-data
Copyright (c) 2002, 2005 Parachute&#194;&#168;, www.parachute.gr.  All rights reserved.
</metadata>
<defs>
<font id="PFDinTextPro-Medium" horiz-adv-x="1818" >
  <font-face 
    font-family="PF DinText Pro Medium"
    font-weight="500"
    font-stretch="normal"
    units-per-em="1000"
    panose-1="2 0 5 6 2 0 0 2 0 4"
    ascent="750"
    descent="-250"
    x-height="495"
    cap-height="696"
    bbox="-403 -285.001 1760 943"
    underline-thickness="50"
    underline-position="-100"
    unicode-range="U+0020-U+FB05"
  />
<missing-glyph horiz-adv-x="450" 
d="M0 0v700h450v-700h-450zM109 73h232l-116 210zM225 418l116 209h-233zM73 554v-407l111 204zM266 349l111 -202v407z" />
    <glyph glyph-name="fj" unicode="fj" horiz-adv-x="526" 
d="M21 495l58.001 -0.000976562v70c0 60 18 103.833 54 131.5s83 41.5 141 41.5c77.333 0 136.666 -23 177.999 -69l-68 -76c-26 29.333 -62.667 44 -110 44c-54.667 0 -82 -25 -82 -75v-67h263v-554c0 -43.333 -13.5 -77.833 -40.5 -103.5s-64.167 -38.5 -111.5 -38.5h-45
v100h28c37.333 0.666992 56 20.334 56 59.001v446h-150v-404h-113v404h-58v91z" />
    <glyph glyph-name="ffj" unicode="ffj" horiz-adv-x="793" 
d="M191 404v-404.001h-113v404h-58v91h58v50c0 60 18 103.833 54 131.5s83 41.5 141 41.5c46 0 85.667 -8.33301 119 -25c34.667 30 83 45 145 45c76.667 0 135.667 -23 177 -69l-67 -76c-27.333 29.333 -64.333 44 -111 44c-54 0 -81 -25 -81 -75v-67h263v-554
c0 -43.333 -13.5 -77.833 -40.5 -103.5s-64.5 -38.5 -112.5 -38.5h-45v100h28c38 0.666992 57 20.334 57 59.001v446h-150v-404h-113v404h-151zM191 494.999h151v70c0 12.667 1 24.667 3 36c-21.333 10.667 -45.333 16 -72 16c-54.667 0 -82 -25 -82 -75v-47z" />
    <glyph glyph-name="ff" unicode="ff" horiz-adv-x="571" 
d="M484 738h79.001v-98h-61c-30.667 0 -46 -17.333 -46 -52v-93h100v-91h-100v-404h-113v404h-150v-404h-112v404h-59v91h59v51c0 59.333 17.667 103.833 53 133.5s82.333 44.5 141 44.5c41.333 0 77.666 -6.66699 108.999 -20c24.667 22.667 58 34 100 34zM193.001 549v-54
h150v91c0 10 0.333008 17.667 1 23c-20 9.33301 -43 14 -69 14c-54.667 0 -82 -24.667 -82 -74z" />
    <glyph glyph-name="fi" unicode="fi" horiz-adv-x="526" 
d="M21 495h58.001v70c0 60 18 103.833 54 131.5s83 41.5 141 41.5c77.333 0 136.666 -23 177.999 -69l-68 -76c-26 29.333 -62.667 44 -110 44c-54.667 0 -82 -25 -82 -75v-67h263v-495h-113v404h-150v-404h-113v404h-58v91z" />
    <glyph glyph-name="fl" unicode="fl" horiz-adv-x="548" 
d="M528 0l-43.001 -0.000976562c-92 0 -138 43.667 -138 131v490c-25.333 8.66699 -49.666 13 -72.999 13c-54.667 0 -82 -25 -82 -75v-64h103v-91h-103v-404h-113v404h-58v91h58v67c0 60 17.333 103.667 52 131s80.667 41 138 41c60.667 0 124 -12.667 190 -38l1 -548
c0 -17.333 4 -29.666 12 -36.999s20 -11 36 -11h20v-100z" />
    <glyph glyph-name="ffi" unicode="ffi" horiz-adv-x="788" 
d="M192 404v-404h-113v404h-58v91h58v50c0 60 18 103.833 54 131.5s83 41.5 141 41.5c46 0 85.667 -8.33301 119 -25c34.667 30 83 45 145 45c76.667 0 135.667 -23 177 -69l-67 -76c-27.333 29.333 -64.333 44 -111 44c-54 0 -81 -25 -81 -75v-67h263v-495h-113v404h-150
v-404h-113v404h-151zM192 495h151v70c0 12.667 1 24.667 3 36c-21.333 10.667 -45.333 16 -72 16c-54.667 0 -82 -25 -82 -75v-47z" />
    <glyph glyph-name="ffl" unicode="ffl" horiz-adv-x="807" 
d="M537 737c52.667 0 113 -13.001 181 -39.001l1 -550c0 -17.333 4 -29.666 12 -36.999s20 -11 36 -11h20v-100h-43c-92 0 -138 43.667 -138 131v492c-27.333 9.33301 -50.333 14 -69 14c-54.667 0 -82 -25 -82 -75v-67h98v-91h-98v-404h-112v404h-151v-404h-113v404h-58v91
h58v50c0 60 18 103.667 54 131s83 41 141 41c46 0 85.667 -8.33301 119 -25c34 30 82 45 144 45zM273 616.999c-50.667 0 -77.667 -22.333 -81 -67v-55h151v70c0 16.667 0.666992 28.667 2 36c-20 10.667 -44 16 -72 16z" />
    <glyph glyph-name="ft" unicode="ft" horiz-adv-x="561" 
d="M528 404l-73.999 -0.000976562v-248c0 -19.333 3.5 -33.666 10.5 -42.999s18.833 -14 35.5 -14h37v-99h-68c-38 0 -68.833 11 -92.5 33s-35.5 52.667 -35.5 92v279h-149v-404h-113v404h-58v91h58v96c0 44.667 13.167 78.667 39.5 102s60.166 35 101.499 35h73v-98h-55
c-30.667 0 -46 -17.333 -46 -52v-83h150v131h111v-130h75v-92z" />
    <glyph glyph-name=".notdef" horiz-adv-x="450" 
d="M0 0v700h450v-700h-450zM109 73h232l-116 210zM225 418l116 209h-233zM73 554v-407l111 204zM266 349l111 -202v407z" />
    <glyph glyph-name="space" unicode=" " horiz-adv-x="252" 
 />
    <glyph glyph-name="exclam" unicode="!" horiz-adv-x="268" 
d="M190 696l-10 -512h-92l-10 512h112zM194 0h-119v113h119v-113z" />
    <glyph glyph-name="quotedbl" unicode="&#x22;" horiz-adv-x="359" 
d="M297 481h-94v215h94v-215zM151 481h-94v215h94v-215z" />
    <glyph glyph-name="numbersign" unicode="#" horiz-adv-x="546" 
d="M417 410l-18 -123h95v-78h-106l-29 -209h-91l29 209h-98l-29 -209h-92l30 209h-89v78h101l17 123h-89v79h101l29 206h90l-29 -206h99l29 206h90l-29 -206h95v-79h-106zM228 410l-18 -123h99l18 123h-99z" />
    <glyph glyph-name="dollar" unicode="$" horiz-adv-x="525" 
d="M240 -111l-0.00195312 107.001c-82 5.33301 -153.333 36 -214 92l68 88c46.667 -40.667 95.334 -63.667 146.001 -69v187c-58.667 19.333 -105.167 44 -139.5 74s-51.5 71.333 -51.5 124c0 56 17.333 102.667 52 140s81 58.333 139 63v74h52v-74
c68 -4 129.333 -25.667 184 -65c-1.33301 -2 -6.5 -10.833 -15.5 -26.5l-26.5 -45.5c-8.66699 -14.667 -14 -23.334 -16 -26.001c-46 30 -88 47.333 -126 52v-179c70 -21.333 122 -47.333 156 -78s51 -74 51 -130c0 -59.333 -19.167 -106.833 -57.5 -142.5
s-88.166 -55.167 -149.499 -58.5v-107h-52zM368.998 191.001c0 23.333 -6.66699 41.5 -20 54.5s-32.333 24.167 -57 33.5v-171c51.333 8 77 35.667 77 83zM169.998 497.001c0 -31.333 23.333 -56 70 -74v160c-21.333 -4 -38.333 -13.167 -51 -27.5s-19 -33.833 -19 -58.5z
" />
    <glyph glyph-name="percent" unicode="%" horiz-adv-x="860" 
d="M795 121c0 -38 -13.667 -68.167 -41 -90.5s-60.333 -33.5 -99 -33.5c-38 0 -70.667 11.167 -98 33.5s-41 52.5 -41 90.5v174c0 38 13.667 68.333 41 91s60 34 98 34c38.667 0 71.667 -11.333 99 -34s41 -53 41 -91v-174zM707 124v169c0 16 -4.66699 28.333 -14 37
s-22 13 -38 13c-15.333 0 -27.666 -4.33301 -36.999 -13s-14 -21 -14 -37v-169c0 -16 4.66699 -28.333 14 -37s21.666 -13 36.999 -13c16 0 28.667 4.33301 38 13s14 21 14 37zM344 400c0 -38 -13.667 -68.167 -41 -90.5s-60.333 -33.5 -99 -33.5
c-38 0 -70.667 11.167 -98 33.5s-41 52.5 -41 90.5v174c0 38 13.667 68.333 41 91s60 34 98 34c38.667 0 71.667 -11.333 99 -34s41 -53 41 -91v-174zM256 403v169c0 16 -4.66699 28.333 -14 37s-22 13 -38 13c-15.333 0 -27.666 -4.33301 -36.999 -13s-14 -21 -14 -37v-169
c0 -16 4.66699 -28.333 14 -37s21.666 -13 36.999 -13c16 0 28.667 4.33301 38 13s14 21 14 37zM688 713l-426 -730h-89l425 730h90z" />
    <glyph glyph-name="ampersand" unicode="&#x26;" horiz-adv-x="649" 
d="M495 0l-51.0029 66.001c-53.333 -48 -111.333 -72 -174 -72c-66 0 -116.167 17.167 -150.5 51.5s-51.5 77.166 -51.5 128.499c0 82 43.333 152.333 130 211l-35 47c-6.66699 9.33301 -14.167 23.833 -22.5 43.5s-12.5 39.167 -12.5 58.5c0 51.333 15.833 92.333 47.5 123
s78.167 46 139.5 46c68.667 0 128.334 -21.667 179.001 -65l-64 -83c-23.333 19.333 -43.666 32 -60.999 38s-37.333 9 -60 9c-23.333 0 -41.333 -6.33301 -54 -19s-19 -28.334 -19 -47.001c0 -19.333 10 -42.666 30 -69.999l180 -237c16 30.667 28 66.667 36 108l102 -22
c-13.333 -68 -36.666 -125.667 -69.999 -173l53 -67l60 -75h-132zM381.997 145.001l-56.999 74.5l-68 87.5c-54.667 -36 -82 -78.667 -82 -128c0 -24.667 8.5 -44.667 25.5 -60s41.167 -23 72.5 -23c37.333 0 73.666 16.333 108.999 49z" />
    <glyph glyph-name="quotesingle" unicode="'" horiz-adv-x="251" 
d="M170 481h-94v215h94v-215z" />
    <glyph glyph-name="parenleft" unicode="(" horiz-adv-x="332" 
d="M316 -83l-62.001 -48.001c-58 62.667 -105.333 131.5 -142 206.5s-55 151.5 -55 229.5c0 149.333 64.333 294 193 434l66 -42c-44 -58 -78 -121.167 -102 -189.5s-36 -134.166 -36 -197.499c0 -66.667 12.333 -134.5 37 -203.5s58.334 -132.167 101.001 -189.5z" />
    <glyph glyph-name="parenright" unicode=")" horiz-adv-x="332" 
d="M296 305c0 -78 -18.333 -154.499 -55 -229.499s-84 -143.833 -142 -206.5l-63 48c43.333 57.333 77.333 120.333 102 189s37 136.667 37 204c0 63.333 -12 129.166 -36 197.499s-58 131.5 -102 189.5l65 42c129.333 -139.333 194 -284 194 -434z" />
    <glyph glyph-name="asterisk" unicode="*" horiz-adv-x="413" 
d="M264 512l79.002 -88.999c-10 -9.33301 -34.333 -27.333 -73 -54l-61 103l-63 -104l-73 54l80 90c-34.667 9.33301 -72.334 18.666 -113.001 27.999c0.666992 4 4.66699 18 12 42s11.666 38 12.999 42l111 -47l-6 60.5c-3.33301 33.667 -5 53.5 -5 59.5h90l-12 -120
l111 47l25 -84z" />
    <glyph glyph-name="plus" unicode="+" horiz-adv-x="525" 
d="M501 251h-191v-189h-95v189h-191v90h191v187h95v-187h191v-90z" />
    <glyph glyph-name="comma" unicode="," horiz-adv-x="276" 
d="M126 -132h-63l36 131h-33v139h137v-133z" />
    <glyph glyph-name="hyphen" unicode="-" horiz-adv-x="416" 
d="M367 211h-318v103h318v-103z" />
    <glyph glyph-name="period" unicode="." horiz-adv-x="270" 
d="M203 0h-136v138h136v-138z" />
    <glyph glyph-name="slash" unicode="/" horiz-adv-x="343" 
d="M336 725l-252 -767h-93l252 767h93z" />
    <glyph glyph-name="zero" unicode="0" horiz-adv-x="525" 
d="M475 197c0 -62 -20.333 -111.167 -61 -147.5s-89.667 -54.5 -147 -54.5c-56.667 0 -105.334 18.167 -146.001 54.5s-61 85.5 -61 147.5v301c0 62 20.333 111.333 61 148s89.334 55 146.001 55c57.333 0 106.333 -18.333 147 -55s61 -86 61 -148v-301zM360 201v294
c0 31.333 -8.33301 55.666 -25 72.999s-39.334 26 -68.001 26s-51.167 -8.66699 -67.5 -26s-24.5 -41.666 -24.5 -72.999v-294c0 -31.333 8.16699 -55.666 24.5 -72.999s38.833 -26 67.5 -26s51.334 8.66699 68.001 26s25 41.666 25 72.999z" />
    <glyph glyph-name="one" unicode="1" horiz-adv-x="525" 
d="M350 0h-115v570l-97 -69v121l105 74h107v-696z" />
    <glyph glyph-name="two" unicode="2" horiz-adv-x="525" 
d="M169 494l-114 17.998c7.33301 56.667 30.833 102.334 70.5 137.001s86.167 52 139.5 52c61.333 0 111.333 -16.333 150 -49s58 -79 58 -139c0 -52 -16.667 -97.667 -50 -137l-221 -266h267v-110h-418v103l274 330c19.333 24.667 29 49.334 29 74.001
c0 23.333 -7.83301 43.333 -23.5 60s-37.5 25 -65.5 25c-25.333 0 -46.5 -8.5 -63.5 -25.5s-27.833 -41.167 -32.5 -72.5z" />
    <glyph glyph-name="three" unicode="3" horiz-adv-x="525" 
d="M48 162l111.999 16c4.66699 -24.667 15.834 -43.5 33.501 -56.5s38.834 -19.5 63.501 -19.5c30 0 54.5 10.167 73.5 30.5s28.5 46.5 28.5 78.5s-9.33301 57.333 -28 76s-44.334 28 -77.001 28h-55v94h51c32.667 0 58.167 8.83301 76.5 26.5s27.5 39.834 27.5 66.501
c0 26 -9.16699 47.667 -27.5 65s-40.833 26 -67.5 26c-20.667 0 -39.834 -6.83301 -57.501 -20.5s-29.167 -33.834 -34.5 -60.501l-112 18c10.667 52 35.334 93.5 74.001 124.5s83 46.5 133 46.5c69.333 0 122 -18.5 158 -55.5s54 -83.167 54 -138.5
c0 -26.667 -7.5 -53.5 -22.5 -80.5s-37.167 -48.167 -66.5 -63.5c32 -16 56 -38 72 -66s24 -56.667 24 -86c0 -64 -20.667 -116 -62 -156s-95 -60 -161 -60c-50.667 0 -95.5 13.5 -134.5 40.5s-64.167 69.167 -75.5 126.5z" />
    <glyph glyph-name="four" unicode="4" horiz-adv-x="525" 
d="M499 101h-57v-101h-115v101h-299v98l241 497h127l-238 -489h169v193h115v-193h57v-106z" />
    <glyph glyph-name="five" unicode="5" horiz-adv-x="525" 
d="M479 265c0 -83.333 -17.3301 -149.167 -51.9971 -197.5s-89.334 -72.5 -164.001 -72.5c-120.667 0 -191 55.333 -211 166l114 20c9.33301 -54 41 -81 95 -81c67.333 0 101 48.333 101 145c0 86 -32.333 129 -97 129c-36.667 0 -65.334 -20 -86.001 -60h-108v382h389v-107
h-280v-151c30 26.667 68.333 40 115 40c60.667 0 106.167 -19 136.5 -57s46.166 -90 47.499 -156z" />
    <glyph glyph-name="six" unicode="6" horiz-adv-x="525" 
d="M479 217c0 -72.667 -21.167 -127.834 -63.5 -165.501s-93.5 -56.5 -153.5 -56.5c-58.667 0 -107.667 18.833 -147 56.5s-59 89.834 -59 156.501c0 47.333 11 92 33 134l186 354h128l-150 -288l2 -2c14 4 28.667 6 44 6c54 0 97.5 -18.5 130.5 -55.5
s49.5 -83.5 49.5 -139.5zM360 210c0 34 -9 60.333 -27 79s-40.667 28 -68 28c-26 0 -48.167 -9.33301 -66.5 -28s-27.5 -45 -27.5 -79c0 -34.667 8.5 -61.5 25.5 -80.5s39.833 -28.5 68.5 -28.5c26.667 0 49.167 9.66699 67.5 29s27.5 46 27.5 80z" />
    <glyph glyph-name="seven" unicode="7" horiz-adv-x="525" 
d="M470 592l-245 -592h-124l239 586h-171v-99h-115v209h416v-104z" />
    <glyph glyph-name="eight" unicode="8" horiz-adv-x="525" 
d="M489 204c0 -61.333 -21.5 -111.5 -64.5 -150.5s-95.5 -58.5 -157.5 -58.5c-61.333 0 -113.666 19.5 -156.999 58.5s-65 89.167 -65 150.5c0 32 8.33301 62.5 25 91.5s40 49.833 70 62.5v3c-26.667 12 -46.834 30.667 -60.501 56s-20.5 53 -20.5 83
c0 57.333 19.833 105.166 59.5 143.499s89.167 57.5 148.5 57.5c66 0 117.333 -18.667 154 -56s55 -85.666 55 -144.999c0 -29.333 -7 -56.333 -21 -81s-34 -44 -60 -58v-2c30 -12 53.167 -32.667 69.5 -62s24.5 -60.333 24.5 -93zM362 499c0 29.333 -9 53 -27 71
s-40.667 27 -68 27c-26.667 0 -49 -8.83301 -67 -26.5s-27 -41.5 -27 -71.5c0 -28.667 9.16699 -51 27.5 -67s40.5 -24 66.5 -24s48.333 8.16699 67 24.5s28 38.5 28 66.5zM375 207c0 28.667 -10.6689 52.834 -32.002 72.501s-46.666 29.5 -75.999 29.5
s-54.666 -9.83301 -75.999 -29.5s-32 -43.834 -32 -72.501c0 -29.333 10.5 -54.5 31.5 -75.5s46.5 -31.5 76.5 -31.5s55.5 10.333 76.5 31s31.5 46 31.5 76z" />
    <glyph glyph-name="nine" unicode="9" horiz-adv-x="525" 
d="M57 479c0 72.667 21.167 127.834 63.5 165.501s93.5 56.5 153.5 56.5c58.667 0 107.667 -18.833 147 -56.5s59 -89.834 59 -156.501c0 -47.333 -11 -92 -33 -134l-186 -354h-128l150 288l-2 2c-14 -4 -28.667 -6 -44 -6c-54 0 -97.5 18.5 -130.5 55.5
s-49.5 83.5 -49.5 139.5zM176 486c0 -34 9 -60.333 27 -79s40.667 -28 68 -28c26 0 48.167 9.33301 66.5 28s27.5 45 27.5 79c0 34.667 -8.5 61.5 -25.5 80.5s-39.833 28.5 -68.5 28.5c-26.667 0 -49.167 -9.66699 -67.5 -29s-27.5 -46 -27.5 -80z" />
    <glyph glyph-name="colon" unicode=":" horiz-adv-x="271" 
d="M202 0h-136v138h136v-138zM202 276h-136v139h136v-139z" />
    <glyph glyph-name="semicolon" unicode=";" horiz-adv-x="271" 
d="M203 276h-136v139h136v-139zM126 -132h-62l35 131h-32v139h136v-133z" />
    <glyph glyph-name="less" unicode="&#x3c;" horiz-adv-x="525" 
d="M490 40l-460 213v87l460 213v-102l-340 -155l340 -155v-101z" />
    <glyph glyph-name="equal" unicode="=" horiz-adv-x="525" 
d="M501 357h-478v89h478v-89zM501 146h-478v90h478v-90z" />
    <glyph glyph-name="greater" unicode="&#x3e;" horiz-adv-x="525" 
d="M491 253l-460 -213v101l340 155l-340 155v102l460 -213v-87z" />
    <glyph glyph-name="question" unicode="?" horiz-adv-x="510" 
d="M470 510c0 -26 -8 -52.832 -24 -80.499s-33.333 -51.5 -52 -71.5s-36 -42.167 -52 -66.5s-24 -46.5 -24 -66.5v-36h-117v39c0 26.667 7.5 53.167 22.5 79.5s31.333 48.166 49 65.499s34 38 49 62s22.5 47.667 22.5 71c0 22 -7.83301 41.5 -23.5 58.5
s-38.167 25.5 -67.5 25.5s-52.833 -10.667 -70.5 -32s-27.5 -46.333 -29.5 -75c-39.333 6 -77 11.333 -113 16c10.667 64 36.667 113.5 78 148.5s89.666 52.5 144.999 52.5c62.667 0 112.834 -17.833 150.501 -53.5s56.5 -81.167 56.5 -136.5zM318 0.000976562h-118v113h118
v-113z" />
    <glyph glyph-name="at" unicode="@" horiz-adv-x="874" 
d="M585 409l-1 -149.001c0 -14.667 4.33301 -27.167 13 -37.5s20.334 -15.5 35.001 -15.5c64.667 0 97 58.667 97 176c0 79.333 -27 142.833 -81 190.5s-119.667 71.5 -197 71.5c-89.333 0 -163.666 -30.167 -222.999 -90.5s-89 -134.166 -89 -221.499
c0 -92 29.667 -166.667 89 -224s136.333 -86 231 -86c77.333 0 150.666 16.333 219.999 49l26 -73c-84 -33.333 -164.333 -50 -241 -50c-119.333 0 -217.333 34.5 -294 103.5s-115 162.833 -115 281.5c0 109.333 37.5 200.666 112.5 273.999s169.167 110 282.5 110
c105.333 0 192.166 -31 260.499 -93s102.5 -142 102.5 -240c0 -79.333 -16.667 -141.666 -50 -186.999s-80.333 -68 -141 -68c-18.667 0 -39.5 5.83301 -62.5 17.5s-37.833 27.167 -44.5 46.5h-5c-8.66699 -16 -23.334 -29.5 -44.001 -40.5s-43.667 -16.5 -69 -16.5
c-40.667 0 -74.167 10 -100.5 30s-39.5 49.667 -39.5 89c0 34 12 62.333 36 85s57 34 99 34h105v28c0 38 -26.333 57 -79 57c-32 0 -61.333 -11.667 -88 -35l-51 57c40.667 39.333 90.334 59 149.001 59c104.667 0 157 -44 157 -132zM497 277.999l0.000976562 28h-90
c-42.667 0 -64 -14.333 -64 -43c0 -12.667 5.66699 -23.834 17 -33.501s29 -14.5 53 -14.5c25.333 0 45.666 5.33301 60.999 16s23 26.334 23 47.001z" />
    <glyph glyph-name="A" unicode="A" horiz-adv-x="629" 
d="M626 0h-128l-55 154h-258l-56 -154h-127l263 696h98zM407 257l-46 141l-46 143h-3l-45 -140l-47 -144h187z" />
    <glyph glyph-name="B" unicode="B" horiz-adv-x="618" 
d="M582 200c0 -58.667 -19.832 -106.666 -59.499 -143.999s-87.834 -56 -144.501 -56h-305v696h278c69.333 0 123 -17.333 161 -52s57 -80.667 57 -138c0 -66.667 -32 -114.334 -96 -143.001v-4c34 -10 60.667 -30.5 80 -61.5s29 -63.5 29 -97.5zM443.001 499.001
c0 26.667 -9.16699 48.167 -27.5 64.5s-45.166 24.5 -80.499 24.5h-141v-181h141c35.333 0 62.166 8.66699 80.499 26s27.5 39.333 27.5 66zM459.001 207.001c0 27.333 -9.33301 50.5 -28 69.5s-46 28.5 -82 28.5h-155v-195h155c36 0 63.333 9.33301 82 28s28 41.667 28 69z
" />
    <glyph glyph-name="C" unicode="C" horiz-adv-x="572" 
d="M436 204l115 -48c-17.333 -50.667 -47.333 -90.334 -90 -119.001s-94 -43 -154 -43c-84 0 -148.167 24.667 -192.5 74s-66.5 113 -66.5 191v178c0 74.667 22.5 137.334 67.5 188.001s108.833 76 191.5 76c59.333 0 110.166 -14.5 152.499 -43.5s72.5 -68.5 90.5 -118.5
l-114 -45c-8.66699 28 -24.167 50.333 -46.5 67s-49.833 25 -82.5 25c-44 0 -77.833 -14.167 -101.5 -42.5s-35.5 -62.166 -35.5 -101.499v-185c0 -41.333 11.833 -76.5 35.5 -105.5s57.5 -43.5 101.5 -43.5c32 0 59.333 8.66699 82 26s38.334 40.666 47.001 69.999z" />
    <glyph glyph-name="D" unicode="D" horiz-adv-x="638" 
d="M194 586v-476h119c56 0 96 14.833 120 44.5s36 72.5 36 128.5v130c0 60.667 -13.167 104.667 -39.5 132s-65.833 41 -118.5 41h-117zM73 696h253c116.667 0 195.667 -43 237 -129c18 -36.667 27 -105.667 27 -207c0 -108.667 -8.33301 -182.667 -25 -222
c-40 -92 -125.333 -138 -256 -138h-236v696z" />
    <glyph glyph-name="E" unicode="E" horiz-adv-x="564" 
d="M539 0h-466v696h466v-110h-345v-182h294v-106h-294v-188h345v-110z" />
    <glyph glyph-name="F" unicode="F" horiz-adv-x="545" 
d="M539 586h-345v-188h294v-105h-294v-293h-121v696h466v-110z" />
    <glyph glyph-name="G" unicode="G" horiz-adv-x="618" 
d="M308 104c38.667 0 71.667 14.167 99 42.5s41 61.5 41 99.5v30h-145v104h265v-137c0 -72 -24.833 -131.5 -74.5 -178.5s-111.5 -70.5 -185.5 -70.5c-84 0 -148 24.5 -192 73.5s-66 112.833 -66 191.5v178c0 74.667 22 137.334 66 188.001s107 76 189 76
c60 0 111.167 -14.5 153.5 -43.5s72.5 -68.5 90.5 -118.5l-114 -45c-8.66699 28 -24.5 50.333 -47.5 67s-50.833 25 -83.5 25c-43.333 0 -76.333 -14 -99 -42s-34 -62 -34 -102v-188c0 -40.667 12 -75.834 36 -105.501s57.667 -44.5 101 -44.5z" />
    <glyph glyph-name="H" unicode="H" horiz-adv-x="655" 
d="M582 0h-120v298h-268v-298h-121v696h121v-292h268v292h120v-696z" />
    <glyph glyph-name="I" unicode="I" horiz-adv-x="268" 
d="M196 0h-122v696h122v-696z" />
    <glyph glyph-name="J" unicode="J" horiz-adv-x="489" 
d="M424 224c0 -80.667 -21.334 -139 -64.001 -175s-97.667 -54 -165 -54c-75.333 0 -138.666 28.667 -189.999 86l86 79c34 -36 67.667 -54 101 -54c74 0 111 40.667 111 122v468h121v-472z" />
    <glyph glyph-name="K" unicode="K" horiz-adv-x="638" 
d="M645 0h-143l-195 324l-113 -131v-193h-121v696h122v-337l2 -1l117 143l164 195h144l-235 -278z" />
    <glyph glyph-name="L" unicode="L" horiz-adv-x="564" 
d="M539 0h-466v696h121v-586h345v-110z" />
    <glyph glyph-name="M" unicode="M" horiz-adv-x="765" 
d="M702 0h-120.999v413h-3l-37 -89l-51 -112l-54 -114h-97l-40 85l-66 146l-36 85l-3 -3v-411h-121v696h113l91 -199c19.333 -42 55.666 -125.333 108.999 -250h4l56 133l51 117l89 199h116v-696z" />
    <glyph glyph-name="N" unicode="N" horiz-adv-x="692" 
d="M621 0h-112l-215 324l-97 159l-3 -1v-482h-121v696h112l195 -296l118 -188l2 2v482h121v-696z" />
    <glyph glyph-name="O" unicode="O" horiz-adv-x="610" 
d="M304 701c78.667 0 141.667 -24.6689 189 -74.002s71 -112.666 71 -189.999v-178c0 -80.667 -23.5 -145 -70.5 -193s-110.167 -72 -189.5 -72c-82.667 0 -146.5 25.333 -191.5 76s-67.5 113.667 -67.5 189v178c0 74.667 22.5 137.334 67.5 188.001s108.833 76 191.5 76z
M304 586.998c-44 0 -77.833 -14.1689 -101.5 -42.502s-35.5 -62.166 -35.5 -101.499v-187c0 -41.333 11.833 -76.5 35.5 -105.5s57.5 -43.5 101.5 -43.5c41.333 0 74.5 14 99.5 42s37.5 63.667 37.5 107v187c0 40.667 -12.333 74.834 -37 102.501s-58 41.5 -100 41.5z" />
    <glyph glyph-name="P" unicode="P" horiz-adv-x="591" 
d="M581 478c0 -57.333 -21.501 -106.833 -64.501 -148.5s-97.5 -62.5 -163.5 -62.5h-159v-267h-121v696h271c68.667 0 125.334 -19 170.001 -57s67 -91.667 67 -161zM456.999 481c0 34.667 -10.333 60.833 -31 78.5s-49 26.5 -85 26.5h-147v-209h151c34 0 61.167 10 81.5 30
s30.5 44.667 30.5 74z" />
    <glyph glyph-name="Q" unicode="Q" horiz-adv-x="618" 
d="M307 701c79.333 0 142.667 -24.6689 190 -74.002s71 -112.666 71 -189.999v-178c0 -50 -9.66699 -94.333 -29 -133l86 -69l-66 -77l-85 66c-44 -34.667 -99.667 -52 -167 -52c-82.667 0 -146.334 25.333 -191.001 76s-67 113.667 -67 189v178
c0 74.667 22.333 137.334 67 188.001s108.334 76 191.001 76zM307.001 585.998c-48 0 -82.835 -15.667 -104.502 -47s-32.5 -70 -32.5 -116v-166c0 -41.333 12 -76.5 36 -105.5s57.667 -43.5 101 -43.5c24.667 0 46.334 6.33301 65.001 19l-83 66l67 80l40.5 -33l40.5 -32
c5.33301 16 8 32.333 8 49v166c0 46.667 -11.167 85.5 -33.5 116.5s-57.166 46.5 -104.499 46.5z" />
    <glyph glyph-name="R" unicode="R" horiz-adv-x="625" 
d="M580 0h-136.001l-121 287h-129v-287h-121v696h296c60.667 0 111.334 -18.167 152.001 -54.5s61 -84.833 61 -145.5c0 -44 -12.167 -82.833 -36.5 -116.5s-58.5 -58.5 -102.5 -74.5zM457.999 496c0 31.333 -9.66797 54.667 -29.001 70s-45.666 23 -78.999 23h-156v-194
h152c33.333 0 60.333 8.83301 81 26.5s31 42.5 31 74.5z" />
    <glyph glyph-name="S" unicode="S" horiz-adv-x="569" 
d="M518 637l-59.9971 -100.001c-52.667 34.667 -110 52 -172 52c-40 0 -69.667 -8 -89 -24s-29 -37.333 -29 -64c0 -27.333 12.167 -47.166 36.5 -59.499s68.833 -24.166 133.5 -35.499c29.333 -5.33301 54.666 -11.833 75.999 -19.5s42.5 -18.667 63.5 -33
s37.167 -33.833 48.5 -58.5s17 -54.334 17 -89.001c0 -65.333 -25.167 -117 -75.5 -155s-112.5 -57 -186.5 -57c-112 0 -204 32 -276 96l73 94c56 -51.333 125.667 -77 209 -77c39.333 0 70.666 8.16699 93.999 24.5s35 39.833 35 70.5c0 27.333 -10.167 48.333 -30.5 63
s-52.5 25.334 -96.5 32.001c-28.667 4 -52.834 8.16699 -72.501 12.5s-41 11.333 -64 21s-41.5 21.167 -55.5 34.5s-25.667 31.166 -35 53.499s-14 48.5 -14 78.5c0 65.333 23.167 115.833 69.5 151.5s101.833 53.5 166.5 53.5c95.333 0 173.333 -21.667 234 -65z" />
    <glyph glyph-name="T" unicode="T" horiz-adv-x="521" 
d="M513 588h-194v-588h-121v588h-193v108h508v-108z" />
    <glyph glyph-name="U" unicode="U" horiz-adv-x="638" 
d="M579 247c0 -75.333 -24.333 -136.167 -73 -182.5s-111 -69.5 -187 -69.5c-78 0 -140.667 24.167 -188 72.5s-71 109.833 -71 184.5v444h120v-435c0 -44 12.667 -80.5 38 -109.5s59.333 -43.5 102 -43.5c42 0 75.333 12.833 100 38.5s37 62.167 37 109.5v440h122v-449z
" />
    <glyph glyph-name="V" unicode="V" horiz-adv-x="575" 
d="M571 696l-235 -696h-99l-236 696h129l100 -318l56 -184h5l53 183l98 319h129z" />
    <glyph glyph-name="W" unicode="W" horiz-adv-x="839" 
d="M419 473c-0.666992 0 -1.66699 -0.333008 -3 -1l-33.5 -127l-33.5 -127c-2 -8.66699 -12 -44.5 -30 -107.5s-28.333 -100.167 -31 -111.5h-101l-181 696h129l78 -340l28 -127h4l32 126l95 341h92c40 -138.667 72 -253.334 96 -344.001l33 -124h4
c3.33301 15.333 8.16602 38.833 14.499 70.5l10.5 52.5c36 162.667 62.333 277.667 79 345h128l-181 -696h-100c-39.333 142.667 -62.666 226.334 -69.999 251.001z" />
    <glyph glyph-name="X" unicode="X" horiz-adv-x="576" 
d="M575 0h-136l-152 257l-151 -257h-136l225 356l-212 340h137l137 -240l138 240h136l-211 -340z" />
    <glyph glyph-name="Y" unicode="Y" horiz-adv-x="557" 
d="M553 696l-217 -410v-286h-115v286l-113 213l-104 197h129l84 -172l61 -134h2l62 137l83 169h128z" />
    <glyph glyph-name="Z" unicode="Z" horiz-adv-x="527" 
d="M497 0h-467v104l323 485h-310v107h454v-99l-323 -486h323v-111z" />
    <glyph glyph-name="bracketleft" unicode="[" horiz-adv-x="288" 
d="M269 -100h-199v799h199v-82h-93v-636h93v-81z" />
    <glyph glyph-name="backslash" unicode="\" horiz-adv-x="343" 
d="M244 -42l-252 767h93l252 -767h-93z" />
    <glyph glyph-name="bracketright" unicode="]" horiz-adv-x="288" 
d="M221 -100h-199v81h93v636h-93v82h199v-799z" />
    <glyph glyph-name="asciicircum" unicode="^" horiz-adv-x="525" 
d="M505 282h-101l-140 298l-140 -299h-100l197 414h87z" />
    <glyph glyph-name="underscore" unicode="_" horiz-adv-x="500" 
d="M500 -145h-500v76h500v-76z" />
    <glyph glyph-name="grave" unicode="`" horiz-adv-x="504" 
d="M342 573l-67 -29l-123 179l108 36z" />
    <glyph glyph-name="a" unicode="a" horiz-adv-x="499" 
d="M245 500c136.667 0 205 -54.667 205 -164v-336h-113v44c-0.666992 0.666992 -1.33398 1 -2.00098 1c-24.667 -33.333 -67.667 -50 -129 -50c-53.333 0 -95.166 13 -125.499 39s-45.5 62.667 -45.5 110c0 42 14.833 77.333 44.5 106s70.834 43 123.501 43h134v36
c0 47.333 -32.667 71 -98 71c-50 0 -89.333 -13.667 -118 -41l-60 76c43.333 43.333 104.666 65 183.999 65zM142 152c0 -17.333 7.00098 -31.833 21.001 -43.5s36.333 -17.5 67 -17.5c65.333 0 100.666 23 105.999 69c0.666992 5.33301 1 21 1 47h-115
c-53.333 0 -80 -18.333 -80 -55z" />
    <glyph glyph-name="b" unicode="b" horiz-adv-x="515" 
d="M473 257c0 -174.667 -59.333 -262 -178 -262c-54 0 -94.667 17.667 -122 53l-2 -1v-47h-113v727h113v-279l2 -1c32.667 35.333 73.334 53 122.001 53c117.333 0 176.666 -81 177.999 -243zM357 248c0 20 -1.00098 37.166 -3.00098 51.499s-5.83301 29.333 -11.5 45
s-15.167 27.667 -28.5 36s-30 12.5 -50 12.5c-62 0 -93 -48.333 -93 -145c0 -100 31 -150 93 -150c16.667 0 30.834 3.33301 42.501 10s20.667 14.667 27 24s11.333 21.333 15 36s6 27.834 7 39.501s1.5 25.167 1.5 40.5z" />
    <glyph glyph-name="c" unicode="c" horiz-adv-x="447" 
d="M430 67c-50.667 -48.667 -109.002 -73 -175.002 -73c-64.667 0 -118.667 21.167 -162 63.5s-65 105.5 -65 189.5s22.333 147.167 67 189.5s99.334 63.5 164.001 63.5c66 0 122.333 -23.333 169 -70l-73 -79c-29.333 30.667 -60.666 46 -93.999 46
c-78 0 -117 -50 -117 -150c0 -99.333 38.667 -149 116 -149c32.667 0 64.667 15.667 96 47z" />
    <glyph glyph-name="d" unicode="d" horiz-adv-x="515" 
d="M463 0h-113v46l-2 2c-31.333 -35.333 -72.666 -53 -123.999 -53c-30 0 -56.167 5.16699 -78.5 15.5s-39.5 23.333 -51.5 39s-21.667 35.5 -29 59.5s-12 46.667 -14 68s-3 46 -3 74c0 31.333 2.83301 60.5 8.5 87.5s15 53.333 28 79s32.5 46 58.5 61s57 22.5 93 22.5
c49.333 0 86.666 -16 111.999 -48l2 1v272h113v-726zM350 248c0 18.667 -0.998047 35.1689 -2.99805 49.502s-5.83301 29.5 -11.5 45.5s-15 28.333 -28 37s-29.167 13 -48.5 13c-20.667 0 -37.834 -4.5 -51.501 -13.5s-23.334 -21.833 -29.001 -38.5
s-9.5 -32.334 -11.5 -47.001s-3 -32.334 -3 -53.001c0 -18.667 1 -35 3 -49s5.83301 -28.5 11.5 -43.5s15.167 -26.667 28.5 -35s30 -12.5 50 -12.5c62 0 93 49 93 147z" />
    <glyph glyph-name="e" unicode="e" horiz-adv-x="507" 
d="M466 215l-311.997 0.00292969c0 -33.333 8.83301 -61.5 26.5 -84.5s43.834 -34.5 78.501 -34.5c16.667 0 36.167 4 58.5 12s41.833 19.667 58.5 35l33 -39.5l33 -39.5c-50 -46.667 -112.333 -70 -187 -70c-22.667 0 -43.834 2.16699 -63.501 6.5s-39.167 12.333 -58.5 24
s-35.833 26.667 -49.5 45s-24.834 42.666 -33.501 72.999s-13 64.833 -13 103.5c0 45.333 6.33301 85.166 19 119.499s29.667 61 51 80s44.166 33 68.499 42s50.166 13.5 77.499 13.5c66 0 118 -21.333 156 -64s57 -100.334 57 -173.001v-49zM252.003 398.003
c-26 0 -47.832 -9.16699 -65.499 -27.5s-27.834 -43.5 -30.501 -75.5h190c-2 32.667 -11.667 58 -29 76s-39 27 -65 27z" />
    <glyph glyph-name="f" unicode="f" horiz-adv-x="302" 
d="M293 404h-100.999v-404h-113v404h-58v91h58v96c0 44.667 13.167 78.667 39.5 102s60.166 35 101.499 35h73v-98h-55c-30.667 0 -46 -17.333 -46 -52v-83h101v-91z" />
    <glyph glyph-name="g" unicode="g" horiz-adv-x="522" 
d="M345 495l111.001 -0.000976562v-475c0 -148.667 -73.667 -223 -221 -223c-70 0 -127.333 20 -172 60l59 83c36.667 -26.667 77.334 -40 122.001 -40c31.333 0 56.166 8.83301 74.499 26.5s27.5 42.834 27.5 75.501v46h-2c-30.667 -35.333 -70.334 -53 -119.001 -53
c-121.333 0 -182 80.333 -182 241c0 176 61.667 264 185 264c50 0 88.333 -16.667 115 -50h2v45zM158.001 246.999c0 -21.333 1.00098 -39.333 3.00098 -54s5.83301 -29.667 11.5 -45s15.167 -27 28.5 -35s30.333 -12 51 -12c62 0 93 48.667 93 146
c0 18.667 -0.833008 34.667 -2.5 48s-5.16699 28.5 -10.5 45.5s-14.666 30.167 -27.999 39.5s-30.333 14 -51 14s-37.834 -4.33301 -51.501 -13s-23.334 -21 -29.001 -37s-9.5 -31.167 -11.5 -45.5s-3 -31.5 -3 -51.5z" />
    <glyph glyph-name="h" unicode="h" horiz-adv-x="529" 
d="M485 0h-112.999v294c0 66.667 -29.667 100 -89 100c-28 0 -51.167 -9 -69.5 -27s-27.5 -42.333 -27.5 -73v-294h-113v726h113v-279h3c15.333 16 34.666 28.833 57.999 38.5s46.333 14.5 69 14.5c49.333 0 89.833 -15.167 121.5 -45.5s47.5 -73.5 47.5 -129.5v-325z" />
    <glyph glyph-name="i" unicode="i" horiz-adv-x="247" 
d="M180 592h-113v104h113v-104zM180 0h-113v495h113v-495z" />
    <glyph glyph-name="j" unicode="j" horiz-adv-x="265" 
d="M190 592h-114v104h114v-104zM190 496v-555c0 -43.333 -12.5 -77.833 -37.5 -103.5s-61.167 -38.5 -108.5 -38.5h-52v100h28c37.333 0 56 19.667 56 59v538h114z" />
    <glyph glyph-name="k" unicode="k" horiz-adv-x="520" 
d="M523 0l-132.001 -0.000976562l-73 111l-72 111c-0.666992 -1.33301 -10.167 -11.666 -28.5 -30.999s-32.166 -34.333 -41.499 -45v-146h-112v726h112v-435h3l96 110l86 94h138l-179 -193l90 -134.5z" />
    <glyph glyph-name="l" unicode="l" horiz-adv-x="265" 
d="M245 0l-43 -0.000976562c-92 0 -138 43.667 -138 131v595h113v-578c0 -17.333 4 -29.666 12 -36.999s20 -11 36 -11h20v-100z" />
    <glyph glyph-name="m" unicode="m" horiz-adv-x="833" 
d="M772 0l-111.997 -0.000976562v295c0 67.333 -31 101 -93 101c-26.667 0 -48.834 -9.5 -66.501 -28.5s-26.5 -43.167 -26.5 -72.5v-295h-113v295c0 32 -7.83301 56.833 -23.5 74.5s-38.834 26.5 -69.501 26.5c-26.667 0 -49 -9.5 -67 -28.5s-27 -43.167 -27 -72.5v-295
h-113v495h113v-53h1c0.666992 -0.666992 1.33398 -1 2.00098 -1c14 18 33.167 32.333 57.5 43s49.166 16 74.499 16c62 0 107.667 -23.667 137 -71c45.333 47.333 97.666 71 156.999 71c51.333 0 92.333 -15.167 123 -45.5s46 -73.166 46 -128.499v-326z" />
    <glyph glyph-name="n" unicode="n" horiz-adv-x="529" 
d="M470 0h-113v294c0 66.667 -30.333 100 -91 100c-28 0 -50.833 -9 -68.5 -27s-26.5 -42.333 -26.5 -73v-294h-113v496h113v-52h2c15.333 17.333 34.833 31 58.5 41s47.167 15 70.5 15c52 0 93 -15 123 -45s45 -73.333 45 -130v-325z" />
    <glyph glyph-name="o" unicode="o" horiz-adv-x="515" 
d="M264 501c77.333 0 134.667 -27.6689 172 -83.002c25.333 -39.333 37.333 -93.666 36 -162.999c0 -72.667 -11.333 -128.667 -34 -168c-18.667 -30.667 -44.334 -54 -77.001 -70s-69 -24 -109 -24c-78.667 0 -135.667 26 -171 78
c-27.333 40.667 -40.333 99.334 -39 176.001c0 59.333 8.33301 106 25 140c16.667 36 42.334 64 77.001 84s74.667 30 120 30zM260.001 398.998c-40.667 0 -69.667 -18.666 -87 -55.999c-10 -22 -15.667 -54.333 -17 -97c0 -43.333 5 -75 15 -95c16 -36.667 44 -55 84 -55
c47.333 0 78.333 23.667 93 71c6 19.333 9 48.666 9 87.999c0 38.667 -4.33301 67.667 -13 87c-14.667 38 -42.667 57 -84 57z" />
    <glyph glyph-name="p" unicode="p" horiz-adv-x="516" 
d="M60 495l112.001 -0.000976562v-44l3 -1c30 33.333 70.333 50 121 50c37.333 0 68.5 -7.5 93.5 -22.5s43.333 -35.833 55 -62.5s19.667 -53.167 24 -79.5s6.5 -56.166 6.5 -89.499c0 -32 -2.66699 -61.5 -8 -88.5s-14.5 -53.5 -27.5 -79.5s-32.667 -46.5 -59 -61.5
s-58.5 -22.5 -96.5 -22.5c-48.667 0 -85.334 15.667 -110.001 47h-2v-241h-112v695zM172.001 245.999c0 -97.333 30.668 -146 92.001 -146c20 0 36.667 4.33301 50 13s23 20.667 29 36s10 30.5 12 45.5s3 32.167 3 51.5c0 16 -0.333008 29.5 -1 40.5
s-2.83398 23.833 -6.50098 38.5s-8.5 26.5 -14.5 35.5s-15 16.833 -27 23.5s-26.333 10 -43 10c-62.667 0 -94 -49.333 -94 -148z" />
    <glyph glyph-name="q" unicode="q" horiz-adv-x="522" 
d="M53 238c0 174.667 64.001 262 192.001 262c45.333 0 81.666 -17 108.999 -51h2v46h113v-697h-113v249h-2c-32.667 -35.333 -72.667 -53 -120 -53c-36.667 0 -67.5 7 -92.5 21s-43.5 33.5 -55.5 58.5s-20.5 50.5 -25.5 76.5s-7.5 55.333 -7.5 88zM169.001 246
c0 -20 1.00098 -37.1641 3.00098 -51.4971s5.83301 -29.333 11.5 -45s15.167 -27.667 28.5 -36s30.333 -12.5 51 -12.5c62 0 93 48.333 93 145c0 100.667 -30.667 151 -92 151c-16.667 0 -31 -3.33301 -43 -10s-21.333 -14.834 -28 -24.501s-11.834 -21.834 -15.501 -36.501
s-6 -27.834 -7 -39.501s-1.5 -25.167 -1.5 -40.5z" />
    <glyph glyph-name="r" unicode="r" horiz-adv-x="388" 
d="M270 395c-28 0 -50.5 -8.5 -67.5 -25.5s-25.5 -41.167 -25.5 -72.5v-298h-113v496h111v-59h4c30 42.667 70 64 120 64c38 0 69.333 -8.66699 94 -26l-42 -102c-25.333 15.333 -52.333 23 -81 23z" />
    <glyph glyph-name="s" unicode="s" horiz-adv-x="463" 
d="M433 151c0 -48 -19.3311 -86.166 -57.998 -114.499s-86.667 -42.5 -144 -42.5c-86.667 0 -158.334 25 -215.001 75l61 81c42.667 -39.333 95.667 -59 159 -59c24.667 0 45.167 5.16699 61.5 15.5s24.5 24.166 24.5 41.499c0 16.667 -7 29.334 -21 38.001
s-36.333 14.667 -67 18c-22 2.66699 -40 5.16699 -54 7.5s-30.5 6.83301 -49.5 13.5s-33.833 14.5 -44.5 23.5s-20 21.833 -28 38.5s-12 36 -12 58c0 48.667 17.667 86.667 53 114s79.333 41 132 41c77.333 0 140.666 -18.667 189.999 -56l-54 -86
c-43.333 28.667 -88 43 -134 43c-25.333 0 -45 -5 -59 -15s-21 -22.667 -21 -38c0 -16 9 -27.833 27 -35.5s48.333 -13.834 91 -18.501c108 -12 162 -59.667 162 -143z" />
    <glyph glyph-name="t" unicode="t" horiz-adv-x="316" 
d="M285 0h-68c-37.333 0 -67.833 11 -91.5 33s-35.5 52.333 -35.5 91v280h-57v92h58v129h110v-129h76v-92h-75v-249c0 -37.333 15.333 -56 46 -56h37v-99z" />
    <glyph glyph-name="u" unicode="u" horiz-adv-x="533" 
d="M59 495h112v-295c0 -34.667 7.16699 -60.167 21.5 -76.5s37.833 -24.5 70.5 -24.5c27.333 0 50 9.16699 68 27.5s27 42.833 27 73.5v295h113v-495h-113v49h-3c-30 -36.667 -72 -55 -126 -55c-53.333 0 -95 14.667 -125 44s-45 73.333 -45 132v325z" />
    <glyph glyph-name="v" unicode="v" horiz-adv-x="480" 
d="M240 155h3l43 138l67 202h122l-189 -495h-91l-190 495h122l36.5 -111.5c15.667 -49 25.5 -79.167 29.5 -90.5z" />
    <glyph glyph-name="w" unicode="w" horiz-adv-x="736" 
d="M514 168l6.00098 0.000976562c2.66699 8 5.16699 16.833 7.5 26.5l8 32c3 11.667 5.16699 20.5 6.5 26.5c3.33301 10 7.16602 23.333 11.499 40l21 78.5l34.5 123.5h121l-164 -495h-99l-70 231l-29 94h-2l-31 -106c-21.333 -73.333 -43.666 -146.333 -66.999 -219h-99
l-164 495h121c9.33301 -30.667 22.666 -77.334 39.999 -140.001c5.33301 -17.333 13.5 -46.833 24.5 -88.5s19.833 -73.5 26.5 -95.5h4c4.66699 14 18.667 60.333 42 139l58 185h95l74 -243z" />
    <glyph glyph-name="x" unicode="x" horiz-adv-x="501" 
d="M490 0h-136l-104 167l-103 -167h-136l180 253l-172 242h135l96 -160l97 160h135l-172 -243z" />
    <glyph glyph-name="y" unicode="y" horiz-adv-x="470" 
d="M470 495l-218 -595c-24.667 -66.667 -72.667 -100 -144 -100h-42v95h31c27.333 0 47.333 17.333 60 52l25 78l-182 470h122l64 -182l49 -156h4l49 154l63 184h119z" />
    <glyph glyph-name="z" unicode="z" horiz-adv-x="449" 
d="M417 0h-386v94l249 304h-235v97h372v-92l-248 -301h248v-102z" />
    <glyph glyph-name="braceleft" unicode="{" horiz-adv-x="288" 
d="M279 -98l-83.002 -0.00195312c-27.333 0 -50.666 8.83301 -69.999 26.5s-30.666 41.5 -33.999 71.5c-1.33301 14.667 -2 26.334 -2 35.001v101c0 16.667 -0.333008 28.667 -1 36c-4 56 -29.333 85.333 -76 88v77c25.333 2.66699 44.5 13.834 57.5 33.501
s19.5 45.167 19.5 76.5v133c0 34.667 10.167 62.667 30.5 84s45.5 32 75.5 32h83v-78h-41c-15.333 0 -26.333 -7.16699 -33 -21.5s-10 -31.166 -10 -50.499v-121c0 -33.333 -7.83301 -60.333 -23.5 -81s-33.167 -35.334 -52.5 -44.001v-2c20 -7.33301 37.667 -21.5 53 -42.5
s23 -47.833 23 -80.5v-124c0 -48 14.333 -72 43 -72h41v-77z" />
    <glyph glyph-name="bar" unicode="|" horiz-adv-x="232" 
d="M163 -195h-95v918h95v-918z" />
    <glyph glyph-name="braceright" unicode="}" horiz-adv-x="288" 
d="M276 260c-28.667 0.666992 -48.667 -11 -60 -35s-17 -53.667 -17 -89v-101c0 -16 -0.666992 -27.667 -2 -35c-3.33301 -30 -14.5 -53.833 -33.5 -71.5s-42.167 -26.5 -69.5 -26.5h-83v77h41c28.667 0 43 24 43 72v124c0 32.667 7.66699 59.667 23 81s33 35.333 53 42v2
c-19.333 8 -36.833 22.5 -52.5 43.5s-23.5 48.167 -23.5 81.5v121c0 48 -14.333 72 -43 72h-41v76h82c32 0 57.667 -10.5 77 -31.5s29 -48.5 29 -82.5v-133c0 -30 6.66699 -55.667 20 -77s32.333 -32.333 57 -33v-77z" />
    <glyph glyph-name="asciitilde" unicode="~" horiz-adv-x="525" 
d="M494 308c-38 -71.333 -84.333 -106.999 -139 -106.999c-20 0 -50 9.83301 -90 29.5s-67.667 29.5 -83 29.5c-16 0 -29.833 -3.83301 -41.5 -11.5s-25.167 -21.5 -40.5 -41.5l-66 43c38 70 86 105 144 105c22 -0.666992 52.167 -10.834 90.5 -30.501
s64.833 -29.5 79.5 -29.5c14 0 26.833 4.66699 38.5 14s25.167 24 40.5 44z" />
    <glyph glyph-name="exclamdown" unicode="&#xa1;" horiz-adv-x="268" 
d="M80 -203l8 511h97l7 -511h-112zM76 493h119v-114h-119v114z" />
    <glyph glyph-name="cent" unicode="&#xa2;" horiz-adv-x="525" 
d="M257 -117v112.999c-57.333 6.66699 -104.333 30.834 -141 72.501s-55 101.167 -55 178.5c0 76 18.333 135 55 177s83.667 66.667 141 74v103h45v-101c61.333 -2.66699 114.333 -26 159 -70l-73 -79c-27.333 27.333 -56 42.666 -86 45.999v-299
c29.333 2.66699 58.333 18.334 87 47.001l74 -78c-47.333 -45.333 -101 -69.333 -161 -72v-112h-45zM177 246.999c0 -83.333 26.667 -131.667 80 -145v290c-53.333 -14.667 -80 -63 -80 -145z" />
    <glyph glyph-name="sterling" unicode="&#xa3;" horiz-adv-x="525" 
d="M489 592l-96 -66.001c-31.333 46 -71 69 -119 69c-20.667 0 -39.334 -7.66699 -56.001 -23s-25 -36.666 -25 -63.999c0 -16.667 6 -40.667 18 -72s19.333 -54.333 22 -69h150v-87h-146c-3.33301 -71.333 -20 -131 -50 -179h295v-101h-443v86
c47.333 62.667 73.333 127.334 78 194.001h-80v87h67c-3.33301 10.667 -8.83301 26 -16.5 46s-13.5 37.667 -17.5 53s-6 30 -6 44c0 52 17.833 96.667 53.5 134s86.834 56 153.501 56c50.667 0 91.667 -6.83301 123 -20.5s63 -42.834 95 -87.501z" />
    <glyph glyph-name="currency" unicode="&#xa4;" horiz-adv-x="556" 
d="M155 320c0 -32.667 11.8311 -60.833 35.498 -84.5s51.834 -35.5 84.501 -35.5c33.333 0 61.833 11.667 85.5 35s35.5 51.666 35.5 84.999c0 34 -11.667 62.5 -35 85.5s-52 34.5 -86 34.5c-33.333 0 -61.666 -11.667 -84.999 -35s-35 -51.666 -35 -84.999z
M100.998 433.001l-67.9971 67c5.33301 6 25.666 26.667 60.999 62l68 -68c37.333 23.333 75.333 35 114 35c39.333 0 77.333 -11.333 114 -34c21.333 23.333 43.666 45.666 66.999 66.999l61 -62l-68 -67c23.333 -37.333 35 -75 35 -113s-11.333 -75.667 -34 -113
c20 -18 42.333 -40 67 -66l-61 -62l-67 67c-35.333 -23.333 -73.333 -35 -114 -35c-38.667 0 -76.667 11.667 -114 35l-68 -67l-16 16.5c-8.66699 9 -18.334 18.5 -29.001 28.5l-16 16l68 67c-22.667 36.667 -34 74.334 -34 113.001c0 37.333 11.333 75 34 113z" />
    <glyph glyph-name="yen" unicode="&#xa5;" horiz-adv-x="525" 
d="M264 386h4l58 146l72 164h123l-161 -333h110v-68h-145l-5 -17v-52h150v-68h-150v-158h-114v158h-148v68h148v52c-0.666992 2.66699 -1.5 5.66699 -2.5 9s-1.83301 6 -2.5 8h-143v68h108l-163 333h129l81 -186c7.33301 -16 17 -39.167 29 -69.5s19.333 -48.5 22 -54.5z
" />
    <glyph glyph-name="brokenbar" unicode="&#xa6;" horiz-adv-x="232" 
d="M163 294h-95v429h95v-429zM68 232h95v-427h-95v427z" />
    <glyph glyph-name="section" unicode="&#xa7;" horiz-adv-x="488" 
d="M454 292c0 -21.333 -5.16895 -42.1689 -15.502 -62.502s-22.833 -35.833 -37.5 -46.5c29.333 -28 44 -59.333 44 -94c0 -51.333 -19.333 -92.333 -58 -123s-88 -46 -148 -46c-80 0 -146.667 26.667 -200 80l63 73c40 -40 86 -60 138 -60c66 0 99 23.667 99 71
c0 18 -8.33301 33 -25 45s-45 24 -85 36c-60.667 18.667 -105.167 39.834 -133.5 63.501s-42.5 58.834 -42.5 105.501c0 20 5.83301 39.833 17.5 59.5s25.834 35.167 42.501 46.5c-32 28.667 -48 61.667 -48 99c0 48 18 86.833 54 116.5s81 44.5 135 44.5
c76.667 0 139.667 -19.667 189 -59l-57 -78c-41.333 28.667 -87 43 -137 43c-22 0 -41 -5.83301 -57 -17.5s-24 -26.167 -24 -43.5c0 -10 2.83301 -19 8.5 -27s14.334 -15 26.001 -21s22.167 -10.667 31.5 -14s22.5 -7.66602 39.5 -12.999l34.5 -11
c21.333 -6.66699 39.5 -13.834 54.5 -21.501s30 -17.834 45 -30.501s26.5 -28.667 34.5 -48s12 -41.666 12 -66.999zM184.998 390.997c-20.667 -12 -31 -29 -31 -51c0 -23.333 17.667 -42.333 53 -57c12.667 -6 33.5 -13.5 62.5 -22.5s49.833 -16.5 62.5 -22.5
c15.333 11.333 23 28 23 50c0 19.333 -8.5 34.833 -25.5 46.5s-47.167 24.167 -90.5 37.5c-14 4 -32 10.333 -54 19z" />
    <glyph glyph-name="dieresis" unicode="&#xa8;" horiz-adv-x="504" 
d="M410 583h-118v109h118v-109zM211 583h-119v109h119v-109z" />
    <glyph glyph-name="copyright" unicode="&#xa9;" horiz-adv-x="812" 
d="M408 -12c-101.333 0 -185.333 33.167 -252 99.5s-100 151.166 -100 254.499c0 101.333 33.667 185.833 101 253.5s151 101.5 251 101.5s183.667 -33.5 251 -100.5s101 -151.833 101 -254.5c0 -101.333 -33.667 -185.666 -101 -252.999s-151 -101 -251 -101zM408 627
c-78.667 0 -144.334 -27.1689 -197.001 -81.502s-79 -122.166 -79 -203.499c0 -80.667 26.333 -148.167 79 -202.5s118.334 -81.5 197.001 -81.5s144.167 27 196.5 81s78.5 121.667 78.5 203c0 82.667 -26.167 150.834 -78.5 204.501s-117.833 80.5 -196.5 80.5z
M488 249.998l76.999 -32.001c-11.333 -33.333 -30.5 -59.166 -57.5 -77.499s-59.5 -27.5 -97.5 -27.5c-52.667 0 -93 15.5 -121 46.5s-42 71.167 -42 120.5v109c0 46.667 14.167 86.167 42.5 118.5s68.5 48.5 120.5 48.5c38 0 70.333 -9.5 97 -28.5s45.667 -44.5 57 -76.5
l-76 -30c-6 17.333 -15.667 31.333 -29 42s-29.666 16 -48.999 16c-26.667 0 -47 -8.33301 -61 -25s-21 -37 -21 -61v-115c0 -24 7.16699 -44.833 21.5 -62.5s34.5 -26.5 60.5 -26.5c19.333 0 35.833 5.5 49.5 16.5s23.167 25.833 28.5 44.5z" />
    <glyph glyph-name="ordfeminine" unicode="&#xaa;" horiz-adv-x="348" 
d="M170 610c98 0 146.999 -37.002 146.999 -111.002v-220h-87v38c-20 -28 -49.667 -42 -89 -42c-37.333 0 -66.166 8.83301 -86.499 26.5s-30.5 42.834 -30.5 75.501c0 28 10.5 51.167 31.5 69.5s50.5 27.5 88.5 27.5h86v22c0 26.667 -20.333 40 -61 40
c-35.333 0 -62 -9.66699 -80 -29c-32.667 34.667 -49.334 52.334 -50.001 53.001c30.667 33.333 74.334 50 131.001 50zM107.999 381.998c0 -22.667 18 -34 54 -34c44.667 0 67 15 67 45c0 0.666992 0.166992 2.66699 0.5 6s0.5 8.33301 0.5 15h-73
c-32.667 0 -49 -10.667 -49 -32z" />
    <glyph glyph-name="guillemotleft" unicode="&#xab;" horiz-adv-x="525" 
d="M491 28h-109l-137 200l137 200h109l-133 -200zM291 28h-109l-137 200l137 200h109l-134 -200z" />
    <glyph glyph-name="logicalnot" unicode="&#xac;" horiz-adv-x="525" 
d="M500 341v-279h-94v189h-382v90h476z" />
    <glyph glyph-name="sfthyphen" unicode="&#xad;" horiz-adv-x="416" 
d="M367 211h-318v103h318v-103z" />
    <glyph glyph-name="registered" unicode="&#xae;" horiz-adv-x="543" 
d="M320 367l-46.999 97h-35v-97h-47v243h99c21.333 0 39.166 -6.5 53.499 -19.5s21.5 -30.167 21.5 -51.5c0 -30 -14.667 -52.333 -44 -67l52 -105h-53zM287.001 567h-49v-59h47c10 0 18.167 2.83301 24.5 8.5s9.5 13.167 9.5 22.5c0 18.667 -10.667 28 -32 28zM272.001 277
c-61.333 0 -112.5 20 -153.5 60s-61.5 90.333 -61.5 151s21 111.334 63 152.001s92.667 61 152 61c61.333 0 112.5 -20.333 153.5 -61s61.5 -91.334 61.5 -152.001c0 -60 -21 -110.167 -63 -150.5s-92.667 -60.5 -152 -60.5zM272.001 657c-47.333 0 -87 -16.167 -119 -48.5
s-48 -72.5 -48 -120.5c0 -47.333 16 -87.166 48 -119.499s71.667 -48.5 119 -48.5s86.833 16.167 118.5 48.5s47.5 72.166 47.5 119.499c0 48 -15.833 88.167 -47.5 120.5s-71.167 48.5 -118.5 48.5z" />
    <glyph glyph-name="macron" unicode="&#xaf;" horiz-adv-x="504" 
d="M410 589h-301v97h301v-97z" />
    <glyph glyph-name="degree" unicode="&#xb0;" horiz-adv-x="409" 
d="M353 558c0 -40 -14.5 -74 -43.5 -102s-64.167 -42 -105.5 -42s-76.5 14 -105.5 42s-43.5 62 -43.5 102c0 39.333 14.5 73 43.5 101s64.167 42 105.5 42s76.5 -14 105.5 -42s43.5 -61.667 43.5 -101zM277 558c0 19.333 -7 35.833 -21 49.5s-31.333 20.5 -52 20.5
c-19.333 0 -36.166 -6.83301 -50.499 -20.5s-21.5 -30.167 -21.5 -49.5s7.16699 -36 21.5 -50s31.166 -21 50.499 -21c20.667 0 38 7 52 21s21 30.667 21 50z" />
    <glyph glyph-name="plusminus" unicode="&#xb1;" horiz-adv-x="525" 
d="M501 306h-189v-174h-95v174h-189v90h189v178h95v-178h189v-90zM503 0h-477v89h477v-89z" />
    <glyph glyph-name="twosuperior" unicode="&#xb2;" horiz-adv-x="327" 
d="M111 653l-88 12.001c4.66699 37.333 20.834 67.333 48.501 90s59.5 34 95.5 34c40.667 0 74 -10.167 100 -30.5s39 -48.833 39 -85.5c0 -32 -11.667 -60.333 -35 -85l-61 -67l-67 -74h159v-78h-280v70l176 193c11.333 12.667 17 25 17 37
c0 11.333 -4.33301 21.166 -13 29.499s-20.334 12.5 -35.001 12.5c-14 0 -26.167 -5 -36.5 -15s-16.833 -24.333 -19.5 -43z" />
    <glyph glyph-name="threesuperior" unicode="&#xb3;" horiz-adv-x="331" 
d="M20 476l85.998 12.001c6 -30.667 24.667 -46 56 -46c16.667 0 30.334 5.33301 41.001 16s16 24 16 40s-5.33301 28.833 -16 38.5s-25.334 14.5 -44.001 14.5h-37v69h35c18 0 32.167 4.33301 42.5 13s15.5 19.667 15.5 33s-5 24.333 -15 33s-22.333 13 -37 13
c-11.333 0 -22.166 -4.16699 -32.499 -12.5s-17.5 -20.166 -21.5 -35.499l-85 12c7.33301 34 24.333 61.333 51 82s56.667 31 90 31c46.667 0 81.834 -11.333 105.501 -34s35.5 -51.334 35.5 -86.001c0 -38 -16.333 -65.667 -49 -83c36 -18 54 -47.333 54 -88
c0 -38.667 -13.833 -70.334 -41.5 -95.001s-63.5 -37 -107.5 -37c-34 0 -64.333 9 -91 27s-43.667 45.667 -51 83z" />
    <glyph glyph-name="acute" unicode="&#xb4;" horiz-adv-x="504" 
d="M256 544l-68 25l79 190l107 -34z" />
    <glyph glyph-name="mu" unicode="&#xb5;" horiz-adv-x="537" 
d="M476 0l-113 -0.000976562v45c-0.666992 0.666992 -1.66699 1 -3 1c-30 -34 -69.667 -51 -119 -51c-22.667 0 -43.667 5.33301 -63 16l-1 -1v-210h-113v695h113v-295c0 -30 7.83301 -54 23.5 -72s38.834 -27 69.501 -27c27.333 0 49.666 8.83301 66.999 26.5
s26 41.834 26 72.501v295h113v-495z" />
    <glyph glyph-name="mu" unicode="&#x3bc;" horiz-adv-x="537" 
d="M476 0l-113 -0.000976562v45c-0.666992 0.666992 -1.66699 1 -3 1c-30 -34 -69.667 -51 -119 -51c-22.667 0 -43.667 5.33301 -63 16l-1 -1v-210h-113v695h113v-295c0 -30 7.83301 -54 23.5 -72s38.834 -27 69.501 -27c27.333 0 49.666 8.83301 66.999 26.5
s26 41.834 26 72.501v295h113v-495z" />
    <glyph glyph-name="paragraph" unicode="&#xb6;" horiz-adv-x="563" 
d="M224 -80l0.000976562 397h-32c-48.667 0 -87 18.667 -115 56s-42 81.333 -42 132c0 53.333 16 99.833 48 139.5s76.667 59.5 134 59.5c18 0 68.167 0.166992 150.5 0.5s133.166 0.5 152.499 0.5v-76h-43v-709h-87v709h-77v-709h-89z" />
    <glyph glyph-name="periodcentered" unicode="&#xb7;" horiz-adv-x="271" 
d="M203 205h-136v138h136v-138z" />
    <glyph glyph-name="cedilla" unicode="&#xb8;" horiz-adv-x="447" 
d="M214 44c6.66699 0 16.5 -0.166992 29.5 -0.5s22.833 -0.5 29.5 -0.5c-14 -41.333 -22.667 -68 -26 -80c33.333 -2.66699 58 -12.5 74 -29.5s24 -36.167 24 -57.5c0 -23.333 -10 -44 -30 -62s-48 -27 -84 -27c-37.333 0 -70.666 8 -99.999 24l21 52
c23.333 -10.667 47.333 -16 72 -16c29.333 0 44 11 44 33c0 21.333 -14.333 32 -43 32c-4.66699 0 -10.334 -0.666992 -17.001 -2l-30 20z" />
    <glyph glyph-name="onesuperior" unicode="&#xb9;" horiz-adv-x="278" 
d="M199 369h-89v323l-61 -40v88l72 46h78v-417z" />
    <glyph glyph-name="ordmasculine" unicode="&#xba;" horiz-adv-x="356" 
d="M183 610c55.333 0 95.665 -18.667 120.998 -56c17.333 -24 26 -59.667 26 -107c0 -46 -8.33301 -82.333 -25 -109c-27.333 -42.667 -70.666 -64 -129.999 -64c-55.333 0 -95.666 17.667 -120.999 53c-18.667 27.333 -28 66 -28 116c1.33301 40 7.33301 70.333 18 91
c12 24 30.167 42.667 54.5 56s52.5 20 84.5 20zM179.999 534c-25.333 0 -43.332 -11 -53.999 -33c-7.33301 -14 -11 -33.667 -11 -59c0 -26 3.33301 -45.333 10 -58c9.33301 -22 26.666 -33 51.999 -33c27.333 0 46.333 14 57 42c4 12 6 30 6 54
c0 25.333 -2.66699 43.333 -8 54c-8.66699 22 -26 33 -52 33z" />
    <glyph glyph-name="guillemotright" unicode="&#xbb;" horiz-adv-x="525" 
d="M155 28h-109l132 200l-132 200h109l136 -200zM355 28h-109l133 200l-133 200h109l136 -200z" />
    <glyph glyph-name="onequarter" unicode="&#xbc;" horiz-adv-x="860" 
d="M243 279h-89v323l-61 -40v88l72 46h78v-417zM661 713l-426 -730h-89l425 730h90zM767 59h-36v-59h-88v59h-190v65l155 293h98l-151 -282h88v95h88v-95h36v-76z" />
    <glyph glyph-name="onehalf" unicode="&#xbd;" horiz-adv-x="860" 
d="M779 0l-280 0.00195312v70l176 193v-1c11.333 13.333 17 26 17 38c0 11.333 -4.5 21.166 -13.5 29.499s-21.167 12.5 -36.5 12.5c-14 0 -26 -5 -36 -15s-16.333 -24.333 -19 -43l-87 12c4.66699 37.333 20.5 67.166 47.5 89.499s58.5 33.5 94.5 33.5
c41.333 0 75 -10 101 -30s39 -48.333 39 -85c0 -32 -11.333 -60.333 -34 -85l-129 -141h160v-78zM643 713.002l-426 -730h-89l425 730h90zM228 279.002h-89v323l-61 -40v88l72 46h78v-417z" />
    <glyph glyph-name="threequarters" unicode="&#xbe;" horiz-adv-x="860" 
d="M45 386l85.998 12.001c6 -30.667 24.667 -46 56 -46c16.667 0 30.334 5.33301 41.001 16s16 24 16 40s-5.33301 28.833 -16 38.5s-25.334 14.5 -44.001 14.5h-37v69h35c18 0 32.167 4.33301 42.5 13s15.5 19.667 15.5 33s-5 24.333 -15 33s-22.333 13 -37 13
c-11.333 0 -22.166 -4.16699 -32.499 -12.5s-17.5 -20.166 -21.5 -35.499l-85 12c7.33301 34 24.333 61.333 51 82s56.667 31 90 31c46.667 0 81.834 -11.333 105.501 -34s35.5 -51.334 35.5 -86.001c0 -38 -16.333 -65.667 -49 -83c36 -18 54 -47.333 54 -88
c0 -38.667 -13.833 -70.334 -41.5 -95.001s-63.5 -37 -107.5 -37c-34 0 -64.333 9 -91 27s-43.667 45.667 -51 83zM708.998 713.001l-426 -730h-89l425 730h90zM813.998 59.001h-36v-59h-88v59h-190v65l155 293h98l-151 -282h88v95h88v-95h36v-76z" />
    <glyph glyph-name="questiondown" unicode="&#xbf;" horiz-adv-x="472" 
d="M27 -17c0 23.333 5.33691 46.166 16.0039 68.499s20.167 38.5 28.5 48.5s23.166 26.333 44.499 49c13.333 14 23.833 26 31.5 36s14.834 22.333 21.501 37s10 29.667 10 45v36h117v-39c0 -32 -7.33301 -61.333 -22 -88s-36.334 -57 -65.001 -91
c-37.333 -41.333 -56 -74.333 -56 -99c0 -21.333 7.83301 -40.666 23.5 -57.999s38.167 -26 67.5 -26s52.833 10.667 70.5 32s27.5 46.333 29.5 75c13.333 -2 32.666 -4.66699 57.999 -8s44.666 -6 57.999 -8c-10.667 -64 -37 -113.5 -79 -148.5s-91 -52.5 -147 -52.5
c-62.667 0 -112.834 18 -150.501 54s-56.5 81.667 -56.5 137zM179.004 492h118v-113h-118v113z" />
    <glyph glyph-name="Agrave" unicode="&#xc0;" horiz-adv-x="629" 
d="M626 0h-128l-55 154h-258l-56 -154h-127l263 696h98zM407 257l-46 141l-46 143h-3l-45 -140l-47 -144h187zM366 791l-47 -56l-192 97l74 84z" />
    <glyph glyph-name="Aacute" unicode="&#xc1;" horiz-adv-x="629" 
d="M626 0h-128l-55 154h-258l-56 -154h-127l263 696h98zM407 257l-46 141l-46 143h-3l-45 -140l-47 -144h187zM282 735l-47 56l165 125l74 -84z" />
    <glyph glyph-name="Acircumflex" unicode="&#xc2;" horiz-adv-x="629" 
d="M626 0h-128l-55 154h-258l-56 -154h-127l263 696h98zM407 257l-46 141l-46 143h-3l-45 -140l-47 -144h187zM460 733l-147 82l-147 -82l-38 48l149 124h76l147 -123z" />
    <glyph glyph-name="Atilde" unicode="&#xc3;" horiz-adv-x="629" 
d="M626 0h-128l-55 154h-258l-56 -154h-127l263 696h98zM407 257l-46 141l-46 143h-3l-45 -140l-47 -144h187zM243 875c18 0 42.332 -8 72.999 -24s50.667 -24 60 -24c20.667 0 42 15.667 64 47l60 -35c-30.667 -66 -68.667 -99 -114 -99c-18 0 -42.667 7.66699 -74 23
s-52.666 23 -63.999 23c-22 0 -45 -15 -69 -45l-57 33c32.667 67.333 73 101 121 101z" />
    <glyph glyph-name="Adieresis" unicode="&#xc4;" horiz-adv-x="629" 
d="M626 0h-128l-55 154h-258l-56 -154h-127l263 696h98zM407 257l-46 141l-46 143h-3l-45 -140l-47 -144h187zM472 757h-120v111h120v-111zM275 757h-121v111h121v-111z" />
    <glyph glyph-name="Aring" unicode="&#xc5;" horiz-adv-x="629" 
d="M626 0h-128l-55 154h-258l-56 -154h-127l263 696h98zM407 257l-46 141l-46 143h-3l-45 -140l-47 -144h187zM361 821c0 12.667 -4.5 23.5 -13.5 32.5s-20.167 13.5 -33.5 13.5s-24.666 -4.5 -33.999 -13.5s-14 -19.833 -14 -32.5s4.66699 -23.5 14 -32.5
s20.666 -13.5 33.999 -13.5c12.667 0 23.667 4.5 33 13.5s14 19.833 14 32.5zM202 821c0 30 10.833 55.5 32.5 76.5s48.167 31.5 79.5 31.5c30.667 0 56.834 -10.5 78.501 -31.5s32.5 -46.5 32.5 -76.5c0 -29.333 -10.833 -54.5 -32.5 -75.5s-47.834 -31.5 -78.501 -31.5
s-57 10.5 -79 31.5s-33 46.167 -33 75.5z" />
    <glyph glyph-name="AE" unicode="&#xc6;" horiz-adv-x="1034" 
d="M983 0h-466v176h-247l-107 -176h-137l433 696h524v-110h-345v-183h294v-105h-294v-189h345v-109zM515 585l-92.5 -152l-91.5 -152h186v304h-2z" />
    <glyph glyph-name="Ccedilla" unicode="&#xc7;" horiz-adv-x="572" 
d="M436 204l114.997 -48.002c-17.333 -49.333 -46.166 -88.166 -86.499 -116.499s-89.166 -43.5 -146.499 -45.5l-9 -31c33.333 -2.66699 58 -12.5 74 -29.5s24 -36.167 24 -57.5c0 -23.333 -10 -44 -30 -62s-48 -27 -84 -27c-37.333 0 -70.666 8 -99.999 24l21 52
c23.333 -10.667 47.333 -16 72 -16c29.333 0 44 11 44 33c0 21.333 -14.333 32 -43 32c-4.66699 0 -10.334 -0.666992 -17.001 -2l-30 20l21 67c-69.333 9.33301 -122.166 37.833 -158.499 85.5s-54.5 106.5 -54.5 176.5v178c0 74.667 22.5 137.334 67.5 188.001
s108.833 76 191.5 76c59.333 0 110.166 -14.5 152.499 -43.5s72.5 -68.5 90.5 -118.5l-114 -45c-8.66699 28 -24.167 50.333 -46.5 67s-49.833 25 -82.5 25c-44 0 -77.833 -14.167 -101.5 -42.5s-35.5 -62.166 -35.5 -101.499v-185c0 -41.333 11.833 -76.5 35.5 -105.5
s57.5 -43.5 101.5 -43.5c32 0 59.333 8.66699 82 26s38.334 40.666 47.001 69.999z" />
    <glyph glyph-name="Egrave" unicode="&#xc8;" horiz-adv-x="564" 
d="M539 0h-466v696h466v-110h-345v-182h294v-106h-294v-188h345v-110zM357 791l-47 -56l-192 97l74 84z" />
    <glyph glyph-name="Eacute" unicode="&#xc9;" horiz-adv-x="564" 
d="M539 0h-466v696h466v-110h-345v-182h294v-106h-294v-188h345v-110zM262 735l-47 56l165 125l74 -84z" />
    <glyph glyph-name="Ecircumflex" unicode="&#xca;" horiz-adv-x="564" 
d="M539 0h-466v696h466v-110h-345v-182h294v-106h-294v-188h345v-110zM446 733l-147 82l-147 -82l-38 48l149 124h76l147 -123z" />
    <glyph glyph-name="Edieresis" unicode="&#xcb;" horiz-adv-x="564" 
d="M539 0h-466v696h466v-110h-345v-182h294v-106h-294v-188h345v-110zM460 753h-118v109h118v-109zM261 753h-119v109h119v-109z" />
    <glyph glyph-name="Igrave" unicode="&#xcc;" horiz-adv-x="268" 
d="M196 0h-122v696h122v-696zM173 791l-47 -56l-192 97l74 84z" />
    <glyph glyph-name="Iacute" unicode="&#xcd;" horiz-adv-x="268" 
d="M196 0h-122v696h122v-696zM120 735l-47 56l165 125l74 -84z" />
    <glyph glyph-name="Icircumflex" unicode="&#xce;" horiz-adv-x="268" 
d="M196 0h-122v696h122v-696zM283 733l-147 82l-147 -82l-38 48l149 124h76l147 -123z" />
    <glyph glyph-name="Idieresis" unicode="&#xcf;" horiz-adv-x="268" 
d="M196 0h-122v696h122v-696zM293 753h-118v109h118v-109zM94 753h-119v109h119v-109z" />
    <glyph glyph-name="Eth" unicode="&#xd0;" horiz-adv-x="638" 
d="M6 306v85h67v305h253c116.667 0 195.667 -43 237 -129c18 -36.667 27 -105.667 27 -207c0 -108.667 -8.33301 -182.667 -25 -222c-40 -92 -125.333 -138 -256 -138h-236v306h-67zM194 586v-195h97v-85h-97v-196h119c56 0 96 14.833 120 44.5s36 72.5 36 128.5v130
c0 60.667 -13.167 104.667 -39.5 132s-65.833 41 -118.5 41h-117z" />
    <glyph glyph-name="Ntilde" unicode="&#xd1;" horiz-adv-x="692" 
d="M621 0h-112l-215 324l-97 159l-3 -1v-482h-121v696h112l195 -296l118 -188l2 2v482h121v-696zM274 876c18 0 42.332 -8 72.999 -24s50.667 -24 60 -24c20.667 0 42 15.667 64 47l60 -35c-30.667 -66 -68.667 -99 -114 -99c-18 0 -42.667 7.66699 -74 23
s-52.666 23 -63.999 23c-22 0 -45 -15 -69 -45l-57 33c32.667 67.333 73 101 121 101z" />
    <glyph glyph-name="Ograve" unicode="&#xd2;" horiz-adv-x="610" 
d="M304 701c78.667 0 141.667 -24.6689 189 -74.002s71 -112.666 71 -189.999v-178c0 -80.667 -23.5 -145 -70.5 -193s-110.167 -72 -189.5 -72c-82.667 0 -146.5 25.333 -191.5 76s-67.5 113.667 -67.5 189v178c0 74.667 22.5 137.334 67.5 188.001s108.833 76 191.5 76z
M304 586.998c-44 0 -77.833 -14.1689 -101.5 -42.502s-35.5 -62.166 -35.5 -101.499v-187c0 -41.333 11.833 -76.5 35.5 -105.5s57.5 -43.5 101.5 -43.5c41.333 0 74.5 14 99.5 42s37.5 63.667 37.5 107v187c0 40.667 -12.333 74.834 -37 102.501s-58 41.5 -100 41.5z
M380 790.996l-47 -56l-192 97l74 84z" />
    <glyph glyph-name="Oacute" unicode="&#xd3;" horiz-adv-x="610" 
d="M304 701c78.667 0 141.667 -24.6689 189 -74.002s71 -112.666 71 -189.999v-178c0 -80.667 -23.5 -145 -70.5 -193s-110.167 -72 -189.5 -72c-82.667 0 -146.5 25.333 -191.5 76s-67.5 113.667 -67.5 189v178c0 74.667 22.5 137.334 67.5 188.001s108.833 76 191.5 76z
M304 586.998c-44 0 -77.833 -14.1689 -101.5 -42.502s-35.5 -62.166 -35.5 -101.499v-187c0 -41.333 11.833 -76.5 35.5 -105.5s57.5 -43.5 101.5 -43.5c41.333 0 74.5 14 99.5 42s37.5 63.667 37.5 107v187c0 40.667 -12.333 74.834 -37 102.501s-58 41.5 -100 41.5z
M290 734.996l-47 56l165 125l74 -84z" />
    <glyph glyph-name="Ocircumflex" unicode="&#xd4;" horiz-adv-x="610" 
d="M304 701c78.667 0 141.667 -24.6689 189 -74.002s71 -112.666 71 -189.999v-178c0 -80.667 -23.5 -145 -70.5 -193s-110.167 -72 -189.5 -72c-82.667 0 -146.5 25.333 -191.5 76s-67.5 113.667 -67.5 189v178c0 74.667 22.5 137.334 67.5 188.001s108.833 76 191.5 76z
M304 586.998c-44 0 -77.833 -14.1689 -101.5 -42.502s-35.5 -62.166 -35.5 -101.499v-187c0 -41.333 11.833 -76.5 35.5 -105.5s57.5 -43.5 101.5 -43.5c41.333 0 74.5 14 99.5 42s37.5 63.667 37.5 107v187c0 40.667 -12.333 74.834 -37 102.501s-58 41.5 -100 41.5z
M451 732.996l-147 82l-147 -82l-38 48l149 124h76l147 -123z" />
    <glyph glyph-name="Otilde" unicode="&#xd5;" horiz-adv-x="610" 
d="M304 701c78.667 0 141.667 -24.6689 189 -74.002s71 -112.666 71 -189.999v-178c0 -80.667 -23.5 -145 -70.5 -193s-110.167 -72 -189.5 -72c-82.667 0 -146.5 25.333 -191.5 76s-67.5 113.667 -67.5 189v178c0 74.667 22.5 137.334 67.5 188.001s108.833 76 191.5 76z
M304 586.998c-44 0 -77.833 -14.1689 -101.5 -42.502s-35.5 -62.166 -35.5 -101.499v-187c0 -41.333 11.833 -76.5 35.5 -105.5s57.5 -43.5 101.5 -43.5c41.333 0 74.5 14 99.5 42s37.5 63.667 37.5 107v187c0 40.667 -12.333 74.834 -37 102.501s-58 41.5 -100 41.5z
M239 874.996c18 0 42.332 -8 72.999 -24s50.667 -24 60 -24c20.667 0 42 15.667 64 47l60 -35c-30.667 -66 -68.667 -99 -114 -99c-18 0 -42.667 7.66699 -74 23s-52.666 23 -63.999 23c-22 0 -45 -15 -69 -45l-57 33c32.667 67.333 73 101 121 101z" />
    <glyph glyph-name="Odieresis" unicode="&#xd6;" horiz-adv-x="610" 
d="M304 701c78.667 0 141.667 -24.6689 189 -74.002s71 -112.666 71 -189.999v-178c0 -80.667 -23.5 -145 -70.5 -193s-110.167 -72 -189.5 -72c-82.667 0 -146.5 25.333 -191.5 76s-67.5 113.667 -67.5 189v178c0 74.667 22.5 137.334 67.5 188.001s108.833 76 191.5 76z
M304 586.998c-44 0 -77.833 -14.1689 -101.5 -42.502s-35.5 -62.166 -35.5 -101.499v-187c0 -41.333 11.833 -76.5 35.5 -105.5s57.5 -43.5 101.5 -43.5c41.333 0 74.5 14 99.5 42s37.5 63.667 37.5 107v187c0 40.667 -12.333 74.834 -37 102.501s-58 41.5 -100 41.5z
M463 756.996h-120v111h120v-111zM266 756.996h-121v111h121v-111z" />
    <glyph glyph-name="multiply" unicode="&#xd7;" horiz-adv-x="525" 
d="M433 56l-165 165l-161 -161l-67 66l161 161l-164 165l64 63l164 -164l159 160l67 -67l-160 -159l165 -165z" />
    <glyph glyph-name="Oslash" unicode="&#xd8;" horiz-adv-x="610" 
d="M304 701c66.667 0 122.999 -18.668 168.999 -56.001l41 57l47 -34l-47 -66c33.333 -46.667 50 -101.667 50 -165v-178c0 -80.667 -23.5 -145 -70.5 -193s-110.167 -72 -189.5 -72c-73.333 0 -132.666 20.667 -177.999 62l-42 -60l-45 33l50 71c-29.333 44 -44 97 -44 159
v178c0 74.667 22.5 137.334 67.5 188.001s108.833 76 191.5 76zM440.999 442.999c0 17.333 -2.33301 33 -7 47l-236 -334c24.667 -32.667 60 -49 106 -49c41.333 0 74.5 14 99.5 42s37.5 63.667 37.5 107v187zM303.999 586.999c-44 0 -77.833 -14.1689 -101.5 -42.502
s-35.5 -62.166 -35.5 -101.499v-187c0 -15.333 1.33301 -28.666 4 -39.999l232 330c-25.333 27.333 -58.333 41 -99 41z" />
    <glyph glyph-name="Ugrave" unicode="&#xd9;" horiz-adv-x="638" 
d="M579 247c0 -75.333 -24.333 -136.167 -73 -182.5s-111 -69.5 -187 -69.5c-78 0 -140.667 24.167 -188 72.5s-71 109.833 -71 184.5v444h120v-435c0 -44 12.667 -80.5 38 -109.5s59.333 -43.5 102 -43.5c42 0 75.333 12.833 100 38.5s37 62.167 37 109.5v440h122v-449z
M375 790.999l-47 -56l-192 97l74 84z" />
    <glyph glyph-name="Uacute" unicode="&#xda;" horiz-adv-x="638" 
d="M579 247c0 -75.333 -24.333 -136.167 -73 -182.5s-111 -69.5 -187 -69.5c-78 0 -140.667 24.167 -188 72.5s-71 109.833 -71 184.5v444h120v-435c0 -44 12.667 -80.5 38 -109.5s59.333 -43.5 102 -43.5c42 0 75.333 12.833 100 38.5s37 62.167 37 109.5v440h122v-449z
M291 734.999l-47 56l165 125l74 -84z" />
    <glyph glyph-name="Ucircumflex" unicode="&#xdb;" horiz-adv-x="638" 
d="M579 247c0 -75.333 -24.333 -136.167 -73 -182.5s-111 -69.5 -187 -69.5c-78 0 -140.667 24.167 -188 72.5s-71 109.833 -71 184.5v444h120v-435c0 -44 12.667 -80.5 38 -109.5s59.333 -43.5 102 -43.5c42 0 75.333 12.833 100 38.5s37 62.167 37 109.5v440h122v-449z
M465 732.999l-147 82l-147 -82l-38 48l149 124h76l147 -123z" />
    <glyph glyph-name="Udieresis" unicode="&#xdc;" horiz-adv-x="638" 
d="M579 247c0 -75.333 -24.333 -136.167 -73 -182.5s-111 -69.5 -187 -69.5c-78 0 -140.667 24.167 -188 72.5s-71 109.833 -71 184.5v444h120v-435c0 -44 12.667 -80.5 38 -109.5s59.333 -43.5 102 -43.5c42 0 75.333 12.833 100 38.5s37 62.167 37 109.5v440h122v-449z
M480 756.999h-120v111h120v-111zM283 756.999h-121v111h121v-111z" />
    <glyph glyph-name="Yacute" unicode="&#xdd;" horiz-adv-x="557" 
d="M553 696l-217 -410v-286h-115v286l-113 213l-104 197h129l84 -172l61 -134h2l62 137l83 169h128zM258 735l-47 56l165 125l74 -84z" />
    <glyph glyph-name="Thorn" unicode="&#xde;" horiz-adv-x="591" 
d="M581 352c0 -57.333 -21.5 -106.833 -64.5 -148.5s-97.5 -62.5 -163.5 -62.5h-159v-141h-121l-1 695h122v-125h145c69.333 0 127 -19 173 -57s69 -91.667 69 -161zM458 355c0 34.667 -10.332 60.833 -30.999 78.5s-48.667 26.5 -84 26.5h-149v-209h153
c33.333 0 60.166 10.167 80.499 30.5s30.5 44.833 30.5 73.5z" />
    <glyph glyph-name="germandbls" unicode="&#xdf;" horiz-adv-x="542" 
d="M493 236c0 -29.333 -3.33398 -57 -10.001 -83s-17.667 -51 -33 -75s-37.5 -43.167 -66.5 -57.5s-63.5 -21.5 -103.5 -21.5h-34v94h29c30 0 54.167 13 72.5 39s27.5 59.667 27.5 101c0 32 -7 61.167 -21 87.5s-36.667 39.5 -68 39.5h-22v92h21
c24.667 0 42.5 9.33301 53.5 28s16.5 37.667 16.5 57c0 23.333 -7.5 44.833 -22.5 64.5s-36.5 29.5 -64.5 29.5c-32 0 -55.5 -10 -70.5 -30s-22.5 -43.667 -22.5 -71v-530h-113v527c0 62 18.833 110.833 56.5 146.5s87.5 53.5 149.5 53.5
c62.667 0 110.834 -17.833 144.501 -53.5s50.5 -77.167 50.5 -124.5c0 -25.333 -6.83301 -51.666 -20.5 -78.999s-31.834 -46.333 -54.501 -57v-1c36.667 -10.667 63.334 -32.834 80.001 -66.501s25 -70.167 25 -109.5z" />
    <glyph glyph-name="agrave" unicode="&#xe0;" horiz-adv-x="499" 
d="M245 500c136.667 0 205 -54.667 205 -164v-336h-113v44c-0.666992 0.666992 -1.33398 1 -2.00098 1c-24.667 -33.333 -67.667 -50 -129 -50c-53.333 0 -95.166 13 -125.499 39s-45.5 62.667 -45.5 110c0 42 14.833 77.333 44.5 106s70.834 43 123.501 43h134v36
c0 47.333 -32.667 71 -98 71c-50 0 -89.333 -13.667 -118 -41l-60 76c43.333 43.333 104.666 65 183.999 65zM142 152c0 -17.333 7.00098 -31.833 21.001 -43.5s36.333 -17.5 67 -17.5c65.333 0 100.666 23 105.999 69c0.666992 5.33301 1 21 1 47h-115
c-53.333 0 -80 -18.333 -80 -55zM314.001 573l-67 -29l-123 179l108 36z" />
    <glyph glyph-name="aacute" unicode="&#xe1;" horiz-adv-x="499" 
d="M245 500c136.667 0 205 -54.667 205 -164v-336h-113v44c-0.666992 0.666992 -1.33398 1 -2.00098 1c-24.667 -33.333 -67.667 -50 -129 -50c-53.333 0 -95.166 13 -125.499 39s-45.5 62.667 -45.5 110c0 42 14.833 77.333 44.5 106s70.834 43 123.501 43h134v36
c0 47.333 -32.667 71 -98 71c-50 0 -89.333 -13.667 -118 -41l-60 76c43.333 43.333 104.666 65 183.999 65zM142 152c0 -17.333 7.00098 -31.833 21.001 -43.5s36.333 -17.5 67 -17.5c65.333 0 100.666 23 105.999 69c0.666992 5.33301 1 21 1 47h-115
c-53.333 0 -80 -18.333 -80 -55zM281.001 544l-68 25l79 190l107 -34z" />
    <glyph glyph-name="acircumflex" unicode="&#xe2;" horiz-adv-x="499" 
d="M245 500c136.667 0 205 -54.667 205 -164v-336h-113v44c-0.666992 0.666992 -1.33398 1 -2.00098 1c-24.667 -33.333 -67.667 -50 -129 -50c-53.333 0 -95.166 13 -125.499 39s-45.5 62.667 -45.5 110c0 42 14.833 77.333 44.5 106s70.834 43 123.501 43h134v36
c0 47.333 -32.667 71 -98 71c-50 0 -89.333 -13.667 -118 -41l-60 76c43.333 43.333 104.666 65 183.999 65zM387 537l-138.999 105.001c-6.66699 -4.66699 -29.334 -21.834 -68.001 -51.501s-62.667 -47.5 -72 -53.5l-46 43l149 154h78l146 -153zM142.001 152.001
c0 -17.333 7.00098 -31.833 21.001 -43.5s36.333 -17.5 67 -17.5c65.333 0 100.666 23 105.999 69c0.666992 5.33301 1 21 1 47h-115c-53.333 0 -80 -18.333 -80 -55z" />
    <glyph glyph-name="atilde" unicode="&#xe3;" horiz-adv-x="499" 
d="M245 500c136.667 0 205 -54.667 205 -164v-336h-113v44c-0.666992 0.666992 -1.33398 1 -2.00098 1c-24.667 -33.333 -67.667 -50 -129 -50c-53.333 0 -95.166 13 -125.499 39s-45.5 62.667 -45.5 110c0 42 14.833 77.333 44.5 106s70.834 43 123.501 43h134v36
c0 47.333 -32.667 71 -98 71c-50 0 -89.333 -13.667 -118 -41l-60 76c43.333 43.333 104.666 65 183.999 65zM187 705c18 0 42.332 -8 72.999 -24s50.667 -24 60 -24c20.667 0 42 15.667 64 47l60 -35c-30.667 -66 -68.667 -99 -114 -99c-18 0 -42.667 7.66699 -74 23
s-52.666 23 -63.999 23c-22 0 -45 -15 -69 -45l-57 33c32.667 67.333 73 101 121 101zM141.999 152c0 -17.333 7.00098 -31.833 21.001 -43.5s36.333 -17.5 67 -17.5c65.333 0 100.666 23 105.999 69c0.666992 5.33301 1 21 1 47h-115c-53.333 0 -80 -18.333 -80 -55z" />
    <glyph glyph-name="adieresis" unicode="&#xe4;" horiz-adv-x="499" 
d="M245 500c136.667 0 205 -54.667 205 -164v-336h-113v44c-0.666992 0.666992 -1.33398 1 -2.00098 1c-24.667 -33.333 -67.667 -50 -129 -50c-53.333 0 -95.166 13 -125.499 39s-45.5 62.667 -45.5 110c0 42 14.833 77.333 44.5 106s70.834 43 123.501 43h134v36
c0 47.333 -32.667 71 -98 71c-50 0 -89.333 -13.667 -118 -41l-60 76c43.333 43.333 104.666 65 183.999 65zM142 152c0 -17.333 7.00098 -31.833 21.001 -43.5s36.333 -17.5 67 -17.5c65.333 0 100.666 23 105.999 69c0.666992 5.33301 1 21 1 47h-115
c-53.333 0 -80 -18.333 -80 -55zM212.001 583h-119v109h119v-109zM411.001 583h-118v109h118v-109z" />
    <glyph glyph-name="aring" unicode="&#xe5;" horiz-adv-x="499" 
d="M245 500c136.667 0 205 -54.667 205 -164v-336h-113v44c-0.666992 0.666992 -1.33398 1 -2.00098 1c-24.667 -33.333 -67.667 -50 -129 -50c-53.333 0 -95.166 13 -125.499 39s-45.5 62.667 -45.5 110c0 42 14.833 77.333 44.5 106s70.834 43 123.501 43h134v36
c0 47.333 -32.667 71 -98 71c-50 0 -89.333 -13.667 -118 -41l-60 76c43.333 43.333 104.666 65 183.999 65zM149 643c0 30 10.833 55.5 32.5 76.5s48.167 31.5 79.5 31.5c30.667 0 56.834 -10.5 78.501 -31.5s32.5 -46.5 32.5 -76.5c0 -29.333 -10.833 -54.5 -32.5 -75.5
s-47.834 -31.5 -78.501 -31.5s-57 10.5 -79 31.5s-33 46.167 -33 75.5zM142 152c0 -17.333 7.00098 -31.833 21.001 -43.5s36.333 -17.5 67 -17.5c65.333 0 100.666 23 105.999 69c0.666992 5.33301 1 21 1 47h-115c-53.333 0 -80 -18.333 -80 -55zM308.001 643
c0 12.667 -4.5 23.5 -13.5 32.5s-20.167 13.5 -33.5 13.5s-24.666 -4.5 -33.999 -13.5s-14 -19.833 -14 -32.5s4.66699 -23.5 14 -32.5s20.666 -13.5 33.999 -13.5c12.667 0 23.667 4.5 33 13.5s14 19.833 14 32.5z" />
    <glyph glyph-name="ae" unicode="&#xe6;" horiz-adv-x="816" 
d="M774 215h-315.002c0.666992 -25.333 6.33398 -48 17.001 -68c20 -33.333 52.333 -50 97 -50c38.667 0 74.334 15 107.001 45l70 -78c-48.667 -46 -108.667 -69 -180 -69c-78 0 -136.333 23.667 -175 71c-38.667 -47.333 -98.334 -71 -179.001 -71
c-53.333 0 -96 13 -128 39s-48 62.667 -48 110c0 42 14.833 77.333 44.5 106s70.834 43 123.501 43h134v36c0 49.333 -33.333 74 -100 74c-53.333 0 -93.333 -14.333 -120 -43l-58 73c39.333 44.667 99 67 179 67c84 0 141.667 -19 173 -57c35.333 38 82.333 57 141 57
c70 0 123.667 -23.333 161 -70s56 -107 56 -181v-34zM146.998 152c0 -17.333 7 -31.833 21 -43.5s36.333 -17.5 67 -17.5c71.333 0 107 31.333 107 94v23h-115c-27.333 0 -47.5 -5.16699 -60.5 -15.5s-19.5 -23.833 -19.5 -40.5zM656.998 295c-2 32.667 -12 58 -30 76
s-40.333 27 -67 27c-27.333 0 -50 -9 -68 -27s-28.333 -43.333 -31 -76h196z" />
    <glyph glyph-name="ccedilla" unicode="&#xe7;" horiz-adv-x="447" 
d="M430 67c-50 -48 -107.335 -72.333 -172.002 -73l-9 -31c33.333 -2.66699 58 -12.5 74 -29.5s24 -36.167 24 -57.5c0 -23.333 -10 -44 -30 -62s-48 -27 -84 -27c-37.333 0 -70.666 8 -99.999 24l21 52c23.333 -10.667 47.333 -16 72 -16c29.333 0 44 11 44 33
c0 21.333 -14.333 32 -43 32c-4.66699 0 -10.334 -0.666992 -17.001 -2l-30 20l22 69c-52 10 -94 35.833 -126 77.5s-48 98.5 -48 170.5c0 84 22.333 147.167 67 189.5s99.334 63.5 164.001 63.5c66 0 122.333 -23.333 169 -70l-73 -79
c-29.333 30.667 -60.666 46 -93.999 46c-78 0 -117 -50 -117 -150c0 -99.333 38.667 -149 116 -149c32.667 0 64.667 15.667 96 47z" />
    <glyph glyph-name="egrave" unicode="&#xe8;" horiz-adv-x="507" 
d="M466 215l-311.997 0.00292969c0 -33.333 8.83301 -61.5 26.5 -84.5s43.834 -34.5 78.501 -34.5c16.667 0 36.167 4 58.5 12s41.833 19.667 58.5 35l33 -39.5l33 -39.5c-50 -46.667 -112.333 -70 -187 -70c-22.667 0 -43.834 2.16699 -63.501 6.5s-39.167 12.333 -58.5 24
s-35.833 26.667 -49.5 45s-24.834 42.666 -33.501 72.999s-13 64.833 -13 103.5c0 45.333 6.33301 85.166 19 119.499s29.667 61 51 80s44.166 33 68.499 42s50.166 13.5 77.499 13.5c66 0 118 -21.333 156 -64s57 -100.334 57 -173.001v-49zM252.003 398.003
c-26 0 -47.832 -9.16699 -65.499 -27.5s-27.834 -43.5 -30.501 -75.5h190c-2 32.667 -11.667 58 -29 76s-39 27 -65 27zM316.004 573.003l-67 -29l-123 179l108 36z" />
    <glyph glyph-name="eacute" unicode="&#xe9;" horiz-adv-x="507" 
d="M466 215l-311.997 0.00292969c0 -33.333 8.83301 -61.5 26.5 -84.5s43.834 -34.5 78.501 -34.5c16.667 0 36.167 4 58.5 12s41.833 19.667 58.5 35l33 -39.5l33 -39.5c-50 -46.667 -112.333 -70 -187 -70c-22.667 0 -43.834 2.16699 -63.501 6.5s-39.167 12.333 -58.5 24
s-35.833 26.667 -49.5 45s-24.834 42.666 -33.501 72.999s-13 64.833 -13 103.5c0 45.333 6.33301 85.166 19 119.499s29.667 61 51 80s44.166 33 68.499 42s50.166 13.5 77.499 13.5c66 0 118 -21.333 156 -64s57 -100.334 57 -173.001v-49zM252.003 398.003
c-26 0 -47.832 -9.16699 -65.499 -27.5s-27.834 -43.5 -30.501 -75.5h190c-2 32.667 -11.667 58 -29 76s-39 27 -65 27zM266.004 544.003l-68 25l79 190l107 -34z" />
    <glyph glyph-name="ecircumflex" unicode="&#xea;" horiz-adv-x="507" 
d="M466 215l-311.997 0.00292969c0 -33.333 8.83301 -61.5 26.5 -84.5s43.834 -34.5 78.501 -34.5c16.667 0 36.167 4 58.5 12s41.833 19.667 58.5 35l33 -39.5l33 -39.5c-50 -46.667 -112.333 -70 -187 -70c-22.667 0 -43.834 2.16699 -63.501 6.5s-39.167 12.333 -58.5 24
s-35.833 26.667 -49.5 45s-24.834 42.666 -33.501 72.999s-13 64.833 -13 103.5c0 45.333 6.33301 85.166 19 119.499s29.667 61 51 80s44.166 33 68.499 42s50.166 13.5 77.499 13.5c66 0 118 -21.333 156 -64s57 -100.334 57 -173.001v-49zM252.003 398.003
c-26 0 -47.832 -9.16699 -65.499 -27.5s-27.834 -43.5 -30.501 -75.5h190c-2 32.667 -11.667 58 -29 76s-39 27 -65 27zM397.004 537.003l-138.999 105.001c-6.66699 -4.66699 -29.334 -21.834 -68.001 -51.501s-62.667 -47.5 -72 -53.5l-46 43l149 154h78l146 -153z" />
    <glyph glyph-name="edieresis" unicode="&#xeb;" horiz-adv-x="507" 
d="M466 215l-311.997 0.00292969c0 -33.333 8.83301 -61.5 26.5 -84.5s43.834 -34.5 78.501 -34.5c16.667 0 36.167 4 58.5 12s41.833 19.667 58.5 35l33 -39.5l33 -39.5c-50 -46.667 -112.333 -70 -187 -70c-22.667 0 -43.834 2.16699 -63.501 6.5s-39.167 12.333 -58.5 24
s-35.833 26.667 -49.5 45s-24.834 42.666 -33.501 72.999s-13 64.833 -13 103.5c0 45.333 6.33301 85.166 19 119.499s29.667 61 51 80s44.166 33 68.499 42s50.166 13.5 77.499 13.5c66 0 118 -21.333 156 -64s57 -100.334 57 -173.001v-49zM252.003 398.003
c-26 0 -47.832 -9.16699 -65.499 -27.5s-27.834 -43.5 -30.501 -75.5h190c-2 32.667 -11.667 58 -29 76s-39 27 -65 27zM415.004 583.003h-118v109h118v-109zM216.004 583.003h-119v109h119v-109z" />
    <glyph glyph-name="igrave" unicode="&#xec;" horiz-adv-x="235" 
d="M175 0h-115v495h115v-495zM159 573l-67 -29l-123 179l108 36z" />
    <glyph glyph-name="iacute" unicode="&#xed;" horiz-adv-x="235" 
d="M175 0h-115v495h115v-495zM140 544l-68 25l79 190l107 -34z" />
    <glyph glyph-name="icircumflex" unicode="&#xee;" horiz-adv-x="333" 
d="M222 0h-115v495h115v-495zM305 537l-138.999 105.001c-6.66699 -4.66699 -29.334 -21.834 -68.001 -51.501s-62.667 -47.5 -72 -53.5l-46 43l149 154h78l146 -153z" />
    <glyph glyph-name="idieresis" unicode="&#xef;" horiz-adv-x="278" 
d="M197 0h-115v495h115v-495zM298 583h-118v109h118v-109zM99 583h-119v109h119v-109z" />
    <glyph glyph-name="eth" unicode="&#xf0;" horiz-adv-x="514" 
d="M246 476c22.667 -0.666992 46.166 -6.66992 70.499 -18.0029s42.166 -26.333 53.499 -45l4 1c-1.33301 66 -13.666 113.333 -36.999 142l-55 -43l-33 44l51 40c-30 26.667 -74 44.334 -132 53.001l17 89c86 -7.33301 151.667 -33.666 197 -78.999l69 55l35 -41l-65 -54
c25.333 -35.333 42 -77.333 50 -126s12 -109.667 12 -183c0 -108 -23.333 -189.667 -70 -245c-42 -48.667 -100 -73 -174 -73c-36.667 0 -69.667 7.33301 -99 22s-52.333 34.334 -69 59.001c-24 36.667 -36.667 85 -38 145c-3.33301 59.333 6.33398 110.333 29.001 153
c36 69.333 97.333 104 184 104zM247.999 372.997c-38 0 -66 -17 -84 -51c-10 -20 -15.333 -53.667 -16 -101c0 -28 4.33301 -51.667 13 -71c16.667 -36 45 -54 85 -54c36 0 63 14.667 81 44c14 20 21 54 21 102c0 25.333 -3.33301 47.333 -10 66c-14 43.333 -44 65 -90 65z
" />
    <glyph glyph-name="ntilde" unicode="&#xf1;" horiz-adv-x="529" 
d="M470 0h-113v294c0 66.667 -30.333 100 -91 100c-28 0 -50.833 -9 -68.5 -27s-26.5 -42.333 -26.5 -73v-294h-113v496h113v-52h2c15.333 17.333 34.833 31 58.5 41s47.167 15 70.5 15c52 0 93 -15 123 -45s45 -73.333 45 -130v-325zM183 705c18 0 42.332 -8 72.999 -24
s50.667 -24 60 -24c20.667 0 42 15.667 64 47l60 -35c-30.667 -66 -68.667 -99 -114 -99c-18 0 -42.667 7.66699 -74 23s-52.666 23 -63.999 23c-22 0 -45 -15 -69 -45l-57 33c32.667 67.333 73 101 121 101z" />
    <glyph glyph-name="ograve" unicode="&#xf2;" horiz-adv-x="515" 
d="M264 501c77.333 0 134.667 -27.6689 172 -83.002c25.333 -39.333 37.333 -93.666 36 -162.999c0 -72.667 -11.333 -128.667 -34 -168c-18.667 -30.667 -44.334 -54 -77.001 -70s-69 -24 -109 -24c-78.667 0 -135.667 26 -171 78
c-27.333 40.667 -40.333 99.334 -39 176.001c0 59.333 8.33301 106 25 140c16.667 36 42.334 64 77.001 84s74.667 30 120 30zM260.001 398.998c-40.667 0 -69.667 -18.666 -87 -55.999c-10 -22 -15.667 -54.333 -17 -97c0 -43.333 5 -75 15 -95c16 -36.667 44 -55 84 -55
c47.333 0 78.333 23.667 93 71c6 19.333 9 48.666 9 87.999c0 38.667 -4.33301 67.667 -13 87c-14.667 38 -42.667 57 -84 57zM322.001 572.999l-67 -29l-123 179l108 36z" />
    <glyph glyph-name="oacute" unicode="&#xf3;" horiz-adv-x="515" 
d="M264 501c77.333 0 134.667 -27.6689 172 -83.002c25.333 -39.333 37.333 -93.666 36 -162.999c0 -72.667 -11.333 -128.667 -34 -168c-18.667 -30.667 -44.334 -54 -77.001 -70s-69 -24 -109 -24c-78.667 0 -135.667 26 -171 78
c-27.333 40.667 -40.333 99.334 -39 176.001c0 59.333 8.33301 106 25 140c16.667 36 42.334 64 77.001 84s74.667 30 120 30zM260.001 398.998c-40.667 0 -69.667 -18.666 -87 -55.999c-10 -22 -15.667 -54.333 -17 -97c0 -43.333 5 -75 15 -95c16 -36.667 44 -55 84 -55
c47.333 0 78.333 23.667 93 71c6 19.333 9 48.666 9 87.999c0 38.667 -4.33301 67.667 -13 87c-14.667 38 -42.667 57 -84 57zM285.001 543.999l-68 25l79 190l107 -34z" />
    <glyph glyph-name="ocircumflex" unicode="&#xf4;" horiz-adv-x="515" 
d="M264 501c77.333 0 134.667 -27.6689 172 -83.002c25.333 -39.333 37.333 -93.666 36 -162.999c0 -72.667 -11.333 -128.667 -34 -168c-18.667 -30.667 -44.334 -54 -77.001 -70s-69 -24 -109 -24c-78.667 0 -135.667 26 -171 78
c-27.333 40.667 -40.333 99.334 -39 176.001c0 59.333 8.33301 106 25 140c16.667 36 42.334 64 77.001 84s74.667 30 120 30zM260.001 398.998c-40.667 0 -69.667 -18.666 -87 -55.999c-10 -22 -15.667 -54.333 -17 -97c0 -43.333 5 -75 15 -95c16 -36.667 44 -55 84 -55
c47.333 0 78.333 23.667 93 71c6 19.333 9 48.666 9 87.999c0 38.667 -4.33301 67.667 -13 87c-14.667 38 -42.667 57 -84 57zM397.001 536.999l-138.999 105.001c-6.66699 -4.66699 -29.334 -21.834 -68.001 -51.501s-62.667 -47.5 -72 -53.5l-46 43l149 154h78l146 -153z
" />
    <glyph glyph-name="otilde" unicode="&#xf5;" horiz-adv-x="515" 
d="M264 501c77.333 0 134.667 -27.6689 172 -83.002c25.333 -39.333 37.333 -93.666 36 -162.999c0 -72.667 -11.333 -128.667 -34 -168c-18.667 -30.667 -44.334 -54 -77.001 -70s-69 -24 -109 -24c-78.667 0 -135.667 26 -171 78
c-27.333 40.667 -40.333 99.334 -39 176.001c0 59.333 8.33301 106 25 140c16.667 36 42.334 64 77.001 84s74.667 30 120 30zM260.001 398.998c-40.667 0 -69.667 -18.666 -87 -55.999c-10 -22 -15.667 -54.333 -17 -97c0 -43.333 5 -75 15 -95c16 -36.667 44 -55 84 -55
c47.333 0 78.333 23.667 93 71c6 19.333 9 48.666 9 87.999c0 38.667 -4.33301 67.667 -13 87c-14.667 38 -42.667 57 -84 57zM194.001 704.999c18 0 42.332 -8 72.999 -24s50.667 -24 60 -24c20.667 0 42 15.667 64 47l60 -35c-30.667 -66 -68.667 -99 -114 -99
c-18 0 -42.667 7.66699 -74 23s-52.666 23 -63.999 23c-22 0 -45 -15 -69 -45l-57 33c32.667 67.333 73 101 121 101z" />
    <glyph glyph-name="odieresis" unicode="&#xf6;" horiz-adv-x="515" 
d="M264 501c77.333 0 134.667 -27.6689 172 -83.002c25.333 -39.333 37.333 -93.666 36 -162.999c0 -72.667 -11.333 -128.667 -34 -168c-18.667 -30.667 -44.334 -54 -77.001 -70s-69 -24 -109 -24c-78.667 0 -135.667 26 -171 78
c-27.333 40.667 -40.333 99.334 -39 176.001c0 59.333 8.33301 106 25 140c16.667 36 42.334 64 77.001 84s74.667 30 120 30zM260.001 398.998c-40.667 0 -69.667 -18.666 -87 -55.999c-10 -22 -15.667 -54.333 -17 -97c0 -43.333 5 -75 15 -95c16 -36.667 44 -55 84 -55
c47.333 0 78.333 23.667 93 71c6 19.333 9 48.666 9 87.999c0 38.667 -4.33301 67.667 -13 87c-14.667 38 -42.667 57 -84 57zM415.001 582.999h-118v109h118v-109zM216.001 582.999h-119v109h119v-109z" />
    <glyph glyph-name="divide" unicode="&#xf7;" horiz-adv-x="525" 
d="M338 489c0 -19.333 -7.16699 -35.833 -21.5 -49.5s-31.5 -20.5 -51.5 -20.5c-20.667 0 -38.167 6.83301 -52.5 20.5s-21.5 30.167 -21.5 49.5s7.16699 36 21.5 50s31.833 21 52.5 21c20 0 37.167 -7 51.5 -21s21.5 -30.667 21.5 -50zM506 251h-483v90h483v-90zM338 98
c0 -19.333 -7.16699 -35.833 -21.5 -49.5s-31.5 -20.5 -51.5 -20.5c-20.667 0 -38.167 6.83301 -52.5 20.5s-21.5 30.167 -21.5 49.5s7.16699 35.833 21.5 49.5s31.833 20.5 52.5 20.5c20 0 37.167 -6.83301 51.5 -20.5s21.5 -30.167 21.5 -49.5z" />
    <glyph glyph-name="oslash" unicode="&#xf8;" horiz-adv-x="515" 
d="M264 501c52.667 0 97.001 -14.002 133.001 -42.002l42 54l36 -28l-46 -58c2 -2 4.33301 -5 7 -9c25.333 -39.333 37.333 -93.666 36 -162.999c0 -72.667 -11.333 -128.667 -34 -168c-18.667 -30.667 -44.334 -54 -77.001 -70s-69 -24 -109 -24
c-55.333 0 -100.333 13.333 -135 40l-39 -49l-34 27l42 53c-2.66699 2.66699 -4.33398 5 -5.00098 7c-27.333 40.667 -40.333 99.334 -39 176.001c0 59.333 8.33301 106 25 140c16.667 36 42.334 64 77.001 84s74.667 30 120 30zM260.001 398.998
c-40.667 0 -69.667 -18.667 -87 -56c-10 -22 -15.667 -54.333 -17 -97c0 -37.333 3 -64.333 9 -81l162 206c-16.667 18.667 -39 28 -67 28zM357.001 254.998c0 28 -2.66699 52.001 -8 72.001l-161 -204c18 -18 40.333 -27 67 -27c47.333 0 78.333 23.667 93 71
c6 19.333 9 48.666 9 87.999z" />
    <glyph glyph-name="ugrave" unicode="&#xf9;" horiz-adv-x="533" 
d="M59 495h112v-295c0 -34.667 7.16699 -60.167 21.5 -76.5s37.833 -24.5 70.5 -24.5c27.333 0 50 9.16699 68 27.5s27 42.833 27 73.5v295h113v-495h-113v49h-3c-30 -36.667 -72 -55 -126 -55c-53.333 0 -95 14.667 -125 44s-45 73.333 -45 132v325zM322 573l-67 -29
l-123 179l108 36z" />
    <glyph glyph-name="uacute" unicode="&#xfa;" horiz-adv-x="533" 
d="M59 495h112v-295c0 -34.667 7.16699 -60.167 21.5 -76.5s37.833 -24.5 70.5 -24.5c27.333 0 50 9.16699 68 27.5s27 42.833 27 73.5v295h113v-495h-113v49h-3c-30 -36.667 -72 -55 -126 -55c-53.333 0 -95 14.667 -125 44s-45 73.333 -45 132v325zM283 544l-68 25l79 190
l107 -34z" />
    <glyph glyph-name="ucircumflex" unicode="&#xfb;" horiz-adv-x="533" 
d="M59 495h112v-295c0 -34.667 7.16699 -60.167 21.5 -76.5s37.833 -24.5 70.5 -24.5c27.333 0 50 9.16699 68 27.5s27 42.833 27 73.5v295h113v-495h-113v49h-3c-30 -36.667 -72 -55 -126 -55c-53.333 0 -95 14.667 -125 44s-45 73.333 -45 132v325zM402 537
l-138.999 105.001c-6.66699 -4.66699 -29.334 -21.834 -68.001 -51.501s-62.667 -47.5 -72 -53.5l-46 43l149 154h78l146 -153z" />
    <glyph glyph-name="udieresis" unicode="&#xfc;" horiz-adv-x="533" 
d="M59 495h112v-295c0 -34.667 7.16699 -60.167 21.5 -76.5s37.833 -24.5 70.5 -24.5c27.333 0 50 9.16699 68 27.5s27 42.833 27 73.5v295h113v-495h-113v49h-3c-30 -36.667 -72 -55 -126 -55c-53.333 0 -95 14.667 -125 44s-45 73.333 -45 132v325zM416 583h-118v109h118
v-109zM217 583h-119v109h119v-109z" />
    <glyph glyph-name="yacute" unicode="&#xfd;" horiz-adv-x="470" 
d="M470 495l-218 -595c-24.667 -66.667 -72.667 -100 -144 -100h-42v95h31c27.333 0 47.333 17.333 60 52l25 78l-182 470h122l64 -182l49 -156h4l49 154l63 184h119zM264 544l-68 25l79 190l107 -34z" />
    <glyph glyph-name="thorn" unicode="&#xfe;" horiz-adv-x="524" 
d="M60 712l112 0.000976562v-261l3 -1c30 33.333 68.667 50 116 50c122.667 0 184 -85.333 184 -256c0 -32 -2.83301 -61.5 -8.5 -88.5s-15.167 -53.333 -28.5 -79s-33.333 -45.834 -60 -60.501s-59 -22 -97 -22c-40 0 -75.667 15.667 -107 47h-2v-241h-112v912z
M172 246.001c0 -97.333 30.999 -145.998 92.999 -145.998c16 0 29.833 3 41.5 9s20.834 13.667 27.501 23s11.834 20.833 15.501 34.5s6 26.5 7 38.5s1.5 25.667 1.5 41s-0.5 28.833 -1.5 40.5s-3.33301 24.667 -7 39s-8.66699 26.166 -15 35.499s-15.333 17.166 -27 23.499
s-25.834 9.5 -42.501 9.5c-62 0 -93 -49.333 -93 -148z" />
    <glyph glyph-name="ydieresis" unicode="&#xff;" horiz-adv-x="470" 
d="M470 495l-218 -595c-24.667 -66.667 -72.667 -100 -144 -100h-42v95h31c27.333 0 47.333 17.333 60 52l25 78l-182 470h122l64 -182l49 -156h4l49 154l63 184h119zM395 583h-118v109h118v-109zM196 583h-119v109h119v-109z" />
    <glyph glyph-name="Amacron" unicode="&#x100;" horiz-adv-x="629" 
d="M626 0h-128l-55 154h-258l-56 -154h-127l263 696h98zM407 257l-46 141l-46 143h-3l-45 -140l-47 -144h187zM465 769h-301v97h301v-97z" />
    <glyph glyph-name="amacron" unicode="&#x101;" horiz-adv-x="499" 
d="M245 500c136.667 0 205 -54.667 205 -164v-336h-113v44c-0.666992 0.666992 -1.33398 1 -2.00098 1c-24.667 -33.333 -67.667 -50 -129 -50c-53.333 0 -95.166 13 -125.499 39s-45.5 62.667 -45.5 110c0 42 14.833 77.333 44.5 106s70.834 43 123.501 43h134v36
c0 47.333 -32.667 71 -98 71c-50 0 -89.333 -13.667 -118 -41l-60 76c43.333 43.333 104.666 65 183.999 65zM405 589h-301v97h301v-97zM142 152c0 -17.333 7.00098 -31.833 21.001 -43.5s36.333 -17.5 67 -17.5c65.333 0 100.666 23 105.999 69c0.666992 5.33301 1 21 1 47
h-115c-53.333 0 -80 -18.333 -80 -55z" />
    <glyph glyph-name="Abreve" unicode="&#x102;" horiz-adv-x="629" 
d="M626 0h-128l-55 154h-258l-56 -154h-127l263 696h98zM407 257l-46 141l-46 143h-3l-45 -140l-47 -144h187zM314 731c-50 0 -86.8301 15 -110.497 45s-36.834 63.333 -39.501 100h87c0.666992 -15.333 6.66699 -30 18 -44s26.333 -21 45 -21c20 0 35.667 7 47 21
s17 28.667 17 44h86c-2 -16 -5.66699 -31.667 -11 -47s-13.333 -30.833 -24 -46.5s-25.834 -28.167 -45.501 -37.5s-42.834 -14 -69.501 -14z" />
    <glyph glyph-name="abreve" unicode="&#x103;" horiz-adv-x="499" 
d="M245 500c136.667 0 205 -54.667 205 -164v-336h-113v44c-0.666992 0.666992 -1.33398 1 -2.00098 1c-24.667 -33.333 -67.667 -50 -129 -50c-53.333 0 -95.166 13 -125.499 39s-45.5 62.667 -45.5 110c0 42 14.833 77.333 44.5 106s70.834 43 123.501 43h134v36
c0 47.333 -32.667 71 -98 71c-50 0 -89.333 -13.667 -118 -41l-60 76c43.333 43.333 104.666 65 183.999 65zM263 564c-50 0 -86.835 15.166 -110.502 45.499s-36.834 63.833 -39.501 100.5h87c0.666992 -15.333 6.66699 -30.166 18 -44.499s26.333 -21.5 45 -21.5
c20 0 35.667 7 47 21s17 29 17 45h86c-1.33301 -12.667 -3.66602 -25 -6.99902 -37s-8.66602 -24.833 -15.999 -38.5s-16.333 -25.5 -27 -35.5s-24.667 -18.333 -42 -25s-36.666 -10 -57.999 -10zM141.998 151.999c0 -17.333 7.00098 -31.833 21.001 -43.5
s36.333 -17.5 67 -17.5c65.333 0 100.666 23 105.999 69c0.666992 5.33301 1 21 1 47h-115c-53.333 0 -80 -18.333 -80 -55z" />
    <glyph glyph-name="Aogonek" unicode="&#x104;" horiz-adv-x="629" 
d="M457 -98c0 28 13.333 61.001 40 99.001l-54 153h-258l-56 -154h-127l263 696h98l263 -696h-52c-25.333 -34.667 -38 -62.334 -38 -83.001c0 -23.333 13.333 -35 40 -35c18 0 38.333 4.66699 61 14l23 -60c-30.667 -18 -63 -27 -97 -27c-30.667 0 -56 9 -76 27
s-30 40 -30 66zM407 257.001l-46 141l-46 143h-3l-45 -140l-47 -144h187z" />
    <glyph glyph-name="aogonek" unicode="&#x105;" horiz-adv-x="499" 
d="M297 -98c0 28 13.333 60.668 40 98.001v44c-0.666992 0.666992 -1.33398 1 -2.00098 1c-24.667 -33.333 -67.667 -50 -129 -50c-53.333 0 -95.166 13 -125.499 39s-45.5 62.667 -45.5 110c0 42 14.833 77.333 44.5 106s70.834 43 123.501 43h134v36
c0 47.333 -32.667 71 -98 71c-50 0 -89.333 -13.667 -118 -41l-60 76c43.333 43.333 104.666 65 183.999 65c136.667 0 205 -54.667 205 -164v-336h-36c-25.333 -34.667 -38 -62.334 -38 -83.001c0 -23.333 13.333 -35 40 -35c18 0 38.333 4.66699 61 14l23 -60
c-30.667 -18 -63 -27 -97 -27c-30.667 0 -56 9 -76 27s-30 40 -30 66zM142 152.001c0 -17.333 7.00098 -31.833 21.001 -43.5s36.333 -17.5 67 -17.5c65.333 0 100.666 23 105.999 69c0.666992 5.33301 1 21 1 47h-115c-53.333 0 -80 -18.333 -80 -55z" />
    <glyph glyph-name="Cacute" unicode="&#x106;" horiz-adv-x="572" 
d="M436 204l115 -48c-17.333 -50.667 -47.333 -90.334 -90 -119.001s-94 -43 -154 -43c-84 0 -148.167 24.667 -192.5 74s-66.5 113 -66.5 191v178c0 74.667 22.5 137.334 67.5 188.001s108.833 76 191.5 76c59.333 0 110.166 -14.5 152.499 -43.5s72.5 -68.5 90.5 -118.5
l-114 -45c-8.66699 28 -24.167 50.333 -46.5 67s-49.833 25 -82.5 25c-44 0 -77.833 -14.167 -101.5 -42.5s-35.5 -62.166 -35.5 -101.499v-185c0 -41.333 11.833 -76.5 35.5 -105.5s57.5 -43.5 101.5 -43.5c32 0 59.333 8.66699 82 26s38.334 40.666 47.001 69.999z
M253 735l-47 56l165 125l74 -84z" />
    <glyph glyph-name="cacute" unicode="&#x107;" horiz-adv-x="447" 
d="M430 67c-50.667 -48.667 -109.002 -73 -175.002 -73c-64.667 0 -118.667 21.167 -162 63.5s-65 105.5 -65 189.5s22.333 147.167 67 189.5s99.334 63.5 164.001 63.5c66 0 122.333 -23.333 169 -70l-73 -79c-29.333 30.667 -60.666 46 -93.999 46
c-78 0 -117 -50 -117 -150c0 -99.333 38.667 -149 116 -149c32.667 0 64.667 15.667 96 47zM255.998 544l-68 25l79 190l107 -34z" />
    <glyph glyph-name="Ccircumflex" unicode="&#x108;" horiz-adv-x="572" 
d="M436 204l115 -48c-17.333 -50.667 -47.333 -90.334 -90 -119.001s-94 -43 -154 -43c-84 0 -148.167 24.667 -192.5 74s-66.5 113 -66.5 191v178c0 74.667 22.5 137.334 67.5 188.001s108.833 76 191.5 76c59.333 0 110.166 -14.5 152.499 -43.5s72.5 -68.5 90.5 -118.5
l-114 -45c-8.66699 28 -24.167 50.333 -46.5 67s-49.833 25 -82.5 25c-44 0 -77.833 -14.167 -101.5 -42.5s-35.5 -62.166 -35.5 -101.499v-185c0 -41.333 11.833 -76.5 35.5 -105.5s57.5 -43.5 101.5 -43.5c32 0 59.333 8.66699 82 26s38.334 40.666 47.001 69.999z
M451 733l-147 82l-147 -82l-38 48l149 124h76l147 -123z" />
    <glyph glyph-name="ccircumflex" unicode="&#x109;" horiz-adv-x="447" 
d="M430 67c-50.667 -48.667 -109.002 -73 -175.002 -73c-64.667 0 -118.667 21.167 -162 63.5s-65 105.5 -65 189.5s22.333 147.167 67 189.5s99.334 63.5 164.001 63.5c66 0 122.333 -23.333 169 -70l-73 -79c-29.333 30.667 -60.666 46 -93.999 46
c-78 0 -117 -50 -117 -150c0 -99.333 38.667 -149 116 -149c32.667 0 64.667 15.667 96 47zM386.998 537l-138.999 105.001c-6.66699 -4.66699 -29.334 -21.834 -68.001 -51.501s-62.667 -47.5 -72 -53.5l-46 43l149 154h78l146 -153z" />
    <glyph glyph-name="Cdotaccent" unicode="&#x10a;" horiz-adv-x="572" 
d="M436 204l115 -48c-17.333 -50.667 -47.333 -90.334 -90 -119.001s-94 -43 -154 -43c-84 0 -148.167 24.667 -192.5 74s-66.5 113 -66.5 191v178c0 74.667 22.5 137.334 67.5 188.001s108.833 76 191.5 76c59.333 0 110.166 -14.5 152.499 -43.5s72.5 -68.5 90.5 -118.5
l-114 -45c-8.66699 28 -24.167 50.333 -46.5 67s-49.833 25 -82.5 25c-44 0 -77.833 -14.167 -101.5 -42.5s-35.5 -62.166 -35.5 -101.499v-185c0 -41.333 11.833 -76.5 35.5 -105.5s57.5 -43.5 101.5 -43.5c32 0 59.333 8.66699 82 26s38.334 40.666 47.001 69.999z
M366 758h-118v109h118v-109z" />
    <glyph glyph-name="cdotaccent" unicode="&#x10b;" horiz-adv-x="447" 
d="M430 67c-50.667 -48.667 -109.002 -73 -175.002 -73c-64.667 0 -118.667 21.167 -162 63.5s-65 105.5 -65 189.5s22.333 147.167 67 189.5s99.334 63.5 164.001 63.5c66 0 122.333 -23.333 169 -70l-73 -79c-29.333 30.667 -60.666 46 -93.999 46
c-78 0 -117 -50 -117 -150c0 -99.333 38.667 -149 116 -149c32.667 0 64.667 15.667 96 47zM309.998 583h-118v109h118v-109z" />
    <glyph glyph-name="Ccaron" unicode="&#x10c;" horiz-adv-x="572" 
d="M436 204l115 -48c-17.333 -50.667 -47.333 -90.334 -90 -119.001s-94 -43 -154 -43c-84 0 -148.167 24.667 -192.5 74s-66.5 113 -66.5 191v178c0 74.667 22.5 137.334 67.5 188.001s108.833 76 191.5 76c59.333 0 110.166 -14.5 152.499 -43.5s72.5 -68.5 90.5 -118.5
l-114 -45c-8.66699 28 -24.167 50.333 -46.5 67s-49.833 25 -82.5 25c-44 0 -77.833 -14.167 -101.5 -42.5s-35.5 -62.166 -35.5 -101.499v-185c0 -41.333 11.833 -76.5 35.5 -105.5s57.5 -43.5 101.5 -43.5c32 0 59.333 8.66699 82 26s38.334 40.666 47.001 69.999z
M303 826l146 82l41 -49l-147 -124h-76l-150 125l39 48z" />
    <glyph glyph-name="ccaron" unicode="&#x10d;" horiz-adv-x="447" 
d="M430 67c-50.667 -48.667 -109.002 -73 -175.002 -73c-64.667 0 -118.667 21.167 -162 63.5s-65 105.5 -65 189.5s22.333 147.167 67 189.5s99.334 63.5 164.001 63.5c66 0 122.333 -23.333 169 -70l-73 -79c-29.333 30.667 -60.666 46 -93.999 46
c-78 0 -117 -50 -117 -150c0 -99.333 38.667 -149 116 -149c32.667 0 64.667 15.667 96 47zM247.998 629l138.999 105.001l48 -44l-146 -153h-78l-149 154l46 43c9.33301 -6 33.333 -23.833 72 -53.5s61.334 -46.834 68.001 -51.501z" />
    <glyph glyph-name="Dcaron" unicode="&#x10e;" horiz-adv-x="638" 
d="M194 586v-476h119c56 0 96 14.833 120 44.5s36 72.5 36 128.5v130c0 60.667 -13.167 104.667 -39.5 132s-65.833 41 -118.5 41h-117zM73 696h253c116.667 0 195.667 -43 237 -129c18 -36.667 27 -105.667 27 -207c0 -108.667 -8.33301 -182.667 -25 -222
c-40 -92 -125.333 -138 -256 -138h-236v696zM272 826l146 82l41 -49l-147 -124h-76l-150 125l39 48z" />
    <glyph glyph-name="dcaron" unicode="&#x10f;" horiz-adv-x="645" 
d="M579 497h-59l37 98h-34v131h129v-126zM463 0h-113v46l-2 2c-31.333 -35.333 -72.666 -53 -123.999 -53c-30 0 -56.167 5.16699 -78.5 15.5s-39.5 23.333 -51.5 39s-21.667 35.5 -29 59.5s-12 46.667 -14 68s-3 46 -3 74c0 31.333 2.83301 60.5 8.5 87.5s15 53.333 28 79
s32.5 46 58.5 61s57 22.5 93 22.5c49.333 0 86.666 -16 111.999 -48l2 1v272h113v-726zM350 248c0 18.667 -0.998047 35.1689 -2.99805 49.502s-5.83301 29.5 -11.5 45.5s-15 28.333 -28 37s-29.167 13 -48.5 13c-20.667 0 -37.834 -4.5 -51.501 -13.5
s-23.334 -21.833 -29.001 -38.5s-9.5 -32.334 -11.5 -47.001s-3 -32.334 -3 -53.001c0 -18.667 1 -35 3 -49s5.83301 -28.5 11.5 -43.5s15.167 -26.667 28.5 -35s30 -12.5 50 -12.5c62 0 93 49 93 147z" />
    <glyph glyph-name="Dcroat" unicode="&#x110;" horiz-adv-x="638" 
d="M6 306v85h67v305h253c116.667 0 195.667 -43 237 -129c18 -36.667 27 -105.667 27 -207c0 -108.667 -8.33301 -182.667 -25 -222c-40 -92 -125.333 -138 -256 -138h-236v306h-67zM194 586v-195h97v-85h-97v-196h119c56 0 96 14.833 120 44.5s36 72.5 36 128.5v130
c0 60.667 -13.167 104.667 -39.5 132s-65.833 41 -118.5 41h-117z" />
    <glyph glyph-name="dcroat" unicode="&#x111;" horiz-adv-x="515" 
d="M227 555v73h123v98h113v-98h52v-73h-52v-555h-113v46l-2 2c-31.333 -35.333 -72.666 -53 -123.999 -53c-30 0 -56.167 5.16699 -78.5 15.5s-39.5 23.333 -51.5 39s-21.667 35.5 -29 59.5s-12 46.667 -14 68s-3 46 -3 74c0 31.333 2.83301 60.5 8.5 87.5s15 53.333 28 79
s32.5 46 58.5 61s57 22.5 93 22.5c49.333 0 86.666 -16 111.999 -48l2 1v101h-123zM350 248c0 18.667 -0.998047 35.1689 -2.99805 49.502s-5.83301 29.5 -11.5 45.5s-15 28.333 -28 37s-29.167 13 -48.5 13c-20.667 0 -37.834 -4.5 -51.501 -13.5
s-23.334 -21.833 -29.001 -38.5s-9.5 -32.334 -11.5 -47.001s-3 -32.334 -3 -53.001c0 -18.667 1 -35 3 -49s5.83301 -28.5 11.5 -43.5s15.167 -26.667 28.5 -35s30 -12.5 50 -12.5c62 0 93 49 93 147z" />
    <glyph glyph-name="Emacron" unicode="&#x112;" horiz-adv-x="564" 
d="M539 0h-466v696h466v-110h-345v-182h294v-106h-294v-188h345v-110zM455 769h-301v97h301v-97z" />
    <glyph glyph-name="emacron" unicode="&#x113;" horiz-adv-x="507" 
d="M466 215l-311.997 0.00292969c0 -33.333 8.83301 -61.5 26.5 -84.5s43.834 -34.5 78.501 -34.5c16.667 0 36.167 4 58.5 12s41.833 19.667 58.5 35l33 -39.5l33 -39.5c-50 -46.667 -112.333 -70 -187 -70c-22.667 0 -43.834 2.16699 -63.501 6.5s-39.167 12.333 -58.5 24
s-35.833 26.667 -49.5 45s-24.834 42.666 -33.501 72.999s-13 64.833 -13 103.5c0 45.333 6.33301 85.166 19 119.499s29.667 61 51 80s44.166 33 68.499 42s50.166 13.5 77.499 13.5c66 0 118 -21.333 156 -64s57 -100.334 57 -173.001v-49zM252.003 398.003
c-26 0 -47.832 -9.16699 -65.499 -27.5s-27.834 -43.5 -30.501 -75.5h190c-2 32.667 -11.667 58 -29 76s-39 27 -65 27zM415.004 589.003h-301v97h301v-97z" />
    <glyph glyph-name="Ebreve" unicode="&#x114;" horiz-adv-x="564" 
d="M539 0h-466v696h466v-110h-345v-182h294v-106h-294v-188h345v-110zM309 731c-50 0 -86.8301 15 -110.497 45s-36.834 63.333 -39.501 100h87c0.666992 -15.333 6.66699 -30 18 -44s26.333 -21 45 -21c20 0 35.667 7 47 21s17 28.667 17 44h86
c-2 -16 -5.66699 -31.667 -11 -47s-13.333 -30.833 -24 -46.5s-25.834 -28.167 -45.501 -37.5s-42.834 -14 -69.501 -14z" />
    <glyph glyph-name="ebreve" unicode="&#x115;" horiz-adv-x="507" 
d="M466 215l-311.997 0.00292969c0 -33.333 8.83301 -61.5 26.5 -84.5s43.834 -34.5 78.501 -34.5c16.667 0 36.167 4 58.5 12s41.833 19.667 58.5 35l33 -39.5l33 -39.5c-50 -46.667 -112.333 -70 -187 -70c-22.667 0 -43.834 2.16699 -63.501 6.5s-39.167 12.333 -58.5 24
s-35.833 26.667 -49.5 45s-24.834 42.666 -33.501 72.999s-13 64.833 -13 103.5c0 45.333 6.33301 85.166 19 119.499s29.667 61 51 80s44.166 33 68.499 42s50.166 13.5 77.499 13.5c66 0 118 -21.333 156 -64s57 -100.334 57 -173.001v-49zM252.003 398.003
c-26 0 -47.832 -9.16699 -65.499 -27.5s-27.834 -43.5 -30.501 -75.5h190c-2 32.667 -11.667 58 -29 76s-39 27 -65 27zM258.004 564.003c-50 0 -86.835 15.166 -110.502 45.499s-36.834 63.833 -39.501 100.5h87c0.666992 -15.333 6.66699 -30.166 18 -44.499
s26.333 -21.5 45 -21.5c20 0 35.667 7 47 21s17 29 17 45h86c-1.33301 -12.667 -3.66602 -25 -6.99902 -37s-8.66602 -24.833 -15.999 -38.5s-16.333 -25.5 -27 -35.5s-24.667 -18.333 -42 -25s-36.666 -10 -57.999 -10z" />
    <glyph glyph-name="Edotaccent" unicode="&#x116;" horiz-adv-x="564" 
d="M539 0h-466v696h466v-110h-345v-182h294v-106h-294v-188h345v-110zM363 758h-118v109h118v-109z" />
    <glyph glyph-name="edotaccent" unicode="&#x117;" horiz-adv-x="507" 
d="M466 215l-311.997 0.00292969c0 -33.333 8.83301 -61.5 26.5 -84.5s43.834 -34.5 78.501 -34.5c16.667 0 36.167 4 58.5 12s41.833 19.667 58.5 35l33 -39.5l33 -39.5c-50 -46.667 -112.333 -70 -187 -70c-22.667 0 -43.834 2.16699 -63.501 6.5s-39.167 12.333 -58.5 24
s-35.833 26.667 -49.5 45s-24.834 42.666 -33.501 72.999s-13 64.833 -13 103.5c0 45.333 6.33301 85.166 19 119.499s29.667 61 51 80s44.166 33 68.499 42s50.166 13.5 77.499 13.5c66 0 118 -21.333 156 -64s57 -100.334 57 -173.001v-49zM252.003 398.003
c-26 0 -47.832 -9.16699 -65.499 -27.5s-27.834 -43.5 -30.501 -75.5h190c-2 32.667 -11.667 58 -29 76s-39 27 -65 27zM318.004 583.003h-118v109h118v-109z" />
    <glyph glyph-name="Eogonek" unicode="&#x118;" horiz-adv-x="564" 
d="M422 -98c0 28 13.333 60.668 40 98.001h-389v696h466v-110h-345v-182h294v-106h-294v-188h345v-110c-25.333 -34.667 -38 -62.334 -38 -83.001c0 -23.333 13.333 -35 40 -35c18 0 38.333 4.66699 61 14l23 -60c-30.667 -18 -63 -27 -97 -27c-30.667 0 -56 9 -76 27
s-30 40 -30 66z" />
    <glyph glyph-name="eogonek" unicode="&#x119;" horiz-adv-x="507" 
d="M277 -68c0 20.667 6.33594 42.3359 19.0029 65.0029c-14 -2 -27.667 -3 -41 -3c-22.667 0 -43.834 2.16699 -63.501 6.5s-39.167 12.333 -58.5 24s-35.833 26.667 -49.5 45s-24.834 42.666 -33.501 72.999s-13 64.833 -13 103.5c0 45.333 6.33301 85.166 19 119.499
s29.667 61 51 80s44.166 33 68.499 42s50.166 13.5 77.499 13.5c66 0 118 -21.333 156 -64s57 -100.334 57 -173.001v-49h-312c0 -33.333 8.83301 -61.5 26.5 -84.5s43.834 -34.5 78.501 -34.5c16.667 0 36.167 4 58.5 12s41.833 19.667 58.5 35l33 -39.5l33 -39.5
c-14 -12.667 -30.333 -24.667 -49 -36c-24.667 -33.333 -37 -60.333 -37 -81c0 -23.333 13.333 -35 40 -35c18 0 38.333 4.66699 61 14l23 -60c-30.667 -18 -63 -27 -97 -27c-30.667 0 -56 9 -76 27s-30 40 -30 66zM252.003 398.002c-26 0 -47.832 -9.16699 -65.499 -27.5
s-27.834 -43.5 -30.501 -75.5h190c-2 32.667 -11.667 58 -29 76s-39 27 -65 27z" />
    <glyph glyph-name="Ecaron" unicode="&#x11a;" horiz-adv-x="564" 
d="M539 0h-466v696h466v-110h-345v-182h294v-106h-294v-188h345v-110zM301 826l146 82l41 -49l-147 -124h-76l-150 125l39 48z" />
    <glyph glyph-name="ecaron" unicode="&#x11b;" horiz-adv-x="507" 
d="M466 215l-311.997 0.00292969c0 -33.333 8.83301 -61.5 26.5 -84.5s43.834 -34.5 78.501 -34.5c16.667 0 36.167 4 58.5 12s41.833 19.667 58.5 35l33 -39.5l33 -39.5c-50 -46.667 -112.333 -70 -187 -70c-22.667 0 -43.834 2.16699 -63.501 6.5s-39.167 12.333 -58.5 24
s-35.833 26.667 -49.5 45s-24.834 42.666 -33.501 72.999s-13 64.833 -13 103.5c0 45.333 6.33301 85.166 19 119.499s29.667 61 51 80s44.166 33 68.499 42s50.166 13.5 77.499 13.5c66 0 118 -21.333 156 -64s57 -100.334 57 -173.001v-49zM252.003 398.003
c-26 0 -47.832 -9.16699 -65.499 -27.5s-27.834 -43.5 -30.501 -75.5h190c-2 32.667 -11.667 58 -29 76s-39 27 -65 27zM257.004 629.003l138.999 105.001l48 -44l-146 -153h-78l-149 154l46 43c9.33301 -6 33.333 -23.833 72 -53.5s61.334 -46.834 68.001 -51.501z" />
    <glyph glyph-name="Gcircumflex" unicode="&#x11c;" horiz-adv-x="618" 
d="M308 104c38.667 0 71.667 14.167 99 42.5s41 61.5 41 99.5v30h-145v104h265v-137c0 -72 -24.833 -131.5 -74.5 -178.5s-111.5 -70.5 -185.5 -70.5c-84 0 -148 24.5 -192 73.5s-66 112.833 -66 191.5v178c0 74.667 22 137.334 66 188.001s107 76 189 76
c60 0 111.167 -14.5 153.5 -43.5s72.5 -68.5 90.5 -118.5l-114 -45c-8.66699 28 -24.5 50.333 -47.5 67s-50.833 25 -83.5 25c-43.333 0 -76.333 -14 -99 -42s-34 -62 -34 -102v-188c0 -40.667 12 -75.834 36 -105.501s57.667 -44.5 101 -44.5zM451 733l-147 82l-147 -82
l-38 48l149 124h76l147 -123z" />
    <glyph glyph-name="gcircumflex" unicode="&#x11d;" horiz-adv-x="522" 
d="M345 495l111.001 -0.000976562v-475c0 -148.667 -73.667 -223 -221 -223c-70 0 -127.333 20 -172 60l59 83c36.667 -26.667 77.334 -40 122.001 -40c31.333 0 56.166 8.83301 74.499 26.5s27.5 42.834 27.5 75.501v46h-2c-30.667 -35.333 -70.334 -53 -119.001 -53
c-121.333 0 -182 80.333 -182 241c0 176 61.667 264 185 264c50 0 88.333 -16.667 115 -50h2v45zM158.001 246.999c0 -21.333 1.00098 -39.333 3.00098 -54s5.83301 -29.667 11.5 -45s15.167 -27 28.5 -35s30.333 -12 51 -12c62 0 93 48.667 93 146
c0 18.667 -0.833008 34.667 -2.5 48s-5.16699 28.5 -10.5 45.5s-14.666 30.167 -27.999 39.5s-30.333 14 -51 14s-37.834 -4.33301 -51.501 -13s-23.334 -21 -29.001 -37s-9.5 -31.167 -11.5 -45.5s-3 -31.5 -3 -51.5zM397.002 536.999l-138.999 105.001
c-6.66699 -4.66699 -29.334 -21.834 -68.001 -51.501s-62.667 -47.5 -72 -53.5l-46 43l149 154h78l146 -153z" />
    <glyph glyph-name="Gbreve" unicode="&#x11e;" horiz-adv-x="618" 
d="M308 104c38.667 0 71.667 14.167 99 42.5s41 61.5 41 99.5v30h-145v104h265v-137c0 -72 -24.833 -131.5 -74.5 -178.5s-111.5 -70.5 -185.5 -70.5c-84 0 -148 24.5 -192 73.5s-66 112.833 -66 191.5v178c0 74.667 22 137.334 66 188.001s107 76 189 76
c60 0 111.167 -14.5 153.5 -43.5s72.5 -68.5 90.5 -118.5l-114 -45c-8.66699 28 -24.5 50.333 -47.5 67s-50.833 25 -83.5 25c-43.333 0 -76.333 -14 -99 -42s-34 -62 -34 -102v-188c0 -40.667 12 -75.834 36 -105.501s57.667 -44.5 101 -44.5zM308 731
c-50 0 -86.8301 15 -110.497 45s-36.834 63.333 -39.501 100h87c0.666992 -15.333 6.66699 -30 18 -44s26.333 -21 45 -21c20 0 35.667 7 47 21s17 28.667 17 44h86c-2 -16 -5.66699 -31.667 -11 -47s-13.333 -30.833 -24 -46.5s-25.834 -28.167 -45.501 -37.5
s-42.834 -14 -69.501 -14z" />
    <glyph glyph-name="gbreve" unicode="&#x11f;" horiz-adv-x="522" 
d="M345 495l111.001 -0.000976562v-475c0 -148.667 -73.667 -223 -221 -223c-70 0 -127.333 20 -172 60l59 83c36.667 -26.667 77.334 -40 122.001 -40c31.333 0 56.166 8.83301 74.499 26.5s27.5 42.834 27.5 75.501v46h-2c-30.667 -35.333 -70.334 -53 -119.001 -53
c-121.333 0 -182 80.333 -182 241c0 176 61.667 264 185 264c50 0 88.333 -16.667 115 -50h2v45zM158.001 246.999c0 -21.333 1.00098 -39.333 3.00098 -54s5.83301 -29.667 11.5 -45s15.167 -27 28.5 -35s30.333 -12 51 -12c62 0 93 48.667 93 146
c0 18.667 -0.833008 34.667 -2.5 48s-5.16699 28.5 -10.5 45.5s-14.666 30.167 -27.999 39.5s-30.333 14 -51 14s-37.834 -4.33301 -51.501 -13s-23.334 -21 -29.001 -37s-9.5 -31.167 -11.5 -45.5s-3 -31.5 -3 -51.5zM268.002 563.999
c-50 0 -86.835 15.166 -110.502 45.499s-36.834 63.833 -39.501 100.5h87c0.666992 -15.333 6.66699 -30.166 18 -44.499s26.333 -21.5 45 -21.5c20 0 35.667 7 47 21s17 29 17 45h86c-1.33301 -12.667 -3.66602 -25 -6.99902 -37s-8.66602 -24.833 -15.999 -38.5
s-16.333 -25.5 -27 -35.5s-24.667 -18.333 -42 -25s-36.666 -10 -57.999 -10z" />
    <glyph glyph-name="Gdotaccent" unicode="&#x120;" horiz-adv-x="618" 
d="M308 104c38.667 0 71.667 14.167 99 42.5s41 61.5 41 99.5v30h-145v104h265v-137c0 -72 -24.833 -131.5 -74.5 -178.5s-111.5 -70.5 -185.5 -70.5c-84 0 -148 24.5 -192 73.5s-66 112.833 -66 191.5v178c0 74.667 22 137.334 66 188.001s107 76 189 76
c60 0 111.167 -14.5 153.5 -43.5s72.5 -68.5 90.5 -118.5l-114 -45c-8.66699 28 -24.5 50.333 -47.5 67s-50.833 25 -83.5 25c-43.333 0 -76.333 -14 -99 -42s-34 -62 -34 -102v-188c0 -40.667 12 -75.834 36 -105.501s57.667 -44.5 101 -44.5zM368 758h-118v109h118v-109z
" />
    <glyph glyph-name="gdotaccent" unicode="&#x121;" horiz-adv-x="522" 
d="M345 495l111.001 -0.000976562v-475c0 -148.667 -73.667 -223 -221 -223c-70 0 -127.333 20 -172 60l59 83c36.667 -26.667 77.334 -40 122.001 -40c31.333 0 56.166 8.83301 74.499 26.5s27.5 42.834 27.5 75.501v46h-2c-30.667 -35.333 -70.334 -53 -119.001 -53
c-121.333 0 -182 80.333 -182 241c0 176 61.667 264 185 264c50 0 88.333 -16.667 115 -50h2v45zM158.001 246.999c0 -21.333 1.00098 -39.333 3.00098 -54s5.83301 -29.667 11.5 -45s15.167 -27 28.5 -35s30.333 -12 51 -12c62 0 93 48.667 93 146
c0 18.667 -0.833008 34.667 -2.5 48s-5.16699 28.5 -10.5 45.5s-14.666 30.167 -27.999 39.5s-30.333 14 -51 14s-37.834 -4.33301 -51.501 -13s-23.334 -21 -29.001 -37s-9.5 -31.167 -11.5 -45.5s-3 -31.5 -3 -51.5zM331.002 582.999h-118v109h118v-109z" />
    <glyph glyph-name="Gcommaaccent" unicode="&#x122;" horiz-adv-x="618" 
d="M308 104c38.667 0 71.667 14.167 99 42.5s41 61.5 41 99.5v30h-145v104h265v-137c0 -72 -24.833 -131.5 -74.5 -178.5s-111.5 -70.5 -185.5 -70.5c-84 0 -148 24.5 -192 73.5s-66 112.833 -66 191.5v178c0 74.667 22 137.334 66 188.001s107 76 189 76
c60 0 111.167 -14.5 153.5 -43.5s72.5 -68.5 90.5 -118.5l-114 -45c-8.66699 28 -24.5 50.333 -47.5 67s-50.833 25 -83.5 25c-43.333 0 -76.333 -14 -99 -42s-34 -62 -34 -102v-188c0 -40.667 12 -75.834 36 -105.501s57.667 -44.5 101 -44.5zM293 -285h-59l37 98h-34v131
h129v-126z" />
    <glyph glyph-name="gcommaaccent" unicode="&#x123;" horiz-adv-x="522" 
d="M206 701l33.5 47l39.5 56h59c-8.66699 -21.333 -21 -54 -37 -98h34v-131h-129v126zM345 495l111.001 -0.000976562v-475c0 -148.667 -73.667 -223 -221 -223c-70 0 -127.333 20 -172 60l59 83c36.667 -26.667 77.334 -40 122.001 -40
c31.333 0 56.166 8.83301 74.499 26.5s27.5 42.834 27.5 75.501v46h-2c-30.667 -35.333 -70.334 -53 -119.001 -53c-121.333 0 -182 80.333 -182 241c0 176 61.667 264 185 264c50 0 88.333 -16.667 115 -50h2v45zM158.001 246.999c0 -21.333 1.00098 -39.333 3.00098 -54
s5.83301 -29.667 11.5 -45s15.167 -27 28.5 -35s30.333 -12 51 -12c62 0 93 48.667 93 146c0 18.667 -0.833008 34.667 -2.5 48s-5.16699 28.5 -10.5 45.5s-14.666 30.167 -27.999 39.5s-30.333 14 -51 14s-37.834 -4.33301 -51.501 -13s-23.334 -21 -29.001 -37
s-9.5 -31.167 -11.5 -45.5s-3 -31.5 -3 -51.5z" />
    <glyph glyph-name="Hcircumflex" unicode="&#x124;" horiz-adv-x="655" 
d="M582 0h-120v298h-268v-298h-121v696h121v-292h268v292h120v-696zM471 733l-147 82l-147 -82l-38 48l149 124h76l147 -123z" />
    <glyph glyph-name="hcircumflex" unicode="&#x125;" horiz-adv-x="529" 
d="M470 0h-112.999v294c0 66.667 -29.667 100 -89 100c-28 0 -51.167 -9 -69.5 -27s-27.5 -42.333 -27.5 -73v-294h-113v726h113v-279h3c15.333 16 34.666 28.833 57.999 38.5s46.333 14.5 69 14.5c49.333 0 89.833 -15.167 121.5 -45.5s47.5 -73.5 47.5 -129.5v-325z
M258.001 733l-147 82l-147 -82l-38 48l149 124h76l147 -123z" />
    <glyph glyph-name="Hbar" unicode="&#x126;" horiz-adv-x="655" 
d="M582 0h-120v298h-268v-298h-121v518h-50v77h50v101h121v-101h268v101h120v-101h51v-77h-51v-518zM194 404h268v114h-268v-114z" />
    <glyph glyph-name="hbar" unicode="&#x127;" horiz-adv-x="551" 
d="M494 0l-112.999 -0.000976562v284c0 66 -29.667 99 -89 99c-28 0 -51.167 -9.5 -69.5 -28.5s-27.5 -44.167 -27.5 -75.5v-279h-113v561h-68v80h68v85h113v-85h199v-80h-199v-124l3 -1c15.333 16.667 35.166 29.834 59.499 39.501s48.833 14.5 73.5 14.5
c48.667 0 88 -15.167 118 -45.5s45 -73.5 45 -129.5v-315z" />
    <glyph glyph-name="Itilde" unicode="&#x128;" horiz-adv-x="268" 
d="M196 0h-122v696h122v-696zM63 875c18 0 42.332 -8 72.999 -24s50.667 -24 60 -24c20.667 0 42 15.667 64 47l60 -35c-30.667 -66 -68.667 -99 -114 -99c-18 0 -42.667 7.66699 -74 23s-52.666 23 -63.999 23c-22 0 -45 -15 -69 -45l-57 33c32.667 67.333 73 101 121 101z
" />
    <glyph glyph-name="itilde" unicode="&#x129;" horiz-adv-x="338" 
d="M224 0h-115v495h115v-495zM101 705c18 0 42.332 -8 72.999 -24s50.667 -24 60 -24c20.667 0 42 15.667 64 47l60 -35c-30.667 -66 -68.667 -99 -114 -99c-18 0 -42.667 7.66699 -74 23s-52.666 23 -63.999 23c-22 0 -45 -15 -69 -45l-57 33c32.667 67.333 73 101 121 101
z" />
    <glyph glyph-name="Imacron" unicode="&#x12a;" horiz-adv-x="268" 
d="M196 0h-122v696h122v-696zM285 769h-301v97h301v-97z" />
    <glyph glyph-name="imacron" unicode="&#x12b;" horiz-adv-x="269" 
d="M193 0h-115v495h115v-495zM284 589h-301v97h301v-97z" />
    <glyph glyph-name="Ibreve" unicode="&#x12c;" horiz-adv-x="268" 
d="M136 731c-50 0 -86.8301 15 -110.497 45s-36.834 63.333 -39.501 100h87c0.666992 -15.333 6.66699 -30 18 -44s26.333 -21 45 -21c20 0 35.667 7 47 21s17 28.667 17 44h86c-2 -16 -5.66699 -31.667 -11 -47s-13.333 -30.833 -24 -46.5s-25.834 -28.167 -45.501 -37.5
s-42.834 -14 -69.501 -14zM196.003 0h-122v696h122v-696z" />
    <glyph glyph-name="ibreve" unicode="&#x12d;" horiz-adv-x="272" 
d="M196 0h-115v495h115v-495zM139 570c-50 0 -86.835 15.166 -110.502 45.499s-36.834 63.833 -39.501 100.5h87c0.666992 -15.333 6.66699 -30.166 18 -44.499s26.333 -21.5 45 -21.5c20 0 35.667 7 47 21s17 29 17 45h86c-1.33301 -12.667 -3.66602 -25 -6.99902 -37
s-8.66602 -24.833 -15.999 -38.5s-16.333 -25.5 -27 -35.5s-24.667 -18.333 -42 -25s-36.666 -10 -57.999 -10z" />
    <glyph glyph-name="Iogonek" unicode="&#x12e;" horiz-adv-x="268" 
d="M49 -98c0 28 13.333 60.668 40 98.001h-15v696h122v-696h-30c-25.333 -34.667 -38 -62.334 -38 -83.001c0 -23.333 13.333 -35 40 -35c18 0 38.333 4.66699 61 14l23 -60c-30.667 -18 -63 -27 -97 -27c-30.667 0 -56 9 -76 27s-30 40 -30 66z" />
    <glyph glyph-name="iogonek" unicode="&#x12f;" horiz-adv-x="247" 
d="M40 -97c0 27.333 13 59.667 39 97h-12v495h113v-495h-24c-24.667 -32.667 -37 -60 -37 -82c0 -23.333 13.333 -35 40 -35c18 0 38.333 4.66699 61 14l23 -60c-30.667 -18 -63 -27 -97 -27c-30.667 0 -56 9 -76 27s-30 40 -30 66zM180 592.001h-113v104h113v-104z" />
    <glyph glyph-name="Idotaccent" unicode="&#x130;" horiz-adv-x="268" 
d="M196 0h-122v696h122v-696zM193 758h-118v109h118v-109z" />
    <glyph glyph-name="dotlessi" unicode="&#x131;" horiz-adv-x="235" 
d="M175 0h-115v495h115v-495z" />
    <glyph glyph-name="IJ" unicode="&#x132;" horiz-adv-x="732" 
d="M196 0h-122v696h122v-696zM667 224c0 -80.667 -21.334 -139 -64.001 -175s-97.667 -54 -165 -54c-75.333 0 -138.666 28.667 -189.999 86l86 79c34 -36 67.667 -54 101 -54c74 0 111 40.667 111 122v468h121v-472z" />
    <glyph glyph-name="ij" unicode="&#x133;" horiz-adv-x="486" 
d="M180 592h-113v104h113v-104zM180 0h-113v495h113v-495zM411 592h-114v104h114v-104zM411 496v-555c0 -43.333 -12.5 -77.833 -37.5 -103.5s-61.167 -38.5 -108.5 -38.5h-52v100h28c37.333 0 56 19.667 56 59v538h114z" />
    <glyph glyph-name="Jcircumflex" unicode="&#x134;" horiz-adv-x="489" 
d="M424 225c0 -80.667 -21.334 -139 -64.001 -175s-97.667 -54 -165 -54c-75.333 0 -138.666 28.667 -189.999 86l86 79c34 -36 67.667 -54 101 -54c74 0 111 40.667 111 122v468h121v-472zM508.999 735l-147 82l-147 -82l-38 48l149 124h76l147 -123z" />
    <glyph glyph-name="jcircumflex" unicode="&#x135;" horiz-adv-x="325" 
d="M220 -59c0 -42 -14.332 -76.167 -42.999 -102.5s-65.334 -39.5 -110.001 -39.5h-45v100h32c17.333 0.666992 30.5 7.16699 39.5 19.5s13.5 26.833 13.5 43.5v534h113v-555zM299.001 537l-137.999 105.001c-9.33301 -6 -33.333 -23.833 -72 -53.5
s-61.334 -46.834 -68.001 -51.501l-46 43l148 154h79l145 -153z" />
    <glyph glyph-name="Kcommaaccent" unicode="&#x136;" horiz-adv-x="638" 
d="M645 0h-143l-195 324l-113 -131v-193h-121v696h122v-337l2 -1l117 143l164 195h144l-235 -278zM324 -265h-59l37 98h-34v131h129v-126z" />
    <glyph glyph-name="kcommaaccent" unicode="&#x137;" horiz-adv-x="520" 
d="M523 0l-132.001 -0.000976562l-73 111l-72 111c-0.666992 -1.33301 -10.167 -11.666 -28.5 -30.999s-32.166 -34.333 -41.499 -45v-146h-112v726h112v-435h3l96 110l86 94h138l-179 -193l90 -134.5zM266.999 -285.001h-59l37 98h-34v131h129v-126z" />
    <glyph glyph-name="kgreenlandic" unicode="&#x138;" horiz-adv-x="520" 
d="M523 0l-134.001 -0.000976562l-72 111l-71 111c-0.666992 -1.33301 -10.167 -11.666 -28.5 -30.999s-32.166 -34.333 -41.499 -45v-146h-112v495h112v-204h3l96 108l87 96h137l-179 -193l90 -134.5z" />
    <glyph glyph-name="Lacute" unicode="&#x139;" horiz-adv-x="564" 
d="M539 0h-466v696h121v-586h345v-110zM131 735l-47 56l165 125l74 -84z" />
    <glyph glyph-name="lacute" unicode="&#x13a;" horiz-adv-x="265" 
d="M245 0l-43 -0.000976562c-92 0 -138 43.667 -138 131v595h113v-578c0 -17.333 4 -29.666 12 -36.999s20 -11 36 -11h20v-100zM113 743.999l-47 56l165 125l74 -84z" />
    <glyph glyph-name="Lcommaaccent" unicode="&#x13b;" horiz-adv-x="564" 
d="M539 0h-466v696h121v-586h345v-110zM305 -285h-59l37 98h-34v131h129v-126z" />
    <glyph glyph-name="lcommaaccent" unicode="&#x13c;" horiz-adv-x="265" 
d="M245 0l-43 -0.000976562c-92 0 -138 43.667 -138 131v595h113v-578c0 -17.333 4 -29.666 12 -36.999s20 -11 36 -11h20v-100zM145 -283.001h-59l37 98h-34v131h129v-126z" />
    <glyph glyph-name="Lcaron" unicode="&#x13d;" horiz-adv-x="564" 
d="M539 0h-466v696h121v-586h345v-110zM384 467h-59l37 98h-34v131h129v-126z" />
    <glyph glyph-name="lcaron" unicode="&#x13e;" horiz-adv-x="374" 
d="M304 496h-59l37 98h-34v131h129v-126zM245 0l-43 -0.000976562c-92 0 -138 43.667 -138 131v595h113v-578c0 -17.333 4 -29.666 12 -36.999s20 -11 36 -11h20v-100z" />
    <glyph glyph-name="Ldot" unicode="&#x13f;" horiz-adv-x="564" 
d="M539 0h-466v696h121v-586h345v-110zM440 307h-118v109h118v-109z" />
    <glyph glyph-name="ldot" unicode="&#x140;" horiz-adv-x="371" 
d="M370 324h-118v109h118v-109zM245 0l-43 -0.000976562c-92 0 -138 43.667 -138 131v595h113v-578c0 -17.333 4 -29.666 12 -36.999s20 -11 36 -11h20v-100z" />
    <glyph glyph-name="Lslash" unicode="&#x141;" horiz-adv-x="596" 
d="M570 0h-466v224l-66 -38l-42 73l108 63v374h121v-304l108 63l42 -73l-150 -87v-185h345v-110z" />
    <glyph glyph-name="lslash" unicode="&#x142;" horiz-adv-x="343" 
d="M291 0l-43 -0.000976562c-92 0 -138 43.667 -138 131v143l-68 -39l-42 73l110 63v355h113v-290l79 46l41 -73l-120 -70v-191c0 -17.333 4 -29.666 12 -36.999s20 -11 36 -11h20v-100z" />
    <glyph glyph-name="Nacute" unicode="&#x143;" horiz-adv-x="692" 
d="M621 0h-112l-215 324l-97 159l-3 -1v-482h-121v696h112l195 -296l118 -188l2 2v482h121v-696zM303 735l-47 56l165 125l74 -84z" />
    <glyph glyph-name="nacute" unicode="&#x144;" horiz-adv-x="529" 
d="M470 0h-113v294c0 66.667 -30.333 100 -91 100c-28 0 -50.833 -9 -68.5 -27s-26.5 -42.333 -26.5 -73v-294h-113v496h113v-52h2c15.333 17.333 34.833 31 58.5 41s47.167 15 70.5 15c52 0 93 -15 123 -45s45 -73.333 45 -130v-325zM256 544l-68 25l79 190l107 -34z" />
    <glyph glyph-name="Ncommaaccent" unicode="&#x145;" horiz-adv-x="692" 
d="M621 0h-112l-215 324l-97 159l-3 -1v-482h-121v696h112l195 -296l118 -188l2 2v482h121v-696zM338 -265h-59l37 98h-34v131h129v-126z" />
    <glyph glyph-name="ncommaaccent" unicode="&#x146;" horiz-adv-x="529" 
d="M470 0h-113v294c0 66.667 -30.333 100 -91 100c-28 0 -50.833 -9 -68.5 -27s-26.5 -42.333 -26.5 -73v-294h-113v496h113v-52h2c15.333 17.333 34.833 31 58.5 41s47.167 15 70.5 15c52 0 93 -15 123 -45s45 -73.333 45 -130v-325zM255 -285h-59l37 98h-34v131h129v-126z
" />
    <glyph glyph-name="Ncaron" unicode="&#x147;" horiz-adv-x="692" 
d="M621 0h-112l-215 324l-97 159l-3 -1v-482h-121v696h112l195 -296l118 -188l2 2v482h121v-696zM344 826l146 82l41 -49l-147 -124h-76l-150 125l39 48z" />
    <glyph glyph-name="ncaron" unicode="&#x148;" horiz-adv-x="529" 
d="M470 0h-113v294c0 66.667 -30.333 100 -91 100c-28 0 -50.833 -9 -68.5 -27s-26.5 -42.333 -26.5 -73v-294h-113v496h113v-52h2c15.333 17.333 34.833 31 58.5 41s47.167 15 70.5 15c52 0 93 -15 123 -45s45 -73.333 45 -130v-325zM257 629l138.999 105.001l48 -44
l-146 -153h-78l-149 154l46 43c9.33301 -6 33.333 -23.833 72 -53.5s61.334 -46.834 68.001 -51.501z" />
    <glyph glyph-name="napostrophe" unicode="&#x149;" horiz-adv-x="624" 
d="M565 0h-113v294c0 66.667 -30.333 100 -91 100c-28 0 -50.833 -9 -68.5 -27s-26.5 -42.333 -26.5 -73v-294h-113v496h113v-52h2c15.333 17.333 34.833 31 58.5 41s47.167 15 70.5 15c52 0 93 -15 123 -45s45 -73.333 45 -130v-325zM53 442h-59l37 98h-34v131h129v-126z
" />
    <glyph glyph-name="Eng" unicode="&#x14a;" horiz-adv-x="692" 
d="M621 696v-765c0 -36 -10.667 -64.167 -32 -84.5s-50.333 -30.5 -87 -30.5c-34 0 -66.667 7.66699 -98 23l27 78c19.333 -5.33301 34 -8 44 -8c22.667 0 34 13.333 34 40v52l-215 323l-97 159l-3 -1v-482h-121v696h112l195 -296l118 -188l2 2v482h121z" />
    <glyph glyph-name="eng" unicode="&#x14b;" horiz-adv-x="529" 
d="M470 -69c0 -36 -10.6689 -64.167 -32.002 -84.5s-50.333 -30.5 -87 -30.5c-34 0 -66.667 7.66699 -98 23l26 78c19.333 -5.33301 34.333 -8 45 -8c22 0 33 13.333 33 40v345c0 32 -7.83301 56.5 -23.5 73.5s-38.5 25.5 -68.5 25.5
c-27.333 0 -49.833 -8.83301 -67.5 -26.5s-26.5 -41.834 -26.5 -72.501v-294h-113v495h113v-50h3c32.667 36.667 74.334 55 125.001 55s91.834 -15.167 123.501 -45.5s47.5 -73.166 47.5 -128.499v-395z" />
    <glyph glyph-name="Omacron" unicode="&#x14c;" horiz-adv-x="610" 
d="M304 701c78.667 0 141.667 -24.6689 189 -74.002s71 -112.666 71 -189.999v-178c0 -80.667 -23.5 -145 -70.5 -193s-110.167 -72 -189.5 -72c-82.667 0 -146.5 25.333 -191.5 76s-67.5 113.667 -67.5 189v178c0 74.667 22.5 137.334 67.5 188.001s108.833 76 191.5 76z
M304 586.998c-44 0 -77.833 -14.1689 -101.5 -42.502s-35.5 -62.166 -35.5 -101.499v-187c0 -41.333 11.833 -76.5 35.5 -105.5s57.5 -43.5 101.5 -43.5c41.333 0 74.5 14 99.5 42s37.5 63.667 37.5 107v187c0 40.667 -12.333 74.834 -37 102.501s-58 41.5 -100 41.5z
M460 768.996h-301v97h301v-97z" />
    <glyph glyph-name="omacron" unicode="&#x14d;" horiz-adv-x="515" 
d="M264 501c77.333 0 134.667 -27.6689 172 -83.002c25.333 -39.333 37.333 -93.666 36 -162.999c0 -72.667 -11.333 -128.667 -34 -168c-18.667 -30.667 -44.334 -54 -77.001 -70s-69 -24 -109 -24c-78.667 0 -135.667 26 -171 78
c-27.333 40.667 -40.333 99.334 -39 176.001c0 59.333 8.33301 106 25 140c16.667 36 42.334 64 77.001 84s74.667 30 120 30zM260.001 398.998c-40.667 0 -69.667 -18.666 -87 -55.999c-10 -22 -15.667 -54.333 -17 -97c0 -43.333 5 -75 15 -95c16 -36.667 44 -55 84 -55
c47.333 0 78.333 23.667 93 71c6 19.333 9 48.666 9 87.999c0 38.667 -4.33301 67.667 -13 87c-14.667 38 -42.667 57 -84 57zM411.001 588.999h-301v97h301v-97z" />
    <glyph glyph-name="Obreve" unicode="&#x14e;" horiz-adv-x="610" 
d="M304 701c78.667 0 141.667 -24.6689 189 -74.002s71 -112.666 71 -189.999v-178c0 -80.667 -23.5 -145 -70.5 -193s-110.167 -72 -189.5 -72c-82.667 0 -146.5 25.333 -191.5 76s-67.5 113.667 -67.5 189v178c0 74.667 22.5 137.334 67.5 188.001s108.833 76 191.5 76z
M304 586.998c-44 0 -77.833 -14.1689 -101.5 -42.502s-35.5 -62.166 -35.5 -101.499v-187c0 -41.333 11.833 -76.5 35.5 -105.5s57.5 -43.5 101.5 -43.5c41.333 0 74.5 14 99.5 42s37.5 63.667 37.5 107v187c0 40.667 -12.333 74.834 -37 102.501s-58 41.5 -100 41.5z
M306 730.996c-50 0 -86.8301 15 -110.497 45s-36.834 63.333 -39.501 100h87c0.666992 -15.333 6.66699 -30 18 -44s26.333 -21 45 -21c20 0 35.667 7 47 21s17 28.667 17 44h86c-2 -16 -5.66699 -31.667 -11 -47s-13.333 -30.833 -24 -46.5s-25.834 -28.167 -45.501 -37.5
s-42.834 -14 -69.501 -14z" />
    <glyph glyph-name="obreve" unicode="&#x14f;" horiz-adv-x="515" 
d="M264 501c77.333 0 134.667 -27.6689 172 -83.002c25.333 -39.333 37.333 -93.666 36 -162.999c0 -72.667 -11.333 -128.667 -34 -168c-18.667 -30.667 -44.334 -54 -77.001 -70s-69 -24 -109 -24c-78.667 0 -135.667 26 -171 78
c-27.333 40.667 -40.333 99.334 -39 176.001c0 59.333 8.33301 106 25 140c16.667 36 42.334 64 77.001 84s74.667 30 120 30zM260.001 398.998c-40.667 0 -69.667 -18.666 -87 -55.999c-10 -22 -15.667 -54.333 -17 -97c0 -43.333 5 -75 15 -95c16 -36.667 44 -55 84 -55
c47.333 0 78.333 23.667 93 71c6 19.333 9 48.666 9 87.999c0 38.667 -4.33301 67.667 -13 87c-14.667 38 -42.667 57 -84 57zM260.001 563.999c-50 0 -86.835 15.166 -110.502 45.499s-36.834 63.833 -39.501 100.5h87c0.666992 -15.333 6.66699 -30.166 18 -44.499
s26.333 -21.5 45 -21.5c20 0 35.667 7 47 21s17 29 17 45h86c-1.33301 -12.667 -3.66602 -25 -6.99902 -37s-8.66602 -24.833 -15.999 -38.5s-16.333 -25.5 -27 -35.5s-24.667 -18.333 -42 -25s-36.666 -10 -57.999 -10z" />
    <glyph glyph-name="Ohungarumlaut" unicode="&#x150;" horiz-adv-x="610" 
d="M304 701c78.667 0 141.667 -24.6689 189 -74.002s71 -112.666 71 -189.999v-178c0 -80.667 -23.5 -145 -70.5 -193s-110.167 -72 -189.5 -72c-82.667 0 -146.5 25.333 -191.5 76s-67.5 113.667 -67.5 189v178c0 74.667 22.5 137.334 67.5 188.001s108.833 76 191.5 76z
M304 586.998c-44 0 -77.833 -14.1689 -101.5 -42.502s-35.5 -62.166 -35.5 -101.499v-187c0 -41.333 11.833 -76.5 35.5 -105.5s57.5 -43.5 101.5 -43.5c41.333 0 74.5 14 99.5 42s37.5 63.667 37.5 107v187c0 40.667 -12.333 74.834 -37 102.501s-58 41.5 -100 41.5z
M192 729.996l-51 52l154 137l82 -78zM379 729.996l-51 52l154 137l82 -78z" />
    <glyph glyph-name="ohungarumlaut" unicode="&#x151;" horiz-adv-x="515" 
d="M264 501c77.333 0 134.667 -27.6689 172 -83.002c25.333 -39.333 37.333 -93.666 36 -162.999c0 -72.667 -11.333 -128.667 -34 -168c-18.667 -30.667 -44.334 -54 -77.001 -70s-69 -24 -109 -24c-78.667 0 -135.667 26 -171 78
c-27.333 40.667 -40.333 99.334 -39 176.001c0 59.333 8.33301 106 25 140c16.667 36 42.334 64 77.001 84s74.667 30 120 30zM260.001 398.998c-40.667 0 -69.667 -18.666 -87 -55.999c-10 -22 -15.667 -54.333 -17 -97c0 -43.333 5 -75 15 -95c16 -36.667 44 -55 84 -55
c47.333 0 78.333 23.667 93 71c6 19.333 9 48.666 9 87.999c0 38.667 -4.33301 67.667 -13 87c-14.667 38 -42.667 57 -84 57zM202.001 543.999l-68 25l79 190l107 -34zM361.001 543.999l-68 25l78 190l107 -34z" />
    <glyph glyph-name="OE" unicode="&#x152;" horiz-adv-x="847" 
d="M821 0l-459.001 -0.000976562c-20 -4 -41 -6 -63 -6c-172 0 -258 83.333 -258 250v193c0 74.667 22.333 137.334 67 188.001s108.334 76 191.001 76c17.333 0 36 -1.66699 56 -5h466v-110h-345v-183h294v-105h-294v-189h345v-109zM298.999 106.999
c20.667 0 39.333 3.66699 56 11v458c-18 7.33301 -36.667 11 -56 11c-33.333 0 -60.833 -8.66699 -82.5 -26s-36.167 -37.833 -43.5 -61.5s-11 -50.5 -11 -80.5v-163c0 -99.333 45.667 -149 137 -149z" />
    <glyph glyph-name="oe" unicode="&#x153;" horiz-adv-x="835" 
d="M258 500c73.333 0 126.001 -25.333 158.001 -76v-1c33.333 51.333 85.333 77 156 77c66 0 118.5 -21.333 157.5 -64s58.5 -100 58.5 -172v-49h-316c1.33301 -38.667 11.5 -68.167 30.5 -88.5s45.5 -30.5 79.5 -30.5c41.333 0 78.666 15.333 111.999 46l70 -78
c-49.333 -46.667 -110.333 -70 -183 -70c-74.667 0 -130.667 26.333 -168 79c-35.333 -52.667 -89.666 -79 -162.999 -79c-78.667 0 -135.334 25.667 -170.001 77c-27.333 39.333 -41 95.333 -41 168c0 62.667 8 111.667 24 147c16.667 36 42 64 76 84s73.667 30 119 30z
M255.001 399c-41.333 0 -70.668 -18.667 -88.001 -56c-10 -22 -15 -54.667 -15 -98c0 -42.667 5 -74.334 15 -95.001c16.667 -36 45.334 -54 86.001 -54c48 0 79.333 23.667 94 71c5.33301 16.667 8 43.334 8 80.001c0 41.333 -4.66699 73 -14 95c-15.333 38 -44 57 -86 57z
M668.999 295c-2 33.333 -11.832 59 -29.499 77s-39.834 27 -66.501 27s-49 -9.33301 -67 -28s-28.333 -44 -31 -76h194z" />
    <glyph glyph-name="Racute" unicode="&#x154;" horiz-adv-x="625" 
d="M580 0h-136.001l-121 287h-129v-287h-121v696h296c60.667 0 111.334 -18.167 152.001 -54.5s61 -84.833 61 -145.5c0 -44 -12.167 -82.833 -36.5 -116.5s-58.5 -58.5 -102.5 -74.5zM457.999 496c0 31.333 -9.66797 54.667 -29.001 70s-45.666 23 -78.999 23h-156v-194
h152c33.333 0 60.333 8.83301 81 26.5s31 42.5 31 74.5zM252.998 735.001l-47 56l165 125l74 -84z" />
    <glyph glyph-name="racute" unicode="&#x155;" horiz-adv-x="388" 
d="M270 395c-28 0 -50.5 -8.5 -67.5 -25.5s-25.5 -41.167 -25.5 -72.5v-298h-113v496h111v-59h4c30 42.667 70 64 120 64c38 0 69.333 -8.66699 94 -26l-42 -102c-25.333 15.333 -52.333 23 -81 23zM208 544l-68 25l79 190l107 -34z" />
    <glyph glyph-name="Rcommaaccent" unicode="&#x156;" horiz-adv-x="625" 
d="M580 0h-136.001l-121 287h-129v-287h-121v696h296c60.667 0 111.334 -18.167 152.001 -54.5s61 -84.833 61 -145.5c0 -44 -12.167 -82.833 -36.5 -116.5s-58.5 -58.5 -102.5 -74.5zM457.999 496c0 31.333 -9.66797 54.667 -29.001 70s-45.666 23 -78.999 23h-156v-194
h152c33.333 0 60.333 8.83301 81 26.5s31 42.5 31 74.5zM307.998 -264.999h-59l37 98h-34v131h129v-126z" />
    <glyph glyph-name="rcommaaccent" unicode="&#x157;" horiz-adv-x="388" 
d="M270 395c-28 0 -50.5 -8.5 -67.5 -25.5s-25.5 -41.167 -25.5 -72.5v-298h-113v496h111v-59h4c30 42.667 70 64 120 64c38 0 69.333 -8.66699 94 -26l-42 -102c-25.333 15.333 -52.333 23 -81 23zM114 -285h-59l37 98h-34v131h129v-126z" />
    <glyph glyph-name="Rcaron" unicode="&#x158;" horiz-adv-x="625" 
d="M580 0h-136.001l-121 287h-129v-287h-121v696h296c60.667 0 111.334 -18.167 152.001 -54.5s61 -84.833 61 -145.5c0 -44 -12.167 -82.833 -36.5 -116.5s-58.5 -58.5 -102.5 -74.5zM457.999 496c0 31.333 -9.66797 54.667 -29.001 70s-45.666 23 -78.999 23h-156v-194
h152c33.333 0 60.333 8.83301 81 26.5s31 42.5 31 74.5zM277.998 826.001l146 82l41 -49l-147 -124h-76l-150 125l39 48z" />
    <glyph glyph-name="rcaron" unicode="&#x159;" horiz-adv-x="388" 
d="M270 395c-28 0 -50.5 -8.5 -67.5 -25.5s-25.5 -41.167 -25.5 -72.5v-298h-113v496h111v-59h4c30 42.667 70 64 120 64c38 0 69.333 -8.66699 94 -26l-42 -102c-25.333 15.333 -52.333 23 -81 23zM196 629l138.999 105.001l48 -44l-146 -153h-78l-149 154l46 43
c9.33301 -6 33.333 -23.833 72 -53.5s61.334 -46.834 68.001 -51.501z" />
    <glyph glyph-name="Sacute" unicode="&#x15a;" horiz-adv-x="569" 
d="M518 637l-59.9971 -100.001c-52.667 34.667 -110 52 -172 52c-40 0 -69.667 -8 -89 -24s-29 -37.333 -29 -64c0 -27.333 12.167 -47.166 36.5 -59.499s68.833 -24.166 133.5 -35.499c29.333 -5.33301 54.666 -11.833 75.999 -19.5s42.5 -18.667 63.5 -33
s37.167 -33.833 48.5 -58.5s17 -54.334 17 -89.001c0 -65.333 -25.167 -117 -75.5 -155s-112.5 -57 -186.5 -57c-112 0 -204 32 -276 96l73 94c56 -51.333 125.667 -77 209 -77c39.333 0 70.666 8.16699 93.999 24.5s35 39.833 35 70.5c0 27.333 -10.167 48.333 -30.5 63
s-52.5 25.334 -96.5 32.001c-28.667 4 -52.834 8.16699 -72.501 12.5s-41 11.333 -64 21s-41.5 21.167 -55.5 34.5s-25.667 31.166 -35 53.499s-14 48.5 -14 78.5c0 65.333 23.167 115.833 69.5 151.5s101.833 53.5 166.5 53.5c95.333 0 173.333 -21.667 234 -65z
M260.003 734.999l-47 56l165 125l74 -84z" />
    <glyph glyph-name="sacute" unicode="&#x15b;" horiz-adv-x="463" 
d="M433 151c0 -48 -19.3311 -86.166 -57.998 -114.499s-86.667 -42.5 -144 -42.5c-86.667 0 -158.334 25 -215.001 75l61 81c42.667 -39.333 95.667 -59 159 -59c24.667 0 45.167 5.16699 61.5 15.5s24.5 24.166 24.5 41.499c0 16.667 -7 29.334 -21 38.001
s-36.333 14.667 -67 18c-22 2.66699 -40 5.16699 -54 7.5s-30.5 6.83301 -49.5 13.5s-33.833 14.5 -44.5 23.5s-20 21.833 -28 38.5s-12 36 -12 58c0 48.667 17.667 86.667 53 114s79.333 41 132 41c77.333 0 140.666 -18.667 189.999 -56l-54 -86
c-43.333 28.667 -88 43 -134 43c-25.333 0 -45 -5 -59 -15s-21 -22.667 -21 -38c0 -16 9 -27.833 27 -35.5s48.333 -13.834 91 -18.501c108 -12 162 -59.667 162 -143zM256.002 544.001l-68 25l79 190l107 -34z" />
    <glyph glyph-name="Scircumflex" unicode="&#x15c;" horiz-adv-x="569" 
d="M518 637l-59.9971 -100.001c-52.667 34.667 -110 52 -172 52c-40 0 -69.667 -8 -89 -24s-29 -37.333 -29 -64c0 -27.333 12.167 -47.166 36.5 -59.499s68.833 -24.166 133.5 -35.499c29.333 -5.33301 54.666 -11.833 75.999 -19.5s42.5 -18.667 63.5 -33
s37.167 -33.833 48.5 -58.5s17 -54.334 17 -89.001c0 -65.333 -25.167 -117 -75.5 -155s-112.5 -57 -186.5 -57c-112 0 -204 32 -276 96l73 94c56 -51.333 125.667 -77 209 -77c39.333 0 70.666 8.16699 93.999 24.5s35 39.833 35 70.5c0 27.333 -10.167 48.333 -30.5 63
s-52.5 25.334 -96.5 32.001c-28.667 4 -52.834 8.16699 -72.501 12.5s-41 11.333 -64 21s-41.5 21.167 -55.5 34.5s-25.667 31.166 -35 53.499s-14 48.5 -14 78.5c0 65.333 23.167 115.833 69.5 151.5s101.833 53.5 166.5 53.5c95.333 0 173.333 -21.667 234 -65z
M440.003 732.999l-147 82l-147 -82l-38 48l149 124h76l147 -123z" />
    <glyph glyph-name="scircumflex" unicode="&#x15d;" horiz-adv-x="463" 
d="M433 151c0 -48 -19.3311 -86.166 -57.998 -114.499s-86.667 -42.5 -144 -42.5c-86.667 0 -158.334 25 -215.001 75l61 81c42.667 -39.333 95.667 -59 159 -59c24.667 0 45.167 5.16699 61.5 15.5s24.5 24.166 24.5 41.499c0 16.667 -7 29.334 -21 38.001
s-36.333 14.667 -67 18c-22 2.66699 -40 5.16699 -54 7.5s-30.5 6.83301 -49.5 13.5s-33.833 14.5 -44.5 23.5s-20 21.833 -28 38.5s-12 36 -12 58c0 48.667 17.667 86.667 53 114s79.333 41 132 41c77.333 0 140.666 -18.667 189.999 -56l-54 -86
c-43.333 28.667 -88 43 -134 43c-25.333 0 -45 -5 -59 -15s-21 -22.667 -21 -38c0 -16 9 -27.833 27 -35.5s48.333 -13.834 91 -18.501c108 -12 162 -59.667 162 -143zM382.002 537.001l-138.999 105.001c-6.66699 -4.66699 -29.334 -21.834 -68.001 -51.501
s-62.667 -47.5 -72 -53.5l-46 43l149 154h78l146 -153z" />
    <glyph glyph-name="Scedilla" unicode="&#x15e;" horiz-adv-x="569" 
d="M518 637l-59.9971 -100.001c-52.667 34.667 -110 52 -172 52c-40 0 -69.667 -8 -89 -24s-29 -37.333 -29 -64c0 -27.333 12.167 -47.166 36.5 -59.499s68.833 -24.166 133.5 -35.499c29.333 -5.33301 54.666 -11.833 75.999 -19.5s42.5 -18.667 63.5 -33
s37.167 -33.833 48.5 -58.5s17 -54.334 17 -89.001c0 -61.333 -22.333 -110.666 -67 -147.999s-101 -58.333 -169 -63c-2.66699 -6.66699 -6 -17.334 -10 -32.001c33.333 -2.66699 58 -12.5 74 -29.5s24 -36.167 24 -57.5c0 -23.333 -10 -44 -30 -62s-48 -27 -84 -27
c-37.333 0 -70.666 8 -99.999 24l21 52c23.333 -10.667 47.333 -16 72 -16c29.333 0 44 11 44 33c0 21.333 -14.333 32 -43 32c-4.66699 0 -10.334 -0.666992 -17.001 -2l-30 20l20 65c-98.667 6 -179.667 37.667 -243 95l73 94c56 -51.333 125.667 -77 209 -77
c39.333 0 70.666 8.16699 93.999 24.5s35 39.833 35 70.5c0 27.333 -10.167 48.333 -30.5 63s-52.5 25.334 -96.5 32.001c-28.667 4 -52.834 8.16699 -72.501 12.5s-41 11.333 -64 21s-41.5 21.167 -55.5 34.5s-25.667 31.166 -35 53.499s-14 48.5 -14 78.5
c0 65.333 23.167 115.833 69.5 151.5s101.833 53.5 166.5 53.5c95.333 0 173.333 -21.667 234 -65z" />
    <glyph glyph-name="scedilla" unicode="&#x15f;" horiz-adv-x="463" 
d="M433 151c0 -44 -15.832 -79.666 -47.499 -106.999s-72.5 -43.333 -122.5 -48c-2.66699 -7.33301 -6 -18.333 -10 -33c33.333 -2.66699 58 -12.5 74 -29.5s24 -36.167 24 -57.5c0 -23.333 -10 -44 -30 -62s-48 -27 -84 -27c-37.333 0 -70.666 8 -99.999 24l21 52
c23.333 -10.667 47.333 -16 72 -16c29.333 0 44 11 44 33c0 21.333 -14.333 32 -43 32c-4.66699 0 -10.334 -0.666992 -17.001 -2l-30 20l20 65c-73.333 3.33301 -136 28 -188 74l61 81c42.667 -39.333 95.667 -59 159 -59c24.667 0 45.167 5.16699 61.5 15.5
s24.5 24.166 24.5 41.499c0 16.667 -7 29.334 -21 38.001s-36.333 14.667 -67 18c-22 2.66699 -40 5.16699 -54 7.5s-30.5 6.83301 -49.5 13.5s-33.833 14.5 -44.5 23.5s-20 21.833 -28 38.5s-12 36 -12 58c0 48.667 17.667 86.667 53 114s79.333 41 132 41
c77.333 0 140.666 -18.667 189.999 -56l-54 -86c-43.333 28.667 -88 43 -134 43c-25.333 0 -45 -5 -59 -15s-21 -22.667 -21 -38c0 -16 9 -27.833 27 -35.5s48.333 -13.834 91 -18.501c108 -12 162 -59.667 162 -143z" />
    <glyph glyph-name="Scaron" unicode="&#x160;" horiz-adv-x="569" 
d="M518 637l-59.9971 -100.001c-52.667 34.667 -110 52 -172 52c-40 0 -69.667 -8 -89 -24s-29 -37.333 -29 -64c0 -27.333 12.167 -47.166 36.5 -59.499s68.833 -24.166 133.5 -35.499c29.333 -5.33301 54.666 -11.833 75.999 -19.5s42.5 -18.667 63.5 -33
s37.167 -33.833 48.5 -58.5s17 -54.334 17 -89.001c0 -65.333 -25.167 -117 -75.5 -155s-112.5 -57 -186.5 -57c-112 0 -204 32 -276 96l73 94c56 -51.333 125.667 -77 209 -77c39.333 0 70.666 8.16699 93.999 24.5s35 39.833 35 70.5c0 27.333 -10.167 48.333 -30.5 63
s-52.5 25.334 -96.5 32.001c-28.667 4 -52.834 8.16699 -72.501 12.5s-41 11.333 -64 21s-41.5 21.167 -55.5 34.5s-25.667 31.166 -35 53.499s-14 48.5 -14 78.5c0 65.333 23.167 115.833 69.5 151.5s101.833 53.5 166.5 53.5c95.333 0 173.333 -21.667 234 -65z
M295.003 825.999l146 82l41 -49l-147 -124h-76l-150 125l39 48z" />
    <glyph glyph-name="scaron" unicode="&#x161;" horiz-adv-x="463" 
d="M433 151c0 -48 -19.3311 -86.166 -57.998 -114.499s-86.667 -42.5 -144 -42.5c-86.667 0 -158.334 25 -215.001 75l61 81c42.667 -39.333 95.667 -59 159 -59c24.667 0 45.167 5.16699 61.5 15.5s24.5 24.166 24.5 41.499c0 16.667 -7 29.334 -21 38.001
s-36.333 14.667 -67 18c-22 2.66699 -40 5.16699 -54 7.5s-30.5 6.83301 -49.5 13.5s-33.833 14.5 -44.5 23.5s-20 21.833 -28 38.5s-12 36 -12 58c0 48.667 17.667 86.667 53 114s79.333 41 132 41c77.333 0 140.666 -18.667 189.999 -56l-54 -86
c-43.333 28.667 -88 43 -134 43c-25.333 0 -45 -5 -59 -15s-21 -22.667 -21 -38c0 -16 9 -27.833 27 -35.5s48.333 -13.834 91 -18.501c108 -12 162 -59.667 162 -143zM238.002 629.001l138.999 105.001l48 -44l-146 -153h-78l-149 154l46 43
c9.33301 -6 33.333 -23.833 72 -53.5s61.334 -46.834 68.001 -51.501z" />
    <glyph glyph-name="Tcommaaccent" unicode="&#x162;" horiz-adv-x="521" 
d="M513 588h-194v-588h-121v588h-193v108h508v-108zM252 -285h-59l37 98h-34v131h129v-126z" />
    <glyph glyph-name="tcommaaccent" unicode="&#x163;" horiz-adv-x="316" 
d="M285 0h-68c-37.333 0 -67.833 11 -91.5 33s-35.5 52.333 -35.5 91v280h-57v92h58v129h110v-129h76v-92h-75v-249c0 -37.333 15.333 -56 46 -56h37v-99zM154 -285h-59l37 98h-34v131h129v-126z" />
    <glyph glyph-name="Tcaron" unicode="&#x164;" horiz-adv-x="521" 
d="M513 588h-194v-588h-121v588h-193v108h508v-108zM258 826l146 82l41 -49l-147 -124h-76l-150 125l39 48z" />
    <glyph glyph-name="tcaron" unicode="&#x165;" horiz-adv-x="385" 
d="M323 554h-59l37 98h-34v131h129v-126zM285 0h-68c-37.333 0 -67.833 11 -91.5 33s-35.5 52.333 -35.5 91v280h-57v92h58v129h110v-129h76v-92h-75v-249c0 -37.333 15.333 -56 46 -56h37v-99z" />
    <glyph glyph-name="Tbar" unicode="&#x166;" horiz-adv-x="521" 
d="M513 588h-194v-185h153v-85h-153v-318h-121v318h-153v85h153v185h-193v108h508v-108z" />
    <glyph glyph-name="tbar" unicode="&#x167;" horiz-adv-x="316" 
d="M285 0h-68c-37.333 0 -67.833 11 -91.5 33s-35.5 52.333 -35.5 91v107h-55v80h55v93h-57v92h58v129h110v-129h76v-92h-75v-93h76v-80h-76v-76c0 -37.333 15.333 -56 46 -56h37v-99z" />
    <glyph glyph-name="Utilde" unicode="&#x168;" horiz-adv-x="638" 
d="M579 247c0 -75.333 -24.333 -136.167 -73 -182.5s-111 -69.5 -187 -69.5c-78 0 -140.667 24.167 -188 72.5s-71 109.833 -71 184.5v444h120v-435c0 -44 12.667 -80.5 38 -109.5s59.333 -43.5 102 -43.5c42 0 75.333 12.833 100 38.5s37 62.167 37 109.5v440h122v-449z
M251 874.999c18 0 42.332 -8 72.999 -24s50.667 -24 60 -24c20.667 0 42 15.667 64 47l60 -35c-30.667 -66 -68.667 -99 -114 -99c-18 0 -42.667 7.66699 -74 23s-52.666 23 -63.999 23c-22 0 -45 -15 -69 -45l-57 33c32.667 67.333 73 101 121 101z" />
    <glyph glyph-name="utilde" unicode="&#x169;" horiz-adv-x="533" 
d="M59 495h112v-295c0 -34.667 7.16699 -60.167 21.5 -76.5s37.833 -24.5 70.5 -24.5c27.333 0 50 9.16699 68 27.5s27 42.833 27 73.5v295h113v-495h-113v49h-3c-30 -36.667 -72 -55 -126 -55c-53.333 0 -95 14.667 -125 44s-45 73.333 -45 132v325zM190 705
c18 0 42.332 -8 72.999 -24s50.667 -24 60 -24c20.667 0 42 15.667 64 47l60 -35c-30.667 -66 -68.667 -99 -114 -99c-18 0 -42.667 7.66699 -74 23s-52.666 23 -63.999 23c-22 0 -45 -15 -69 -45l-57 33c32.667 67.333 73 101 121 101z" />
    <glyph glyph-name="Umacron" unicode="&#x16a;" horiz-adv-x="638" 
d="M579 247c0 -75.333 -24.333 -136.167 -73 -182.5s-111 -69.5 -187 -69.5c-78 0 -140.667 24.167 -188 72.5s-71 109.833 -71 184.5v444h120v-435c0 -44 12.667 -80.5 38 -109.5s59.333 -43.5 102 -43.5c42 0 75.333 12.833 100 38.5s37 62.167 37 109.5v440h122v-449z
M466 768.999h-301v97h301v-97z" />
    <glyph glyph-name="umacron" unicode="&#x16b;" horiz-adv-x="533" 
d="M59 495h112v-295c0 -34.667 7.16699 -60.167 21.5 -76.5s37.833 -24.5 70.5 -24.5c27.333 0 50 9.16699 68 27.5s27 42.833 27 73.5v295h113v-495h-113v49h-3c-30 -36.667 -72 -55 -126 -55c-53.333 0 -95 14.667 -125 44s-45 73.333 -45 132v325zM420 589h-301v97h301
v-97z" />
    <glyph glyph-name="Ubreve" unicode="&#x16c;" horiz-adv-x="638" 
d="M579 247c0 -75.333 -24.333 -136.167 -73 -182.5s-111 -69.5 -187 -69.5c-78 0 -140.667 24.167 -188 72.5s-71 109.833 -71 184.5v444h120v-435c0 -44 12.667 -80.5 38 -109.5s59.333 -43.5 102 -43.5c42 0 75.333 12.833 100 38.5s37 62.167 37 109.5v440h122v-449z
M322 713.999c-50 0 -86.835 15.166 -110.502 45.499s-36.834 63.833 -39.501 100.5h87c0.666992 -15.333 6.66699 -30.166 18 -44.499s26.333 -21.5 45 -21.5c20 0 35.667 7 47 21s17 29 17 45h86c-1.33301 -12.667 -3.66602 -25 -6.99902 -37
s-8.66602 -24.833 -15.999 -38.5s-16.333 -25.5 -27 -35.5s-24.667 -18.333 -42 -25s-36.666 -10 -57.999 -10z" />
    <glyph glyph-name="ubreve" unicode="&#x16d;" horiz-adv-x="533" 
d="M59 495h112v-295c0 -34.667 7.16699 -60.167 21.5 -76.5s37.833 -24.5 70.5 -24.5c27.333 0 50 9.16699 68 27.5s27 42.833 27 73.5v295h113v-495h-113v49h-3c-30 -36.667 -72 -55 -126 -55c-53.333 0 -95 14.667 -125 44s-45 73.333 -45 132v325zM267 564
c-50 0 -86.835 15.166 -110.502 45.499s-36.834 63.833 -39.501 100.5h87c0.666992 -15.333 6.66699 -30.166 18 -44.499s26.333 -21.5 45 -21.5c20 0 35.667 7 47 21s17 29 17 45h86c-1.33301 -12.667 -3.66602 -25 -6.99902 -37s-8.66602 -24.833 -15.999 -38.5
s-16.333 -25.5 -27 -35.5s-24.667 -18.333 -42 -25s-36.666 -10 -57.999 -10z" />
    <glyph glyph-name="Uring" unicode="&#x16e;" horiz-adv-x="638" 
d="M579 247c0 -75.333 -24.333 -136.167 -73 -182.5s-111 -69.5 -187 -69.5c-78 0 -140.667 24.167 -188 72.5s-71 109.833 -71 184.5v444h120v-435c0 -44 12.667 -80.5 38 -109.5s59.333 -43.5 102 -43.5c42 0 75.333 12.833 100 38.5s37 62.167 37 109.5v440h122v-449z
M368 808.999c0 12.667 -4.5 23.5 -13.5 32.5s-20.167 13.5 -33.5 13.5s-24.666 -4.5 -33.999 -13.5s-14 -19.833 -14 -32.5s4.66699 -23.5 14 -32.5s20.666 -13.5 33.999 -13.5c12.667 0 23.667 4.5 33 13.5s14 19.833 14 32.5zM209 808.999c0 30 10.833 55.5 32.5 76.5
s48.167 31.5 79.5 31.5c30.667 0 56.834 -10.5 78.501 -31.5s32.5 -46.5 32.5 -76.5c0 -29.333 -10.833 -54.5 -32.5 -75.5s-47.834 -31.5 -78.501 -31.5s-57 10.5 -79 31.5s-33 46.167 -33 75.5z" />
    <glyph glyph-name="uring" unicode="&#x16f;" horiz-adv-x="533" 
d="M59 495h112v-295c0 -34.667 7.16699 -60.167 21.5 -76.5s37.833 -24.5 70.5 -24.5c27.333 0 50 9.16699 68 27.5s27 42.833 27 73.5v295h113v-495h-113v49h-3c-30 -36.667 -72 -55 -126 -55c-53.333 0 -95 14.667 -125 44s-45 73.333 -45 132v325zM314 643
c0 12.667 -4.5 23.5 -13.5 32.5s-20.167 13.5 -33.5 13.5s-24.666 -4.5 -33.999 -13.5s-14 -19.833 -14 -32.5s4.66699 -23.5 14 -32.5s20.666 -13.5 33.999 -13.5c12.667 0 23.667 4.5 33 13.5s14 19.833 14 32.5zM155 643c0 30 10.833 55.5 32.5 76.5
s48.167 31.5 79.5 31.5c30.667 0 56.834 -10.5 78.501 -31.5s32.5 -46.5 32.5 -76.5c0 -29.333 -10.833 -54.5 -32.5 -75.5s-47.834 -31.5 -78.501 -31.5s-57 10.5 -79 31.5s-33 46.167 -33 75.5z" />
    <glyph glyph-name="Uhungarumlaut" unicode="&#x170;" horiz-adv-x="638" 
d="M579 247c0 -75.333 -24.333 -136.167 -73 -182.5s-111 -69.5 -187 -69.5c-78 0 -140.667 24.167 -188 72.5s-71 109.833 -71 184.5v444h120v-435c0 -44 12.667 -80.5 38 -109.5s59.333 -43.5 102 -43.5c42 0 75.333 12.833 100 38.5s37 62.167 37 109.5v440h122v-449z
M182 729.999l-51 52l154 137l82 -78zM369 729.999l-51 52l154 137l82 -78z" />
    <glyph glyph-name="uhungarumlaut" unicode="&#x171;" horiz-adv-x="533" 
d="M59 495h112v-295c0 -34.667 7.16699 -60.167 21.5 -76.5s37.833 -24.5 70.5 -24.5c27.333 0 50 9.16699 68 27.5s27 42.833 27 73.5v295h113v-495h-113v49h-3c-30 -36.667 -72 -55 -126 -55c-53.333 0 -95 14.667 -125 44s-45 73.333 -45 132v325zM204 544l-68 25l79 190
l107 -34zM363 544l-68 25l78 190l107 -34z" />
    <glyph glyph-name="Uogonek" unicode="&#x172;" horiz-adv-x="638" 
d="M248 -96c0 27.333 12 58.334 36 93.001c-68 7.33301 -122.333 34.5 -163 81.5s-61 104.833 -61 173.5v444h120v-435c0 -44 12.667 -80.5 38 -109.5s59.333 -43.5 102 -43.5c42 0 75.333 12.833 100 38.5s37 62.167 37 109.5v440h122v-449c0 -68 -20 -124.333 -60 -169
s-92.333 -71.334 -157 -80.001c-23.333 -32.667 -35 -59 -35 -79c0 -23.333 13.333 -35 40 -35c18 0 38.333 4.66699 61 14l23 -60c-30.667 -18 -63 -27 -97 -27c-30.667 0 -56 9 -76 27s-30 40 -30 66z" />
    <glyph glyph-name="uogonek" unicode="&#x173;" horiz-adv-x="533" 
d="M319 -96c0 27.333 13 59.333 39 96v49h-3c-30 -36.667 -72 -55 -126 -55c-53.333 0 -95 14.667 -125 44s-45 73.333 -45 132v325h112v-295c0 -34.667 7.16699 -60.167 21.5 -76.5s37.833 -24.5 70.5 -24.5c27.333 0 50 9.16699 68 27.5s27 42.833 27 73.5v295h113v-495
h-37c-24 -33.333 -36 -60.333 -36 -81c0 -23.333 13.333 -35 40 -35c18 0 38.333 4.66699 61 14l23 -60c-30.667 -18 -63 -27 -97 -27c-30.667 0 -56 9 -76 27s-30 40 -30 66z" />
    <glyph glyph-name="Wcircumflex" unicode="&#x174;" horiz-adv-x="839" 
d="M419 473c-0.666992 0 -1.66699 -0.333008 -3 -1l-33.5 -127l-33.5 -127c-2 -8.66699 -12 -44.5 -30 -107.5s-28.333 -100.167 -31 -111.5h-101l-181 696h129l78 -340l28 -127h4l32 126l95 341h92c40 -138.667 72 -253.334 96 -344.001l33 -124h4
c3.33301 15.333 8.16602 38.833 14.499 70.5l10.5 52.5c36 162.667 62.333 277.667 79 345h128l-181 -696h-100c-39.333 142.667 -62.666 226.334 -69.999 251.001zM566 733l-147 82l-147 -82l-38 48l149 124h76l147 -123z" />
    <glyph glyph-name="wcircumflex" unicode="&#x175;" horiz-adv-x="736" 
d="M514 168l6.00098 0.000976562c2.66699 8 5.16699 16.833 7.5 26.5l8 32c3 11.667 5.16699 20.5 6.5 26.5c3.33301 10 7.16602 23.333 11.499 40l21 78.5l34.5 123.5h121l-164 -495h-99l-70 231l-29 94h-2l-31 -106c-21.333 -73.333 -43.666 -146.333 -66.999 -219h-99
l-164 495h121c9.33301 -30.667 22.666 -77.334 39.999 -140.001c5.33301 -17.333 13.5 -46.833 24.5 -88.5s19.833 -73.5 26.5 -95.5h4c4.66699 14 18.667 60.333 42 139l58 185h95l74 -243zM504.001 537.001l-138.999 105.001
c-6.66699 -4.66699 -29.334 -21.834 -68.001 -51.501s-62.667 -47.5 -72 -53.5l-46 43l149 154h78l146 -153z" />
    <glyph glyph-name="Ycircumflex" unicode="&#x176;" horiz-adv-x="557" 
d="M553 696l-217 -410v-286h-115v286l-113 213l-104 197h129l84 -172l61 -134h2l62 137l83 169h128zM425 733l-147 82l-147 -82l-38 48l149 124h76l147 -123z" />
    <glyph glyph-name="ycircumflex" unicode="&#x177;" horiz-adv-x="470" 
d="M470 495l-218 -595c-24.667 -66.667 -72.667 -100 -144 -100h-42v95h31c27.333 0 47.333 17.333 60 52l25 78l-182 470h122l64 -182l49 -156h4l49 154l63 184h119zM375 537l-138.999 105.001c-6.66699 -4.66699 -29.334 -21.834 -68.001 -51.501s-62.667 -47.5 -72 -53.5
l-46 43l149 154h78l146 -153z" />
    <glyph glyph-name="Ydieresis" unicode="&#x178;" horiz-adv-x="557" 
d="M553 696l-217 -410v-286h-115v286l-113 213l-104 197h129l84 -172l61 -134h2l62 137l83 169h128zM242 757h-121v111h121v-111zM439 757h-120v111h120v-111z" />
    <glyph glyph-name="Zacute" unicode="&#x179;" horiz-adv-x="527" 
d="M497 0h-467v104l323 485h-310v107h454v-99l-323 -486h323v-111zM224 735l-47 56l165 125l74 -84z" />
    <glyph glyph-name="zacute" unicode="&#x17a;" horiz-adv-x="449" 
d="M417 0h-386v94l249 304h-235v97h372v-92l-248 -301h248v-102zM251 544l-68 25l79 190l107 -34z" />
    <glyph glyph-name="Zdotaccent" unicode="&#x17b;" horiz-adv-x="527" 
d="M497 0h-467v104l323 485h-310v107h454v-99l-323 -486h323v-111zM330 758h-118v109h118v-109z" />
    <glyph glyph-name="zdotaccent" unicode="&#x17c;" horiz-adv-x="449" 
d="M417 0h-386v94l249 304h-235v97h372v-92l-248 -301h248v-102zM292 583h-118v109h118v-109z" />
    <glyph glyph-name="Zcaron" unicode="&#x17d;" horiz-adv-x="527" 
d="M497 0h-467v104l323 485h-310v107h454v-99l-323 -486h323v-111zM270 826l146 82l41 -49l-147 -124h-76l-150 125l39 48z" />
    <glyph glyph-name="zcaron" unicode="&#x17e;" horiz-adv-x="449" 
d="M417 0h-386v94l249 304h-235v97h372v-92l-248 -301h248v-102zM223 629l138.999 105.001l48 -44l-146 -153h-78l-149 154l46 43c9.33301 -6 33.333 -23.833 72 -53.5s61.334 -46.834 68.001 -51.501z" />
    <glyph glyph-name="florin" unicode="&#x192;" horiz-adv-x="525" 
d="M126 328l-1.00098 97.999h95l8 63c19.333 140.667 83.666 211 192.999 211c33.333 -1.33301 65 -7.66602 95 -18.999l-24 -94c-20 6.66699 -44 10 -72 10c-41.333 0 -66.666 -36 -75.999 -108l-9 -63h99l1 -98h-112l-28 -208c-20 -144.667 -78.667 -217 -176 -217
c-35.333 0 -72.666 8.66699 -111.999 26l28 91c24 -9.33301 47 -14 69 -14c39.333 0 64.333 40.333 75 121c1.33301 14 10.333 81 27 201h-80z" />
    <glyph glyph-name="Ohorn" unicode="&#x1a0;" horiz-adv-x="615" 
d="M304 701c60.667 0 113 -15.6689 157 -47.002c19.333 3.33301 33 12.833 41 28.5s12 39.834 12 72.501v38h94v-59c0 -76 -27 -126.667 -81 -152c24.667 -42 37 -90.333 37 -145v-178c0 -80.667 -23.5 -145 -70.5 -193s-110.167 -72 -189.5 -72
c-82.667 0 -146.5 25.333 -191.5 76s-67.5 113.667 -67.5 189v178c0 74.667 22.5 137.334 67.5 188.001s108.833 76 191.5 76zM304 586.998c-44 0 -77.833 -14.1689 -101.5 -42.502s-35.5 -62.166 -35.5 -101.499v-187c0 -41.333 11.833 -76.5 35.5 -105.5
s57.5 -43.5 101.5 -43.5c41.333 0 74.5 14 99.5 42s37.5 63.667 37.5 107v187c0 40.667 -12.333 74.834 -37 102.501s-58 41.5 -100 41.5z" />
    <glyph glyph-name="ohorn" unicode="&#x1a1;" horiz-adv-x="548" 
d="M264 501c56.667 0 104.332 -16.667 142.999 -50c18.667 4 31.834 13.667 39.501 29s11.5 39.333 11.5 72v38h95v-59c0 -82.667 -32 -135.334 -96 -158.001c10 -30.667 15 -70 15 -118c0 -72.667 -11.333 -128.667 -34 -168c-18.667 -30.667 -44.334 -54 -77.001 -70
s-69 -24 -109 -24c-78.667 0 -135.667 26 -171 78c-27.333 40.667 -40.333 99.334 -39 176.001c0 59.333 8.33301 106 25 140c16.667 36 42.334 64 77.001 84s74.667 30 120 30zM259.998 399c-40.667 0 -69.667 -18.666 -87 -55.999c-10 -22 -15.667 -54.333 -17 -97
c0 -43.333 5 -75 15 -95c16 -36.667 44 -55 84 -55c47.333 0 78.333 23.667 93 71c6 19.333 9 48.666 9 87.999c0 38.667 -4.33301 67.667 -13 87c-14.667 38 -42.667 57 -84 57z" />
    <glyph glyph-name="Uhorn" unicode="&#x1af;" horiz-adv-x="699" 
d="M579 247c0 -75.333 -24.332 -136.168 -72.999 -182.501s-111 -69.5 -187 -69.5c-78 0 -140.667 24.167 -188 72.5s-71 109.833 -71 184.5v444h120v-435c0 -44 12.667 -80.5 38 -109.5s59.333 -43.5 102 -43.5c42 0 75.333 12.833 100 38.5s37 62.167 37 109.5v440h122
v-40c19.333 3.33301 33.166 12.833 41.499 28.5s12.5 39.834 12.5 72.501v36h94v-59c0 -50.667 -12.667 -90.667 -38 -120s-62 -45.333 -110 -48v-319z" />
    <glyph glyph-name="uhorn" unicode="&#x1b0;" horiz-adv-x="606" 
d="M59 495l112 -0.000976562v-295c0 -34.667 7.16699 -60.167 21.5 -76.5s37.833 -24.5 70.5 -24.5c27.333 0 50 9.16699 68 27.5s27 42.833 27 73.5v295h113v-44c18.667 3.33301 32 12.833 40 28.5s12 39.834 12 72.501v38h94v-59c0 -50.667 -12.5 -90.5 -37.5 -119.5
s-61.167 -45.167 -108.5 -48.5v-363h-113v49h-3c-30 -36.667 -72 -55 -126 -55c-53.333 0 -95 14.667 -125 44s-45 73.333 -45 132v325z" />
    <glyph glyph-name="AEacute" unicode="&#x1fc;" horiz-adv-x="1034" 
d="M983 0h-466v176h-247l-107 -176h-137l433 696h524v-110h-345v-183h294v-105h-294v-189h345v-109zM515 585l-92.5 -152l-91.5 -152h186v304h-2zM622 735l-47 56l165 125l74 -84z" />
    <glyph glyph-name="aeacute" unicode="&#x1fd;" horiz-adv-x="816" 
d="M774 215h-315.002c0.666992 -25.333 6.33398 -48 17.001 -68c20 -33.333 52.333 -50 97 -50c38.667 0 74.334 15 107.001 45l70 -78c-48.667 -46 -108.667 -69 -180 -69c-78 0 -136.333 23.667 -175 71c-38.667 -47.333 -98.334 -71 -179.001 -71
c-53.333 0 -96 13 -128 39s-48 62.667 -48 110c0 42 14.833 77.333 44.5 106s70.834 43 123.501 43h134v36c0 49.333 -33.333 74 -100 74c-53.333 0 -93.333 -14.333 -120 -43l-58 73c39.333 44.667 99 67 179 67c84 0 141.667 -19 173 -57c35.333 38 82.333 57 141 57
c70 0 123.667 -23.333 161 -70s56 -107 56 -181v-34zM146.998 152c0 -17.333 7 -31.833 21 -43.5s36.333 -17.5 67 -17.5c71.333 0 107 31.333 107 94v23h-115c-27.333 0 -47.5 -5.16699 -60.5 -15.5s-19.5 -23.833 -19.5 -40.5zM445.998 544l-68 25l79 190l107 -34z
M656.998 295c-2 32.667 -12 58 -30 76s-40.333 27 -67 27c-27.333 0 -50 -9 -68 -27s-28.333 -43.333 -31 -76h196z" />
    <glyph glyph-name="Oslashacute" unicode="&#x1fe;" horiz-adv-x="610" 
d="M304 701c66.667 0 122.999 -18.668 168.999 -56.001l41 57l47 -34l-47 -66c33.333 -46.667 50 -101.667 50 -165v-178c0 -80.667 -23.5 -145 -70.5 -193s-110.167 -72 -189.5 -72c-73.333 0 -132.666 20.667 -177.999 62l-42 -60l-45 33l50 71c-29.333 44 -44 97 -44 159
v178c0 74.667 22.5 137.334 67.5 188.001s108.833 76 191.5 76zM440.999 442.999c0 17.333 -2.33301 33 -7 47l-236 -334c24.667 -32.667 60 -49 106 -49c41.333 0 74.5 14 99.5 42s37.5 63.667 37.5 107v187zM303.999 586.999c-44 0 -77.833 -14.1689 -101.5 -42.502
s-35.5 -62.166 -35.5 -101.499v-187c0 -15.333 1.33301 -28.666 4 -39.999l232 330c-25.333 27.333 -58.333 41 -99 41zM281.999 734.997l-47 56l165 125l74 -84z" />
    <glyph glyph-name="oslashacute" unicode="&#x1ff;" horiz-adv-x="515" 
d="M264 501c52.667 0 97.001 -14.002 133.001 -42.002l42 54l36 -28l-46 -58c2 -2 4.33301 -5 7 -9c25.333 -39.333 37.333 -93.666 36 -162.999c0 -72.667 -11.333 -128.667 -34 -168c-18.667 -30.667 -44.334 -54 -77.001 -70s-69 -24 -109 -24
c-55.333 0 -100.333 13.333 -135 40l-39 -49l-34 27l42 53c-2.66699 2.66699 -4.33398 5 -5.00098 7c-27.333 40.667 -40.333 99.334 -39 176.001c0 59.333 8.33301 106 25 140c16.667 36 42.334 64 77.001 84s74.667 30 120 30zM260.001 398.998
c-40.667 0 -69.667 -18.667 -87 -56c-10 -22 -15.667 -54.333 -17 -97c0 -37.333 3 -64.333 9 -81l162 206c-16.667 18.667 -39 28 -67 28zM357.001 254.998c0 28 -2.66699 52.001 -8 72.001l-161 -204c18 -18 40.333 -27 67 -27c47.333 0 78.333 23.667 93 71
c6 19.333 9 48.666 9 87.999zM271.001 543.999l-68 25l79 190l107 -34z" />
    <glyph glyph-name="Scommaaccent" unicode="&#x218;" horiz-adv-x="569" 
d="M518 637l-59.9971 -100.001c-52.667 34.667 -110 52 -172 52c-40 0 -69.667 -8 -89 -24s-29 -37.333 -29 -64c0 -27.333 12.167 -47.166 36.5 -59.499s68.833 -24.166 133.5 -35.499c29.333 -5.33301 54.666 -11.833 75.999 -19.5s42.5 -18.667 63.5 -33
s37.167 -33.833 48.5 -58.5s17 -54.334 17 -89.001c0 -65.333 -25.167 -117 -75.5 -155s-112.5 -57 -186.5 -57c-112 0 -204 32 -276 96l73 94c56 -51.333 125.667 -77 209 -77c39.333 0 70.666 8.16699 93.999 24.5s35 39.833 35 70.5c0 27.333 -10.167 48.333 -30.5 63
s-52.5 25.334 -96.5 32.001c-28.667 4 -52.834 8.16699 -72.501 12.5s-41 11.333 -64 21s-41.5 21.167 -55.5 34.5s-25.667 31.166 -35 53.499s-14 48.5 -14 78.5c0 65.333 23.167 115.833 69.5 151.5s101.833 53.5 166.5 53.5c95.333 0 173.333 -21.667 234 -65z
M282.003 -285.001h-59l37 98h-34v131h129v-126z" />
    <glyph glyph-name="scommaaccent" unicode="&#x219;" horiz-adv-x="463" 
d="M433 151c0 -48 -19.3311 -86.166 -57.998 -114.499s-86.667 -42.5 -144 -42.5c-86.667 0 -158.334 25 -215.001 75l61 81c42.667 -39.333 95.667 -59 159 -59c24.667 0 45.167 5.16699 61.5 15.5s24.5 24.166 24.5 41.499c0 16.667 -7 29.334 -21 38.001
s-36.333 14.667 -67 18c-22 2.66699 -40 5.16699 -54 7.5s-30.5 6.83301 -49.5 13.5s-33.833 14.5 -44.5 23.5s-20 21.833 -28 38.5s-12 36 -12 58c0 48.667 17.667 86.667 53 114s79.333 41 132 41c77.333 0 140.666 -18.667 189.999 -56l-54 -86
c-43.333 28.667 -88 43 -134 43c-25.333 0 -45 -5 -59 -15s-21 -22.667 -21 -38c0 -16 9 -27.833 27 -35.5s48.333 -13.834 91 -18.501c108 -12 162 -59.667 162 -143zM225.002 -284.999h-59l37 98h-34v131h129v-126z" />
    <glyph glyph-name="schwa" unicode="&#x259;" horiz-adv-x="507" 
d="M37 280l312.999 0.00195312c1.33301 35.333 -7.66699 63.833 -27 85.5s-45.666 32.5 -78.999 32.5c-40 0 -77.333 -15.333 -112 -46l-70 78c50 47.333 112 71 186 71c28.667 0 55 -3.83301 79 -11.5s47 -20.334 69 -38.001s39.333 -43.834 52 -78.501s19 -76 19 -124
c0 -88 -21.333 -152.5 -64 -193.5s-93.667 -61.5 -153 -61.5c-66 0 -118 21.333 -156 64s-57 100 -57 172v50zM251.999 96.002c26 0 47.667 9.16699 65 27.5s27.333 43.5 30 75.5h-190c2.66699 -32.667 12.5 -58 29.5 -76s38.833 -27 65.5 -27z" />
    <glyph glyph-name="primemod" unicode="&#x2b9;" horiz-adv-x="276" 
d="M153 723l122 -39l-145 -289l-83 27z" />
    <glyph glyph-name="circumflex" unicode="&#x2c6;" horiz-adv-x="504" 
d="M392 537l-138.999 105.001c-6.66699 -4.66699 -29.334 -21.834 -68.001 -51.501s-62.667 -47.5 -72 -53.5l-46 43l149 154h78l146 -153z" />
    <glyph glyph-name="caron" unicode="&#x2c7;" horiz-adv-x="504" 
d="M253 629l138.999 105.001l48 -44l-146 -153h-78l-149 154l46 43c9.33301 -6 33.333 -23.833 72 -53.5s61.334 -46.834 68.001 -51.501z" />
    <glyph glyph-name="breve" unicode="&#x2d8;" horiz-adv-x="522" 
d="M268 564c-50 0 -86.835 15.166 -110.502 45.499s-36.834 63.833 -39.501 100.5h87c0.666992 -15.333 6.66699 -30.166 18 -44.499s26.333 -21.5 45 -21.5c20 0 35.667 7 47 21s17 29 17 45h86c-1.33301 -12.667 -3.66602 -25 -6.99902 -37
s-8.66602 -24.833 -15.999 -38.5s-16.333 -25.5 -27 -35.5s-24.667 -18.333 -42 -25s-36.666 -10 -57.999 -10z" />
    <glyph glyph-name="dotaccent" unicode="&#x2d9;" horiz-adv-x="414" 
d="M268 583h-118v109h118v-109z" />
    <glyph glyph-name="ring" unicode="&#x2da;" horiz-adv-x="504" 
d="M323 643c0 12.667 -4.5 23.5 -13.5 32.5s-20.167 13.5 -33.5 13.5s-24.666 -4.5 -33.999 -13.5s-14 -19.833 -14 -32.5s4.66699 -23.5 14 -32.5s20.666 -13.5 33.999 -13.5c12.667 0 23.667 4.5 33 13.5s14 19.833 14 32.5zM164 643c0 30 10.833 55.5 32.5 76.5
s48.167 31.5 79.5 31.5c30.667 0 56.834 -10.5 78.501 -31.5s32.5 -46.5 32.5 -76.5c0 -29.333 -10.833 -54.5 -32.5 -75.5s-47.834 -31.5 -78.501 -31.5s-57 10.5 -79 31.5s-33 46.167 -33 75.5z" />
    <glyph glyph-name="ogonek" unicode="&#x2db;" horiz-adv-x="288" 
d="M57 -98c0 27.333 14 61.001 42 101.001h73l2 -3c-25.333 -34.667 -38 -62.334 -38 -83.001c0 -23.333 13.333 -35 40 -35c18 0 38.333 4.66699 61 14l23 -60c-30.667 -18 -63 -27 -97 -27c-30.667 0 -56 9 -76 27s-30 40 -30 66z" />
    <glyph glyph-name="tilde" unicode="&#x2dc;" horiz-adv-x="504" 
d="M189 705c18 0 42.332 -8 72.999 -24s50.667 -24 60 -24c20.667 0 42 15.667 64 47l60 -35c-30.667 -66 -68.667 -99 -114 -99c-18 0 -42.667 7.66699 -74 23s-52.666 23 -63.999 23c-22 0 -45 -15 -69 -45l-57 33c32.667 67.333 73 101 121 101z" />
    <glyph glyph-name="hungarumlaut" unicode="&#x2dd;" horiz-adv-x="570" 
d="M219 544l-68 25l79 190l107 -34zM378 544l-68 25l78 190l107 -34z" />
    <glyph glyph-name="tonos" unicode="&#x384;" horiz-adv-x="504" 
d="M256 544l-68 25l79 190l107 -34z" />
    <glyph glyph-name="dieresistonos" unicode="&#x385;" horiz-adv-x="502" 
d="M458 579h-118v110h118v-110zM155 579h-117v110h117v-110zM233 544l-68 25l79 190l107 -34z" />
    <glyph glyph-name="Alphatonos" unicode="&#x386;" horiz-adv-x="629" 
d="M626 0h-128l-55 154h-258l-56 -154h-127l263 696h98zM407 257l-46 141l-46 143h-3l-45 -140l-47 -144h187zM15 519l-68 25l79 190l107 -34z" />
    <glyph glyph-name="anoteleia" unicode="&#x387;" horiz-adv-x="271" 
d="M202 276h-136v139h136v-139z" />
    <glyph glyph-name="Epsilontonos" unicode="&#x388;" horiz-adv-x="564" 
d="M539 0h-466v696h466v-110h-345v-182h294v-106h-294v-188h345v-110zM-89 519l-68 25l79 190l107 -34z" />
    <glyph glyph-name="Etatonos" unicode="&#x389;" horiz-adv-x="655" 
d="M582 0h-120v298h-268v-298h-121v696h121v-292h268v292h120v-696zM-82 519l-68 25l79 190l107 -34z" />
    <glyph glyph-name="Iotatonos" unicode="&#x38a;" horiz-adv-x="268" 
d="M196 0h-122v696h122v-696zM-84 519l-68 25l79 190l107 -34z" />
    <glyph glyph-name="Omicrontonos" unicode="&#x38c;" horiz-adv-x="610" 
d="M304 701c78.667 0 141.667 -24.6689 189 -74.002s71 -112.666 71 -189.999v-178c0 -80.667 -23.5 -145 -70.5 -193s-110.167 -72 -189.5 -72c-82.667 0 -146.5 25.333 -191.5 76s-67.5 113.667 -67.5 189v178c0 74.667 22.5 137.334 67.5 188.001s108.833 76 191.5 76z
M304 586.998c-44 0 -77.833 -14.1689 -101.5 -42.502s-35.5 -62.166 -35.5 -101.499v-187c0 -41.333 11.833 -76.5 35.5 -105.5s57.5 -43.5 101.5 -43.5c41.333 0 74.5 14 99.5 42s37.5 63.667 37.5 107v187c0 40.667 -12.333 74.834 -37 102.501s-58 41.5 -100 41.5z
M-66 518.996l-68 25l79 190l107 -34z" />
    <glyph glyph-name="Upsilontonos" unicode="&#x38e;" horiz-adv-x="557" 
d="M553 696l-217 -410v-286h-115v286l-113 213l-104 197h129l84 -172l61 -134h2l62 137l83 169h128zM-139 519l-68 25l79 190l107 -34z" />
    <glyph glyph-name="Omegatonos" unicode="&#x38f;" horiz-adv-x="604" 
d="M345 120c61.333 14.667 92 70.3311 92 166.998v156c0 41.333 -12.333 76 -37 104s-58.334 42 -101.001 42c-44.667 0 -78.667 -14.333 -102 -43s-35 -63 -35 -103v-156c0 -93.333 31.333 -149.333 94 -168v-119h-230v109h74v1l1 2c-40 30 -60 87 -60 171v154
c0 74.667 22.333 137.334 67 188.001s108.334 76 191.001 76c78.667 0 141.667 -24.667 189 -74s71 -112.666 71 -189.999v-154c0 -78 -20.333 -135.667 -61 -173c0.666992 0 1 -0.333008 1 -1h76v-109h-230v120zM-64 518.997l-68 25l79 190l107 -34z" />
    <glyph glyph-name="iotadieresistonos" unicode="&#x390;" horiz-adv-x="263" 
d="M229 89l-2 -93c-8 -0.666992 -19.667 -1 -35 -1c-50.667 0 -84.5 11.5 -101.5 34.5s-25.5 55.833 -25.5 98.5v367h112v-360c0 -18 3.33301 -30.167 10 -36.5s20.667 -9.5 42 -9.5zM345 579h-118v110h118v-110zM42 579h-117v110h117v-110zM120 544l-68 25l79 190l107 -34z
" />
    <glyph glyph-name="Alpha" unicode="&#x391;" horiz-adv-x="629" 
d="M626 0h-128l-55 154h-258l-56 -154h-127l263 696h98zM407 257l-46 141l-46 143h-3l-45 -140l-47 -144h187z" />
    <glyph glyph-name="Beta" unicode="&#x392;" horiz-adv-x="618" 
d="M582 200c0 -58.667 -19.832 -106.666 -59.499 -143.999s-87.834 -56 -144.501 -56h-305v696h278c69.333 0 123 -17.333 161 -52s57 -80.667 57 -138c0 -66.667 -32 -114.334 -96 -143.001v-4c34 -10 60.667 -30.5 80 -61.5s29 -63.5 29 -97.5zM443.001 499.001
c0 26.667 -9.16699 48.167 -27.5 64.5s-45.166 24.5 -80.499 24.5h-141v-181h141c35.333 0 62.166 8.66699 80.499 26s27.5 39.333 27.5 66zM459.001 207.001c0 27.333 -9.33301 50.5 -28 69.5s-46 28.5 -82 28.5h-155v-195h155c36 0 63.333 9.33301 82 28s28 41.667 28 69z
" />
    <glyph glyph-name="Gamma" unicode="&#x393;" horiz-adv-x="545" 
d="M539 586h-345v-586h-121v696h466v-110z" />
    <glyph glyph-name="Delta" unicode="&#x394;" horiz-adv-x="630" 
d="M625 0h-623l262 696h99zM460 105l-97 293l-47 150h-5l-39 -127c-30.667 -98 -66 -203.333 -106 -316h294z" />
    <glyph glyph-name="Delta" unicode="&#x2206;" horiz-adv-x="630" 
d="M625 0h-623l262 696h99zM460 105l-97 293l-47 150h-5l-39 -127c-30.667 -98 -66 -203.333 -106 -316h294z" />
    <glyph glyph-name="Epsilon" unicode="&#x395;" horiz-adv-x="564" 
d="M539 0h-466v696h466v-110h-345v-182h294v-106h-294v-188h345v-110z" />
    <glyph glyph-name="Zeta" unicode="&#x396;" horiz-adv-x="527" 
d="M497 0h-467v104l323 485h-310v107h454v-99l-323 -486h323v-111z" />
    <glyph glyph-name="Eta" unicode="&#x397;" horiz-adv-x="655" 
d="M582 0h-120v298h-268v-298h-121v696h121v-292h268v292h120v-696z" />
    <glyph glyph-name="Theta" unicode="&#x398;" horiz-adv-x="602" 
d="M300 701c78.667 0 141.667 -24.6689 189 -74.002s71 -112.666 71 -189.999v-178c0 -80.667 -23.5 -145 -70.5 -193s-110.167 -72 -189.5 -72c-82.667 0 -146.5 25.333 -191.5 76s-67.5 113.667 -67.5 189v178c0 74.667 22.5 137.334 67.5 188.001s108.833 76 191.5 76z
M300 585.998c-44 0 -77.833 -14.1689 -101.5 -42.502s-35.5 -62.166 -35.5 -101.499v-185c0 -41.333 11.833 -76.5 35.5 -105.5s57.5 -43.5 101.5 -43.5c41.333 0 74.5 14 99.5 42s37.5 63.667 37.5 107v185c0 40.667 -12.333 74.834 -37 102.501s-58 41.5 -100 41.5z
M407 400.996v-100h-213v100h213z" />
    <glyph glyph-name="Iota" unicode="&#x399;" horiz-adv-x="268" 
d="M196 0h-122v696h122v-696z" />
    <glyph glyph-name="Kappa" unicode="&#x39a;" horiz-adv-x="638" 
d="M645 0h-143l-195 324l-113 -131v-193h-121v696h122v-337l2 -1l117 143l164 195h144l-235 -278z" />
    <glyph glyph-name="Lambda" unicode="&#x39b;" horiz-adv-x="618" 
d="M621 0h-128l-37.5 107c-19 54 -29.833 85.333 -32.5 94c-15.333 40.667 -53 148 -113 322h-3l-68.5 -196.5c-29 -82.333 -43.5 -123.833 -43.5 -124.5l-71 -202h-127l262 696h99z" />
    <glyph glyph-name="Mu" unicode="&#x39c;" horiz-adv-x="765" 
d="M702 0h-120.999v413h-3l-37 -89l-51 -112l-54 -114h-97l-40 85l-66 146l-36 85l-3 -3v-411h-121v696h113l91 -199c19.333 -42 55.666 -125.333 108.999 -250h4l56 133l51 117l89 199h116v-696z" />
    <glyph glyph-name="Nu" unicode="&#x39d;" horiz-adv-x="692" 
d="M621 0h-112l-215 324l-97 159l-3 -1v-482h-121v696h112l195 -296l118 -188l2 2v482h121v-696z" />
    <glyph glyph-name="Xi" unicode="&#x39e;" horiz-adv-x="589" 
d="M530 586h-475v110h475v-110zM478 298h-371v106h371v-106zM533 0h-480v110h480v-110z" />
    <glyph glyph-name="Omicron" unicode="&#x39f;" horiz-adv-x="610" 
d="M304 701c78.667 0 141.667 -24.6689 189 -74.002s71 -112.666 71 -189.999v-178c0 -80.667 -23.5 -145 -70.5 -193s-110.167 -72 -189.5 -72c-82.667 0 -146.5 25.333 -191.5 76s-67.5 113.667 -67.5 189v178c0 74.667 22.5 137.334 67.5 188.001s108.833 76 191.5 76z
M304 586.998c-44 0 -77.833 -14.1689 -101.5 -42.502s-35.5 -62.166 -35.5 -101.499v-187c0 -41.333 11.833 -76.5 35.5 -105.5s57.5 -43.5 101.5 -43.5c41.333 0 74.5 14 99.5 42s37.5 63.667 37.5 107v187c0 40.667 -12.333 74.834 -37 102.501s-58 41.5 -100 41.5z" />
    <glyph glyph-name="Pi" unicode="&#x3a0;" horiz-adv-x="655" 
d="M582 0h-120v588h-268v-588h-121v696h509v-696z" />
    <glyph glyph-name="Rho" unicode="&#x3a1;" horiz-adv-x="591" 
d="M581 478c0 -57.333 -21.501 -106.833 -64.501 -148.5s-97.5 -62.5 -163.5 -62.5h-159v-267h-121v696h271c68.667 0 125.334 -19 170.001 -57s67 -91.667 67 -161zM456.999 481c0 34.667 -10.333 60.833 -31 78.5s-49 26.5 -85 26.5h-147v-209h151c34 0 61.167 10 81.5 30
s30.5 44.667 30.5 74z" />
    <glyph glyph-name="Sigma" unicode="&#x3a3;" horiz-adv-x="527" 
d="M497 0h-467v110l161 247l-161 235v104h454v-108h-309l159 -230l-159 -246h322v-112z" />
    <glyph glyph-name="Tau" unicode="&#x3a4;" horiz-adv-x="521" 
d="M513 588h-194v-588h-121v588h-193v108h508v-108z" />
    <glyph glyph-name="Upsilon" unicode="&#x3a5;" horiz-adv-x="557" 
d="M553 696l-217 -410v-286h-115v286l-113 213l-104 197h129l84 -172l61 -134h2l62 137l83 169h128z" />
    <glyph glyph-name="Phi" unicode="&#x3a6;" horiz-adv-x="758" 
d="M717 354c0 -84 -24.8311 -153.333 -74.498 -208s-118.5 -83.334 -206.5 -86.001v-60h-116v60c-90 6.66699 -158.833 36.334 -206.5 89.001s-71.5 121 -71.5 205c0 84.667 24.167 155.167 72.5 211.5s116.833 86.5 205.5 90.5v40h116v-40
c95.333 -6 166.166 -35.667 212.499 -89s69.166 -124.333 68.499 -213zM436.002 559v-401.999c109.333 4.66699 164 70.667 164 198c0 57.333 -13 105.166 -39 143.499s-67.667 58.5 -125 60.5zM320.002 559.001c-54.667 -4.66699 -95.333 -25.667 -122 -63
s-39.667 -84.333 -39 -141c0 -57.333 13.333 -103.333 40 -138s67 -54.667 121 -60v402z" />
    <glyph glyph-name="Chi" unicode="&#x3a7;" horiz-adv-x="576" 
d="M575 0h-136l-152 257l-151 -257h-136l225 356l-212 340h137l137 -240l138 240h136l-211 -340z" />
    <glyph glyph-name="Psi" unicode="&#x3a8;" horiz-adv-x="750" 
d="M689 384c0 -69.333 -23.832 -125.832 -71.499 -169.499s-108.5 -68.167 -182.5 -73.5v-141h-121v141c-74.667 4.66699 -135.834 29.667 -183.501 75s-71.5 104.333 -71.5 177v303h119v-295c0 -42 12.667 -76.5 38 -103.5s58 -42.167 98 -45.5v444h121v-444
c40 2.66699 72.667 16.167 98 40.5s38 57.166 38 98.499v305h118v-312z" />
    <glyph glyph-name="Omega" unicode="&#x3a9;" horiz-adv-x="604" 
d="M345 120c61.333 14.667 92 70.3311 92 166.998v156c0 41.333 -12.333 76 -37 104s-58.334 42 -101.001 42c-44.667 0 -78.667 -14.333 -102 -43s-35 -63 -35 -103v-156c0 -93.333 31.333 -149.333 94 -168v-119h-230v109h74v1l1 2c-40 30 -60 87 -60 171v154
c0 74.667 22.333 137.334 67 188.001s108.334 76 191.001 76c78.667 0 141.667 -24.667 189 -74s71 -112.666 71 -189.999v-154c0 -78 -20.333 -135.667 -61 -173c0.666992 0 1 -0.333008 1 -1h76v-109h-230v120z" />
    <glyph glyph-name="Iotadieresis" unicode="&#x3aa;" horiz-adv-x="268" 
d="M196 0h-122v696h122v-696zM291 757h-120v111h120v-111zM94 757h-121v111h121v-111z" />
    <glyph glyph-name="Upsilondieresis" unicode="&#x3ab;" horiz-adv-x="557" 
d="M553 696l-217 -410v-286h-115v286l-113 213l-104 197h129l84 -172l61 -134h2l62 137l83 169h128zM239 757h-121v111h121v-111zM436 757h-120v111h120v-111z" />
    <glyph glyph-name="alphatonos" unicode="&#x3ac;" horiz-adv-x="519" 
d="M45 240c0 172.667 63.001 259 189.001 259c47.333 0 84.333 -16.333 111 -49l2 1v44h113v-495h-113v47l-2 1c-32.667 -36 -71.334 -54 -116.001 -54c-122.667 0 -184 82 -184 246zM161.001 246c0 -20 1 -37.168 3 -51.501s5.83301 -29.333 11.5 -45
s15.167 -27.667 28.5 -36s30.333 -12.5 51 -12.5c61.333 0 92 48.333 92 145c0 98.667 -30.667 148 -92 148c-20.667 0 -37.667 -4.33301 -51 -13s-23 -21.167 -29 -37.5s-9.83301 -31.666 -11.5 -45.999s-2.5 -31.5 -2.5 -51.5zM260.001 543.999l-68 25l79 190l107 -34z
" />
    <glyph glyph-name="epsilontonos" unicode="&#x3ad;" horiz-adv-x="458" 
d="M441 69c-52 -49.333 -117.999 -74 -197.999 -74c-60 0 -108 13.333 -144 40s-54 63.667 -54 111c0 19.333 6.16699 40 18.5 62s30.5 38 54.5 48v2c-22.667 7.33301 -39.334 20 -50.001 38s-16 37 -16 57c0 42 17 77 51 105s81.333 42 142 42c78.667 0 141 -23 187 -69
l-69 -80c-29.333 29.333 -67 44 -113 44c-22.667 0 -42.167 -4.83301 -58.5 -14.5s-24.5 -22.5 -24.5 -38.5c0 -30 22.667 -45 68 -45h72v-88h-74c-23.333 0 -41.5 -5 -54.5 -15s-19.5 -23 -19.5 -39c0 -15.333 8 -28.5 24 -39.5s39 -16.5 69 -16.5c49.333 0 88 16 116 48z
M254.001 544l-68 25l79 190l107 -34z" />
    <glyph glyph-name="etatonos" unicode="&#x3ae;" horiz-adv-x="538" 
d="M474 0h-112v294c0 66.667 -30.333 100 -91 100c-28 0 -51 -9 -69 -27s-27 -42.333 -27 -73v-294h-113v496h113v-52h3c15.333 17.333 34.833 31 58.5 41s47.167 15 70.5 15c52 0 92.833 -15 122.5 -45s44.5 -73.333 44.5 -130v-325zM256 544l-68 25l79 190l107 -34z" />
    <glyph glyph-name="iotatonos" unicode="&#x3af;" horiz-adv-x="263" 
d="M229 89l-2 -93c-8 -0.666992 -19.667 -1 -35 -1c-50.667 0 -84.5 11.5 -101.5 34.5s-25.5 55.833 -25.5 98.5v367h112v-360c0 -18 3.33301 -30.167 10 -36.5s20.667 -9.5 42 -9.5zM138 544l-68 25l79 190l107 -34z" />
    <glyph glyph-name="upsilondieresistonos" unicode="&#x3b0;" horiz-adv-x="540" 
d="M477 178c0 -54.667 -19.3311 -98.833 -57.998 -132.5s-88.334 -50.5 -149.001 -50.5c-59.333 0 -108.5 17 -147.5 51s-58.5 78 -58.5 132v317h113v-294c0 -30.667 8.83301 -55 26.5 -73s40.167 -27 67.5 -27s49.666 9 66.999 27s26 42.333 26 73v294h113v-317z
M481.002 579.001h-118v110h118v-110zM178.002 579.001h-117v110h117v-110zM256.002 544.001l-68 25l79 190l107 -34z" />
    <glyph glyph-name="alpha" unicode="&#x3b1;" horiz-adv-x="519" 
d="M45 240c0 172.667 63.001 259 189.001 259c47.333 0 84.333 -16.333 111 -49l2 1v44h113v-495h-113v47l-2 1c-32.667 -36 -71.334 -54 -116.001 -54c-122.667 0 -184 82 -184 246zM161.001 246c0 -20 1 -37.168 3 -51.501s5.83301 -29.333 11.5 -45
s15.167 -27.667 28.5 -36s30.333 -12.5 51 -12.5c61.333 0 92 48.333 92 145c0 98.667 -30.667 148 -92 148c-20.667 0 -37.667 -4.33301 -51 -13s-23 -21.167 -29 -37.5s-9.83301 -31.666 -11.5 -45.999s-2.5 -31.5 -2.5 -51.5z" />
    <glyph glyph-name="beta" unicode="&#x3b2;" horiz-adv-x="530" 
d="M484 230c0 -32.667 -3.33301 -62.499 -10 -89.499s-17 -51.833 -31 -74.5s-33.333 -40.167 -58 -52.5s-54 -18.5 -88 -18.5c-51.333 0 -92 17 -122 51h-2v-198h-112v640c0 158 65.333 237 196 237c64.667 0 113.167 -17.833 145.5 -53.5s48.5 -75.167 48.5 -118.5
c0 -26.667 -5.66699 -52.834 -17 -78.501s-29 -45.167 -53 -58.5v-1c68.667 -17.333 103 -79 103 -185zM365 248.001c-1.33301 74.667 -30.667 112 -88 112h-58v91h46c25.333 0 44 9.16699 56 27.5s18 38.833 18 61.5c0 24 -7.16699 45 -21.5 63s-34.5 27 -60.5 27
c-30 0 -51.5 -9.83301 -64.5 -29.5s-19.5 -43.5 -19.5 -71.5v-287c0 -19.333 1 -36.333 3 -51s6 -30 12 -46s15.667 -28.333 29 -37s30.333 -13 51 -13c64.667 0 97 51 97 153z" />
    <glyph glyph-name="gamma" unicode="&#x3b3;" horiz-adv-x="481" 
d="M354 495l123.001 0.000976562c-76.667 -194.667 -135.667 -353.667 -177 -477v-218h-112v196c-37.333 129.333 -77 247.666 -119 354.999c-8.66699 22 -15.667 35.667 -21 41s-15.333 8 -30 8h-7l-8 92c25.333 7.33301 47 11 65 11c27.333 0 48 -7.83301 62 -23.5
s27.667 -41.5 41 -77.5c21.333 -60 45.333 -132.667 72 -218h5c47.333 146 82.666 249.667 105.999 311z" />
    <glyph glyph-name="delta" unicode="&#x3b4;" horiz-adv-x="504" 
d="M264 726c62.667 0 120 -14 172 -42l-44 -92c-40 22.667 -80 34 -120 34c-44.667 0 -67 -14.667 -67 -44c0 -24 28.333 -50 85 -78c24 -12.667 42 -22.5 54 -29.5s26.5 -17.333 43.5 -31s30.167 -27.5 39.5 -41.5c24.667 -37.333 37 -91.333 37 -162
c0 -61.333 -11.667 -111.666 -35 -150.999c-38 -63.333 -99 -95 -183 -95c-78.667 0 -135 25.333 -169 76c-26.667 38 -40 91.333 -40 160c0 61.333 8.33301 107.666 25 138.999c8.66699 18.667 21.167 36.5 37.5 53.5s34.5 29.5 54.5 37.5
c-21.333 13.333 -38 30.333 -50 51s-18 42 -18 64c0 46.667 16.833 83.5 50.5 110.5s76.167 40.5 127.5 40.5zM251 405c-43.333 -6.66699 -72.333 -29.001 -87 -67.001c-8.66699 -20 -13.667 -52.333 -15 -97c0 -40 5 -71 15 -93c16 -34.667 44.333 -52 85 -52
c48 0 79 23.667 93 71c5.33301 18.667 8 47.334 8 86.001c0 33.333 -4.33301 60.333 -13 81c-15.333 37.333 -44 61 -86 71z" />
    <glyph glyph-name="epsilon" unicode="&#x3b5;" horiz-adv-x="458" 
d="M441 69c-52 -49.333 -117.999 -74 -197.999 -74c-60 0 -108 13.333 -144 40s-54 63.667 -54 111c0 19.333 6.16699 40 18.5 62s30.5 38 54.5 48v2c-22.667 7.33301 -39.334 20 -50.001 38s-16 37 -16 57c0 42 17 77 51 105s81.333 42 142 42c78.667 0 141 -23 187 -69
l-69 -80c-29.333 29.333 -67 44 -113 44c-22.667 0 -42.167 -4.83301 -58.5 -14.5s-24.5 -22.5 -24.5 -38.5c0 -30 22.667 -45 68 -45h72v-88h-74c-23.333 0 -41.5 -5 -54.5 -15s-19.5 -23 -19.5 -39c0 -15.333 8 -28.5 24 -39.5s39 -16.5 69 -16.5c49.333 0 88 16 116 48z
" />
    <glyph glyph-name="zeta" unicode="&#x3b6;" horiz-adv-x="418" 
d="M156 218c0 -30 8.49805 -52.835 25.498 -68.502s44.833 -31.834 83.5 -48.501c68.667 -25.333 114.167 -46.166 136.5 -62.499s33.5 -39.166 33.5 -68.499c0 -16 -5.66699 -35.333 -17 -58s-22.166 -41.167 -32.499 -55.5s-24.5 -32.833 -42.5 -55.5l-81 45
c9.33301 12.667 20 29.5 32 50.5s18 36.167 18 45.5c0 14 -15.333 27 -46 39l-52 20c-12 4.66699 -27.5 11.5 -46.5 20.5s-33.667 17.167 -44 24.5s-21.833 16.833 -34.5 28.5s-22.167 23.834 -28.5 36.501s-11.833 27.5 -16.5 44.5s-7 35.5 -7 55.5
c0 58.667 26 126.334 78 203.001s116.667 142.667 194 198h-235v99h391v-88c-89.333 -66 -163.166 -136.333 -221.499 -211s-87.5 -139.334 -87.5 -194.001z" />
    <glyph glyph-name="eta" unicode="&#x3b7;" horiz-adv-x="538" 
d="M474 0h-112v294c0 66.667 -30.333 100 -91 100c-28 0 -51 -9 -69 -27s-27 -42.333 -27 -73v-294h-113v496h113v-52h3c15.333 17.333 34.833 31 58.5 41s47.167 15 70.5 15c52 0 92.833 -15 122.5 -45s44.5 -73.333 44.5 -130v-325z" />
    <glyph glyph-name="theta" unicode="&#x3b8;" horiz-adv-x="519" 
d="M267 729c75.333 0 130.334 -28.333 165.001 -85c30 -47.333 45 -139 45 -275c0 -134.667 -14.333 -227.667 -43 -279c-16.667 -30.667 -40.834 -54.5 -72.501 -71.5s-66.834 -25.5 -105.501 -25.5c-76.667 0 -132.667 26.667 -168 80c-30.667 46 -45.667 142.667 -45 290
c0 118 12 201.667 36 251c34.667 76.667 97.334 115 188.001 115zM350.001 165c12.667 52.667 18.333 108.332 17 166.999h-215c-2 -81.333 5 -142.666 21 -183.999c14.667 -37.333 43.334 -56 86.001 -56c47.333 0 77.666 24.333 90.999 73zM263 631.998
c-39.333 0 -68 -19 -86 -57c-14.667 -28.667 -23 -80 -25 -154h215c0 59.333 -7 110 -21 152c-6 18.667 -16.5 33.167 -31.5 43.5s-32.167 15.5 -51.5 15.5z" />
    <glyph glyph-name="iota" unicode="&#x3b9;" horiz-adv-x="263" 
d="M229 89l-2 -93c-8 -0.666992 -19.667 -1 -35 -1c-50.667 0 -84.5 11.5 -101.5 34.5s-25.5 55.833 -25.5 98.5v367h112v-360c0 -18 3.33301 -30.167 10 -36.5s20.667 -9.5 42 -9.5z" />
    <glyph glyph-name="kappa" unicode="&#x3ba;" horiz-adv-x="520" 
d="M523 0l-134.001 -0.000976562l-72 111l-71 111c-0.666992 -1.33301 -10.167 -11.666 -28.5 -30.999s-32.166 -34.333 -41.499 -45v-146h-112v495h112v-204h3l96 108l87 96h137l-179 -193l90 -134.5z" />
    <glyph glyph-name="lambda" unicode="&#x3bb;" horiz-adv-x="479" 
d="M480 83l2.99902 -84c-16.667 -4 -35 -6 -55 -6c-47.333 0 -78.666 20 -93.999 60c-5.33301 11.333 -10.333 25.333 -15 42c-11.333 38 -25 81.333 -41 130c-14.667 49.333 -26 86.333 -34 111h-4l-43 -128c-31.333 -92.667 -55.666 -162 -72.999 -208h-118l183 487
l-27 91c-6 20 -13.5 33.833 -22.5 41.5s-23.833 11.5 -44.5 11.5c-9.33301 0 -16.666 -0.333008 -21.999 -1l-6 93c24 6 45.333 9 64 9c32 0 57.833 -7.33301 77.5 -22s35.5 -37 47.5 -67c2 -4.66699 7 -19 15 -43l78.5 -238.5l77.5 -239.5
c5.33301 -16 11.166 -26.5 17.499 -31.5s18.166 -7.5 35.499 -7.5z" />
    <glyph glyph-name="nu" unicode="&#x3bd;" horiz-adv-x="477" 
d="M473 495l-189 -495h-90l-190 495h121l58 -169l55 -169h2l54 168l58 170h121z" />
    <glyph glyph-name="xi" unicode="&#x3be;" horiz-adv-x="426" 
d="M402 586c-40 26 -82.002 38.9971 -126.002 38.9971c-34 0 -60.333 -9.5 -79 -28.5s-28 -41.167 -28 -66.5c0 -28.667 11.5 -52.167 34.5 -70.5s51.833 -27.5 86.5 -27.5h92v-93h-118c-33.333 0 -60.666 -12 -81.999 -36s-32 -52.333 -32 -85
c0 -28 8.33301 -50.333 25 -67s40.334 -30.667 71.001 -42c84 -30 136.833 -52.167 158.5 -66.5s32.5 -37.833 32.5 -70.5c0 -40.667 -29.667 -97.667 -89 -171l-81 46c1.33301 2.66699 6.33301 11 15 25s16.167 27.333 22.5 40s9.5 22 9.5 28
c0 16.667 -15 30.334 -45 41.001c-6.66699 2.66699 -20 7.33398 -40 14.001s-34.167 11.667 -42.5 15s-21.333 9 -39 17s-30.667 15.167 -39 21.5s-18.5 15.333 -30.5 27s-21 23.5 -27 35.5s-11.167 26.667 -15.5 44s-6.5 36 -6.5 56c0 30 9.16699 62.167 27.5 96.5
s46.833 61.166 85.5 80.499c-22 8.66699 -40.167 22.334 -54.5 41.001s-24 36.334 -29 53.001s-7.5 33 -7.5 49c0 57.333 21 104.333 63 141s93.667 55 155 55c74 0 136 -17.667 186 -53c-24 -38.667 -41.667 -68 -53 -88z" />
    <glyph glyph-name="omicron" unicode="&#x3bf;" horiz-adv-x="515" 
d="M264 501c77.333 0 134.667 -27.6689 172 -83.002c25.333 -39.333 37.333 -93.666 36 -162.999c0 -72.667 -11.333 -128.667 -34 -168c-18.667 -30.667 -44.334 -54 -77.001 -70s-69 -24 -109 -24c-78.667 0 -135.667 26 -171 78
c-27.333 40.667 -40.333 99.334 -39 176.001c0 59.333 8.33301 106 25 140c16.667 36 42.334 64 77.001 84s74.667 30 120 30zM260.001 398.998c-40.667 0 -69.667 -18.666 -87 -55.999c-10 -22 -15.667 -54.333 -17 -97c0 -43.333 5 -75 15 -95c16 -36.667 44 -55 84 -55
c47.333 0 78.333 23.667 93 71c6 19.333 9 48.666 9 87.999c0 38.667 -4.33301 67.667 -13 87c-14.667 38 -42.667 57 -84 57z" />
    <glyph glyph-name="pi" unicode="&#x3c0;" horiz-adv-x="536" 
d="M473 0h-113v398h-187v-398h-113v495h413v-495z" />
    <glyph glyph-name="rho" unicode="&#x3c1;" horiz-adv-x="521" 
d="M277 -5c-44.667 0 -80.667 14.667 -108 44l-3 -2v-237h-113v447c1.33301 62.667 8.66602 109 21.999 139c16.667 36.667 42 65 76 85s73.333 30 118 30c76.667 0 134 -28 172 -84c25.333 -38 38 -95.333 38 -172c0 -64.667 -12 -117 -36 -157
c-37.333 -62 -92.666 -93 -165.999 -93zM266 399c-38.667 0 -67.001 -18.667 -85.001 -56c-9.33301 -20.667 -14.666 -53 -15.999 -97c0 -42.667 4.66699 -74.334 14 -95.001c17.333 -36.667 44.666 -55 81.999 -55c47.333 0 78.333 23.667 93 71c6 19.333 9 46 9 80
c0.666992 40.667 -3.66602 72.334 -12.999 95.001c-14.667 38 -42.667 57 -84 57z" />
    <glyph glyph-name="sigma1" unicode="&#x3c2;" horiz-adv-x="456" 
d="M395 350c-31.333 29.333 -66.002 44.0039 -104.002 44.0039c-39.333 0 -70.166 -12.667 -92.499 -38s-33.5 -62.333 -33.5 -111c0 -33.333 6.33301 -60.666 19 -81.999s34.667 -38.333 66 -51l57 -23c11.333 -4.66699 26 -11.334 44 -20.001s30.667 -15.667 38 -21
s15.333 -12.166 24 -20.499s14.5 -16.833 17.5 -25.5s4.5 -18.334 4.5 -29.001c0 -40.667 -28 -94.334 -84 -161.001l-81 45c8 10.667 17 25.5 27 44.5s15 32.5 15 40.5c0 17.333 -15.333 31.333 -46 42c-80 28 -135.833 59.667 -167.5 95s-47.5 88.666 -47.5 159.999
c0 84.667 22.333 149.5 67 194.5s99.334 67.5 164.001 67.5c72 0 133 -23 183 -69c-8 -8.66699 -19.667 -22.334 -35 -41.001s-27 -32.334 -35 -41.001z" />
    <glyph glyph-name="sigma" unicode="&#x3c3;" horiz-adv-x="520" 
d="M410 404c20.667 -22 35.332 -44.5 43.999 -67.5s13 -53.833 13 -92.5c0 -49.333 -7.66699 -93.333 -23 -132c-16.667 -38.667 -42.167 -68 -76.5 -88s-73.833 -30 -118.5 -30c-76 0 -131 24.667 -165 74c-30 42.667 -45 102 -45 178c1.33301 46.667 8 85.667 20 117
c16 42 40.833 74.5 74.5 97.5s74.834 34.5 123.501 34.5h241v-91h-88zM253.998 393c-34 0 -60.001 -15.332 -78.001 -45.999c-14 -24 -21.667 -57.667 -23 -101c0 -47.333 8.33301 -84 25 -110s41.334 -39 74.001 -39c47.333 0 77.666 25 90.999 75
c6 21.333 9 45.666 9 72.999c0 46 -7.33301 80.667 -22 104c-17.333 29.333 -42.666 44 -75.999 44z" />
    <glyph glyph-name="tau" unicode="&#x3c4;" horiz-adv-x="372" 
d="M354 404h-119v-248c0 -36.667 15.333 -55 46 -55h41v-101h-72c-38 0 -68.833 11 -92.5 33s-35.5 52.667 -35.5 92v279h-107v91h339v-91z" />
    <glyph glyph-name="upsilon" unicode="&#x3c5;" horiz-adv-x="540" 
d="M477 178c0 -54.667 -19.3311 -98.833 -57.998 -132.5s-88.334 -50.5 -149.001 -50.5c-59.333 0 -108.5 17 -147.5 51s-58.5 78 -58.5 132v317h113v-294c0 -30.667 8.83301 -55 26.5 -73s40.167 -27 67.5 -27s49.666 9 66.999 27s26 42.333 26 73v294h113v-317z" />
    <glyph glyph-name="phi" unicode="&#x3c6;" horiz-adv-x="643" 
d="M264 -199l-0.000976562 194c-86.667 3.33301 -147.667 29.666 -183 78.999c-27.333 37.333 -41 95 -41 173c0 47.333 5.33301 87.833 16 121.5s31 62.5 61 86.5c20.667 16 41.667 27.333 63 34l37 -99c-25.333 -10 -42.666 -26.333 -51.999 -49
c-8 -18.667 -12 -50.334 -12 -95.001c0 -32.667 3.66699 -60 11 -82c8 -21.333 20.667 -38.166 38 -50.499s38 -18.5 62 -18.5v405h115c36.667 0 72.334 -6.83301 107.001 -20.5s61.667 -36.167 81 -67.5c23.333 -37.333 35 -92.333 35 -165
c0 -74 -12.333 -128.667 -37 -164c-36.667 -53.333 -99.334 -82.666 -188.001 -87.999v-194h-113zM376.999 398l-0.000976562 -302.001c24.667 0 46.334 6.33301 65.001 19s31.667 30.334 39 53.001c5.33301 17.333 8 44 8 80c0 46 -4.33301 78.667 -13 98
c-16.667 34.667 -49.667 52 -99 52z" />
    <glyph glyph-name="chi" unicode="&#x3c7;" horiz-adv-x="501" 
d="M490 0h-136l-104 167l-103 -167h-136l180 253l-172 242h135l96 -160l97 160h135l-172 -243z" />
    <glyph glyph-name="psi" unicode="&#x3c8;" horiz-adv-x="669" 
d="M609 193c0 -60.667 -21.667 -108 -65 -142s-94.666 -52.667 -153.999 -56v-196h-112v197c-58.667 2.66699 -109.334 21.167 -152.001 55.5s-64 80.833 -64 139.5v304h113v-284c0 -35.333 9.83301 -62.333 29.5 -81s44.167 -29 73.5 -31v416h112v-416
c30.667 2 56 12.167 76 30.5s30 45.5 30 81.5v284h113v-302z" />
    <glyph glyph-name="omega" unicode="&#x3c9;" horiz-adv-x="755" 
d="M513 394l14.9961 105.999c126 -6 189 -90 189 -252c0 -168 -65.333 -252 -196 -252c-61.333 0 -107.666 24.667 -138.999 74h-2c-35.333 -50 -80.666 -75 -135.999 -75c-134.667 0 -202 84 -202 252c0 160 63.333 244.333 190 253l15 -106
c-33.333 -4.66699 -57 -19.334 -71 -44.001s-21 -60 -21 -106c0 -39.333 8.83301 -72.333 26.5 -99s42.5 -40 74.5 -40c20 0 36 8.83301 48 26.5s18 39.834 18 66.501v157h110v-157c0 -28 7.83301 -51.5 23.5 -70.5s36.834 -28.5 63.501 -28.5c56 0 84 48.667 84 146
c0 46.667 -6.66699 82.334 -20 107.001s-36.666 38.667 -69.999 42z" />
    <glyph glyph-name="iotadieresis" unicode="&#x3ca;" horiz-adv-x="263" 
d="M229 89l-2 -93c-8 -0.666992 -19.667 -1 -35 -1c-50.667 0 -84.5 11.5 -101.5 34.5s-25.5 55.833 -25.5 98.5v367h112v-360c0 -18 3.33301 -30.167 10 -36.5s20.667 -9.5 42 -9.5zM274 583h-118v109h118v-109zM75 583h-119v109h119v-109z" />
    <glyph glyph-name="upsilondieresis" unicode="&#x3cb;" horiz-adv-x="540" 
d="M477 178c0 -54.667 -19.3311 -98.833 -57.998 -132.5s-88.334 -50.5 -149.001 -50.5c-59.333 0 -108.5 17 -147.5 51s-58.5 78 -58.5 132v317h113v-294c0 -30.667 8.83301 -55 26.5 -73s40.167 -27 67.5 -27s49.666 9 66.999 27s26 42.333 26 73v294h113v-317z
M425.002 583.001h-118v109h118v-109zM226.002 583.001h-119v109h119v-109z" />
    <glyph glyph-name="omicrontonos" unicode="&#x3cc;" horiz-adv-x="515" 
d="M264 501c77.333 0 134.667 -27.6689 172 -83.002c25.333 -39.333 37.333 -93.666 36 -162.999c0 -72.667 -11.333 -128.667 -34 -168c-18.667 -30.667 -44.334 -54 -77.001 -70s-69 -24 -109 -24c-78.667 0 -135.667 26 -171 78
c-27.333 40.667 -40.333 99.334 -39 176.001c0 59.333 8.33301 106 25 140c16.667 36 42.334 64 77.001 84s74.667 30 120 30zM260.001 398.998c-40.667 0 -69.667 -18.666 -87 -55.999c-10 -22 -15.667 -54.333 -17 -97c0 -43.333 5 -75 15 -95c16 -36.667 44 -55 84 -55
c47.333 0 78.333 23.667 93 71c6 19.333 9 48.666 9 87.999c0 38.667 -4.33301 67.667 -13 87c-14.667 38 -42.667 57 -84 57zM264.001 543.999l-68 25l79 190l107 -34z" />
    <glyph glyph-name="upsilontonos" unicode="&#x3cd;" horiz-adv-x="540" 
d="M477 178c0 -54.667 -19.3311 -98.833 -57.998 -132.5s-88.334 -50.5 -149.001 -50.5c-59.333 0 -108.5 17 -147.5 51s-58.5 78 -58.5 132v317h113v-294c0 -30.667 8.83301 -55 26.5 -73s40.167 -27 67.5 -27s49.666 9 66.999 27s26 42.333 26 73v294h113v-317z
M276.002 544.001l-68 25l79 190l107 -34z" />
    <glyph glyph-name="omegatonos" unicode="&#x3ce;" horiz-adv-x="755" 
d="M513 394l14.9961 105.999c126 -6 189 -90 189 -252c0 -168 -65.333 -252 -196 -252c-61.333 0 -107.666 24.667 -138.999 74h-2c-35.333 -50 -80.666 -75 -135.999 -75c-134.667 0 -202 84 -202 252c0 160 63.333 244.333 190 253l15 -106
c-33.333 -4.66699 -57 -19.334 -71 -44.001s-21 -60 -21 -106c0 -39.333 8.83301 -72.333 26.5 -99s42.5 -40 74.5 -40c20 0 36 8.83301 48 26.5s18 39.834 18 66.501v157h110v-157c0 -28 7.83301 -51.5 23.5 -70.5s36.834 -28.5 63.501 -28.5c56 0 84 48.667 84 146
c0 46.667 -6.66699 82.334 -20 107.001s-36.666 38.667 -69.999 42zM385.996 543.999l-68 25l79 190l107 -34z" />
    <glyph glyph-name="afii10023" unicode="&#x401;" horiz-adv-x="564" 
d="M539 0h-466v696h466v-110h-345v-182h294v-106h-294v-188h345v-110zM465 757h-120v111h120v-111zM268 757h-121v111h121v-111z" />
    <glyph glyph-name="afii10051" unicode="&#x402;" horiz-adv-x="743" 
d="M316 414l3.00098 0.000976562c18.667 17.333 42.667 31.166 72 41.499s58 15.5 86 15.5c63.333 0 116 -20 158 -60s63 -98.667 63 -176c0 -78 -20.833 -140.5 -62.5 -187.5s-105.167 -70.5 -190.5 -70.5c-12.667 0 -22.667 0.333008 -30 1v97
c50 -0.666992 89.167 12 117.5 38s42.5 65 42.5 117c0 41.333 -11.5 74 -34.5 98s-53.167 36 -90.5 36c-50.667 0 -95.334 -20.333 -134.001 -61v-303h-121v591h-191v105h565v-105h-253v-177z" />
    <glyph glyph-name="afii10052" unicode="&#x403;" horiz-adv-x="545" 
d="M539 586h-345v-586h-121v696h466v-110zM251 735l-47 56l165 125l74 -84z" />
    <glyph glyph-name="afii10053" unicode="&#x404;" horiz-adv-x="572" 
d="M436 204l115 -48c-17.333 -50.667 -47.333 -90.334 -90 -119.001s-94 -43 -154 -43c-84 0 -148.167 24.667 -192.5 74s-66.5 113 -66.5 191v178c0 74.667 22.5 137.334 67.5 188.001s108.833 76 191.5 76c59.333 0 110.166 -14.5 152.499 -43.5s72.5 -68.5 90.5 -118.5
l-114 -45c-8.66699 28 -24.167 50.333 -46.5 67s-49.833 25 -82.5 25c-44 0 -77.833 -14.167 -101.5 -42.5s-35.5 -62.166 -35.5 -101.499v-38h215v-106h-215v-41c0 -41.333 11.833 -76.5 35.5 -105.5s57.5 -43.5 101.5 -43.5c32 0 59.333 8.66699 82 26
s38.334 40.666 47.001 69.999z" />
    <glyph glyph-name="afii10054" unicode="&#x405;" horiz-adv-x="569" 
d="M518 637l-59.9971 -100.001c-52.667 34.667 -110 52 -172 52c-40 0 -69.667 -8 -89 -24s-29 -37.333 -29 -64c0 -27.333 12.167 -47.166 36.5 -59.499s68.833 -24.166 133.5 -35.499c29.333 -5.33301 54.666 -11.833 75.999 -19.5s42.5 -18.667 63.5 -33
s37.167 -33.833 48.5 -58.5s17 -54.334 17 -89.001c0 -65.333 -25.167 -117 -75.5 -155s-112.5 -57 -186.5 -57c-112 0 -204 32 -276 96l73 94c56 -51.333 125.667 -77 209 -77c39.333 0 70.666 8.16699 93.999 24.5s35 39.833 35 70.5c0 27.333 -10.167 48.333 -30.5 63
s-52.5 25.334 -96.5 32.001c-28.667 4 -52.834 8.16699 -72.501 12.5s-41 11.333 -64 21s-41.5 21.167 -55.5 34.5s-25.667 31.166 -35 53.499s-14 48.5 -14 78.5c0 65.333 23.167 115.833 69.5 151.5s101.833 53.5 166.5 53.5c95.333 0 173.333 -21.667 234 -65z" />
    <glyph glyph-name="afii10055" unicode="&#x406;" horiz-adv-x="268" 
d="M196 0h-122v696h122v-696z" />
    <glyph glyph-name="afii10056" unicode="&#x407;" horiz-adv-x="268" 
d="M196 0h-122v696h122v-696zM287 762h-118v109h118v-109zM88 762h-119v109h119v-109z" />
    <glyph glyph-name="afii10057" unicode="&#x408;" horiz-adv-x="489" 
d="M424 224c0 -80.667 -21.334 -139 -64.001 -175s-97.667 -54 -165 -54c-75.333 0 -138.666 28.667 -189.999 86l86 79c34 -36 67.667 -54 101 -54c74 0 111 40.667 111 122v468h121v-472z" />
    <glyph glyph-name="afii10058" unicode="&#x409;" horiz-adv-x="949" 
d="M142 338l-0.00195312 358.001h397v-284h162c70.667 0 126.334 -19.5 167.001 -58.5s61 -85.833 61 -140.5c0 -66.667 -22.167 -118.834 -66.5 -156.501s-101.166 -56.5 -170.499 -56.5h-274v588h-161v-248c0 -112.667 -17.167 -198 -51.5 -256
s-91.833 -90.333 -172.5 -97l-22 100c50 14 84.333 38.167 103 72.5s28 93.833 28 178.5zM804.998 209.001c0 26 -9.5 48.334 -28.5 67.001s-46.5 28 -82.5 28h-155v-194h153c34.667 0 62.167 9.16699 82.5 27.5s30.5 42.166 30.5 71.499z" />
    <glyph glyph-name="afii10059" unicode="&#x40a;" horiz-adv-x="941" 
d="M687 0h-275v302h-222v-302h-121v696h121v-284h222v284h121v-284h156c72 0 129 -19 171 -57s63 -85.667 63 -143c0 -68 -21.833 -120.333 -65.5 -157s-100.5 -55 -170.5 -55zM799 208c0 26 -9.83203 48.167 -29.499 66.5s-47.834 27.5 -84.501 27.5h-152v-192h152
c36 0 64 8.66699 84 26s30 41.333 30 72z" />
    <glyph glyph-name="afii10060" unicode="&#x40b;" horiz-adv-x="749" 
d="M689 0h-120.999v250c0 37.333 -8.33301 66 -25 86s-46.334 30 -89.001 30c-48 0 -94 -20 -138 -60v-306h-121v591h-190v105h565v-105h-254v-176h3c48.667 38.667 104.667 58 168 58c61.333 0 110.333 -16.167 147 -48.5s55 -77.833 55 -136.5v-288z" />
    <glyph glyph-name="afii10061" unicode="&#x40c;" horiz-adv-x="615" 
d="M192 0l-121.001 0.000976562v696h121v-291h91c64 0 106.333 34 127 102l60 187h118l-63 -203c-21.333 -72 -54.333 -115.667 -99 -131c27.333 -8.66699 49.333 -24.334 66 -47.001s30.334 -52.667 41.001 -90l67 -223h-126l-57 193c-12.667 42 -29.667 70.5 -51 85.5
s-47.333 22.5 -78 22.5h-96v-301zM253.999 735.001l-47 56l165 125l74 -84z" />
    <glyph glyph-name="afii10062" unicode="&#x40e;" horiz-adv-x="569" 
d="M109 -14v103.999h47c30 0 52.333 15.333 67 46l7 18l-211 542h132l75 -220l64 -180h5l58 178l74 222h128l-202 -542c-23.333 -63.333 -48 -107.166 -74 -131.499s-61 -36.5 -105 -36.5h-65zM293 700.999c-50 0 -86.835 15.166 -110.502 45.499
s-36.834 63.833 -39.501 100.5h87c0.666992 -15.333 6.66699 -30.166 18 -44.499s26.333 -21.5 45 -21.5c20 0 35.667 7 47 21s17 29 17 45h86c-1.33301 -12.667 -3.66602 -25 -6.99902 -37s-8.66602 -24.833 -15.999 -38.5s-16.333 -25.5 -27 -35.5
s-24.667 -18.333 -42 -25s-36.666 -10 -57.999 -10z" />
    <glyph glyph-name="afii10145" unicode="&#x40f;" horiz-adv-x="655" 
d="M462 696h120v-696h-195v-171h-117v171h-197v696h121v-586h268v586z" />
    <glyph glyph-name="afii10017" unicode="&#x410;" horiz-adv-x="629" 
d="M626 0h-128l-55 154h-258l-56 -154h-127l263 696h98zM407 257l-46 141l-46 143h-3l-45 -140l-47 -144h187z" />
    <glyph glyph-name="afii10018" unicode="&#x411;" horiz-adv-x="603" 
d="M340 0h-276v696h441v-110h-320v-174h156c73.333 0 130.833 -19 172.5 -57s62.5 -85.667 62.5 -143c0 -67.333 -22 -119.5 -66 -156.5s-100.667 -55.5 -170 -55.5zM452 207c0 26.667 -9.66797 49.167 -29.001 67.5s-47.666 27.5 -84.999 27.5h-153v-193h153
c36 0 64 8.83301 84 26.5s30 41.5 30 71.5z" />
    <glyph glyph-name="afii10019" unicode="&#x412;" horiz-adv-x="618" 
d="M582 200c0 -58.667 -19.832 -106.666 -59.499 -143.999s-87.834 -56 -144.501 -56h-305v696h278c69.333 0 123 -17.333 161 -52s57 -80.667 57 -138c0 -66.667 -32 -114.334 -96 -143.001v-4c34 -10 60.667 -30.5 80 -61.5s29 -63.5 29 -97.5zM443.001 499.001
c0 26.667 -9.16699 48.167 -27.5 64.5s-45.166 24.5 -80.499 24.5h-141v-181h141c35.333 0 62.166 8.66699 80.499 26s27.5 39.333 27.5 66zM459.001 207.001c0 27.333 -9.33301 50.5 -28 69.5s-46 28.5 -82 28.5h-155v-195h155c36 0 63.333 9.33301 82 28s28 41.667 28 69z
" />
    <glyph glyph-name="afii10020" unicode="&#x413;" horiz-adv-x="545" 
d="M539 586h-345v-586h-121v696h466v-110z" />
    <glyph glyph-name="afii10021" unicode="&#x414;" horiz-adv-x="732" 
d="M20 97c14 2.66699 35.667 7.33496 65 14.002c30 23.333 49.833 53.666 59.5 90.999s16.5 104.666 20.5 201.999l12 292h459c0 -65.333 0.166992 -163.5 0.5 -294.5s0.5 -229.167 0.5 -294.5h67v-262h-107v155h-469v-155h-108v252zM516 588.001l-233 0.000976562
c-1.33301 -38 -4 -100.333 -8 -187c-2 -54 -4 -94.333 -6 -121s-6.83301 -57.334 -14.5 -92.001s-18.167 -61.667 -31.5 -81h293v481z" />
    <glyph glyph-name="afii10022" unicode="&#x415;" horiz-adv-x="564" 
d="M539 0h-466v696h466v-110h-345v-182h294v-106h-294v-188h345v-110z" />
    <glyph glyph-name="afii10024" unicode="&#x416;" horiz-adv-x="953" 
d="M416 0l-0.00195312 301h-84c-30.667 0 -56.5 -7.33301 -77.5 -22s-38.167 -43.334 -51.5 -86.001l-57 -193h-126l67 223c10.667 37.333 24.334 67.333 41.001 90s38.667 38.334 66 47.001c-46 16 -79 59.667 -99 131l-63 203h118l60 -187
c8.66699 -28.667 20.667 -51 36 -67s29.833 -25.833 43.5 -29.5s29.5 -5.5 47.5 -5.5h79v292h121v-292h79c18 0 33.833 1.83301 47.5 5.5s28.167 13.5 43.5 29.5s27.333 38.333 36 67l60 187h118l-63 -203c-20 -71.333 -53 -115 -99 -131
c27.333 -8.66699 49.333 -24.334 66 -47.001s30.334 -52.667 41.001 -90l67 -223h-126l-57 193c-13.333 42.667 -30.5 71.334 -51.5 86.001s-46.833 22 -77.5 22h-84v-301h-121z" />
    <glyph glyph-name="afii10025" unicode="&#x417;" horiz-adv-x="576" 
d="M275 -5c-62 0 -116.001 13.834 -162.001 41.501s-78.333 65.834 -97 114.501l112 50c10 -26.667 29 -49.167 57 -67.5s58.333 -27.5 91 -27.5c39.333 0 71.5 9.5 96.5 28.5s37.5 44.833 37.5 77.5c0 31.333 -10.167 56.166 -30.5 74.499s-48.166 27.5 -83.499 27.5h-81
v103h83c31.333 0 56.833 8.16699 76.5 24.5s29.5 37.5 29.5 63.5c0 26.667 -10.667 47.167 -32 61.5s-48.333 21.5 -81 21.5s-62.167 -8 -88.5 -24s-45.833 -37.333 -58.5 -64l-106 53c20.667 46 52.667 82.333 96 109s95.666 40 156.999 40c72.667 0 130 -16.333 172 -49
s63 -77.667 63 -135c0 -28.667 -8 -57 -24 -85s-41.667 -49 -77 -63c0 -0.666992 0.166992 -1.5 0.5 -2.5s0.5 -1.83301 0.5 -2.5c38.667 -12 66.334 -33.333 83.001 -64s25 -62.334 25 -95.001c0 -64.667 -24.5 -116 -73.5 -154s-110.833 -57 -185.5 -57z" />
    <glyph glyph-name="afii10026" unicode="&#x418;" horiz-adv-x="692" 
d="M184 0h-111v696h120v-492c0.666992 -0.666992 1.66699 -1 3 -1l162 249l162 244h101v-696h-121v472h-3l-138 -213z" />
    <glyph glyph-name="afii10027" unicode="&#x419;" horiz-adv-x="692" 
d="M184 0h-111v696h120v-492c0.666992 -0.666992 1.66699 -1 3 -1l162 249l162 244h101v-696h-121v472h-3l-138 -213zM340 715c-50 0 -86.835 15.166 -110.502 45.499s-36.834 63.833 -39.501 100.5h87c0.666992 -15.333 6.66699 -30.166 18 -44.499s26.333 -21.5 45 -21.5
c20 0 35.667 7 47 21s17 29 17 45h86c-1.33301 -12.667 -3.66602 -25 -6.99902 -37s-8.66602 -24.833 -15.999 -38.5s-16.333 -25.5 -27 -35.5s-24.667 -18.333 -42 -25s-36.666 -10 -57.999 -10z" />
    <glyph glyph-name="afii10028" unicode="&#x41a;" horiz-adv-x="615" 
d="M192 0l-121.001 0.000976562v696h121v-291h91c64 0 106.333 34 127 102l60 187h118l-63 -203c-21.333 -72 -54.333 -115.667 -99 -131c27.333 -8.66699 49.333 -24.334 66 -47.001s30.334 -52.667 41.001 -90l67 -223h-126l-57 193c-12.667 42 -29.667 70.5 -51 85.5
s-47.333 22.5 -78 22.5h-96v-301z" />
    <glyph glyph-name="afii10029" unicode="&#x41b;" horiz-adv-x="668" 
d="M468 0l-0.000976562 588h-210v-194c0 -140 -15.5 -240.833 -46.5 -302.5s-90.167 -96.5 -177.5 -104.5c-9.33301 44 -16.666 77 -21.999 99c50 14 84.5 38.5 103.5 73.5s28.5 94.167 28.5 177.5v359h444v-696h-120z" />
    <glyph glyph-name="afii10030" unicode="&#x41c;" horiz-adv-x="765" 
d="M702 0h-120.999v413h-3l-37 -89l-51 -112l-54 -114h-97l-40 85l-66 146l-36 85l-3 -3v-411h-121v696h113l91 -199c19.333 -42 55.666 -125.333 108.999 -250h4l56 133l51 117l89 199h116v-696z" />
    <glyph glyph-name="afii10031" unicode="&#x41d;" horiz-adv-x="655" 
d="M582 0h-120v298h-268v-298h-121v696h121v-292h268v292h120v-696z" />
    <glyph glyph-name="afii10032" unicode="&#x41e;" horiz-adv-x="610" 
d="M304 701c78.667 0 141.667 -24.6689 189 -74.002s71 -112.666 71 -189.999v-178c0 -80.667 -23.5 -145 -70.5 -193s-110.167 -72 -189.5 -72c-82.667 0 -146.5 25.333 -191.5 76s-67.5 113.667 -67.5 189v178c0 74.667 22.5 137.334 67.5 188.001s108.833 76 191.5 76z
M304 586.998c-44 0 -77.833 -14.1689 -101.5 -42.502s-35.5 -62.166 -35.5 -101.499v-187c0 -41.333 11.833 -76.5 35.5 -105.5s57.5 -43.5 101.5 -43.5c41.333 0 74.5 14 99.5 42s37.5 63.667 37.5 107v187c0 40.667 -12.333 74.834 -37 102.501s-58 41.5 -100 41.5z" />
    <glyph glyph-name="afii10033" unicode="&#x41f;" horiz-adv-x="655" 
d="M582 0h-120v588h-268v-588h-121v696h509v-696z" />
    <glyph glyph-name="afii10034" unicode="&#x420;" horiz-adv-x="591" 
d="M581 478c0 -57.333 -21.501 -106.833 -64.501 -148.5s-97.5 -62.5 -163.5 -62.5h-159v-267h-121v696h271c68.667 0 125.334 -19 170.001 -57s67 -91.667 67 -161zM456.999 481c0 34.667 -10.333 60.833 -31 78.5s-49 26.5 -85 26.5h-147v-209h151c34 0 61.167 10 81.5 30
s30.5 44.667 30.5 74z" />
    <glyph glyph-name="afii10035" unicode="&#x421;" horiz-adv-x="572" 
d="M436 204l115 -48c-17.333 -50.667 -47.333 -90.334 -90 -119.001s-94 -43 -154 -43c-84 0 -148.167 24.667 -192.5 74s-66.5 113 -66.5 191v178c0 74.667 22.5 137.334 67.5 188.001s108.833 76 191.5 76c59.333 0 110.166 -14.5 152.499 -43.5s72.5 -68.5 90.5 -118.5
l-114 -45c-8.66699 28 -24.167 50.333 -46.5 67s-49.833 25 -82.5 25c-44 0 -77.833 -14.167 -101.5 -42.5s-35.5 -62.166 -35.5 -101.499v-185c0 -41.333 11.833 -76.5 35.5 -105.5s57.5 -43.5 101.5 -43.5c32 0 59.333 8.66699 82 26s38.334 40.666 47.001 69.999z" />
    <glyph glyph-name="afii10036" unicode="&#x422;" horiz-adv-x="521" 
d="M513 588h-194v-588h-121v588h-193v108h508v-108z" />
    <glyph glyph-name="afii10037" unicode="&#x423;" horiz-adv-x="569" 
d="M109 -14v103.999h47c30 0 52.333 15.333 67 46l7 18l-211 542h132l75 -220l64 -180h5l58 178l74 222h128l-202 -542c-23.333 -63.333 -48 -107.166 -74 -131.499s-61 -36.5 -105 -36.5h-65z" />
    <glyph glyph-name="afii10038" unicode="&#x424;" horiz-adv-x="758" 
d="M717 354c0 -84 -24.8311 -153.333 -74.498 -208s-118.5 -83.334 -206.5 -86.001v-60h-116v60c-90 6.66699 -158.833 36.334 -206.5 89.001s-71.5 121 -71.5 205c0 84.667 24.167 155.167 72.5 211.5s116.833 86.5 205.5 90.5v40h116v-40
c95.333 -6 166.166 -35.667 212.499 -89s69.166 -124.333 68.499 -213zM436.002 559v-401.999c109.333 4.66699 164 70.667 164 198c0 57.333 -13 105.166 -39 143.499s-67.667 58.5 -125 60.5zM320.002 559.001c-54.667 -4.66699 -95.333 -25.667 -122 -63
s-39.667 -84.333 -39 -141c0 -57.333 13.333 -103.333 40 -138s67 -54.667 121 -60v402z" />
    <glyph glyph-name="afii10039" unicode="&#x425;" horiz-adv-x="576" 
d="M575 0h-136l-152 257l-151 -257h-136l225 356l-212 340h137l137 -240l138 240h136l-211 -340z" />
    <glyph glyph-name="afii10040" unicode="&#x426;" horiz-adv-x="688" 
d="M558 -155v155h-485v696h121v-586h268v586h120v-588h83v-263h-107z" />
    <glyph glyph-name="afii10041" unicode="&#x427;" horiz-adv-x="629" 
d="M55 696l117.999 0.000976562v-205c0 -42.667 11 -74.834 33 -96.501s53 -32.5 93 -32.5c53.333 0 99 14 137 42v292h119v-696h-120v303h-1c-44 -27.333 -99.333 -41 -166 -41c-63.333 0 -114.666 18.5 -153.999 55.5s-59 90.167 -59 159.5v219z" />
    <glyph glyph-name="afii10042" unicode="&#x428;" horiz-adv-x="928" 
d="M738 696h120v-696h-788v696h121v-586h212v586h122v-586h213v586z" />
    <glyph glyph-name="afii10043" unicode="&#x429;" horiz-adv-x="963" 
d="M833 -155v155h-764v696h121v-586h212v586h122v-586h213v586h121v-588h82v-263h-107z" />
    <glyph glyph-name="afii10044" unicode="&#x42a;" horiz-adv-x="741" 
d="M493 0h-276v586h-207v110h329v-284h156c72 0 129 -19 171 -57s63 -85.667 63 -143c0 -67.333 -22 -119.5 -66 -156.5s-100.667 -55.5 -170 -55.5zM604 208c0 26 -9.66699 48.167 -29 66.5s-47.333 27.5 -84 27.5h-153v-192h153c36 0 63.833 8.66699 83.5 26
s29.5 41.333 29.5 72z" />
    <glyph glyph-name="afii10045" unicode="&#x42b;" horiz-adv-x="841" 
d="M352 0h-275v696h121v-284h157c72 0 128.833 -19 170.5 -57s62.5 -85.667 62.5 -143c0 -68 -21.833 -120.333 -65.5 -157s-100.5 -55 -170.5 -55zM772 0h-121v696h121v-696zM464 208c0 26 -9.83301 48.167 -29.5 66.5s-47.5 27.5 -83.5 27.5h-153v-192h153
c35.333 0 63 8.66699 83 26s30 41.333 30 72z" />
    <glyph glyph-name="afii10046" unicode="&#x42c;" horiz-adv-x="597" 
d="M584 212c0 -68 -21.833 -120.333 -65.5 -157s-100.5 -55 -170.5 -55h-275v696h121v-284h156c72 0 129 -19 171 -57s63 -85.667 63 -143zM460 208c0 26 -9.66699 48.167 -29 66.5s-47.333 27.5 -84 27.5h-153v-192h153c35.333 0 63 8.66699 83 26s30 41.333 30 72z" />
    <glyph glyph-name="afii10047" unicode="&#x42d;" horiz-adv-x="591" 
d="M28 157l113.998 48.002c21.333 -64 64.333 -96 129 -96c46 0 80.5 14.333 103.5 43s34.5 64 34.5 106v47h-215v106h215v32c0 41.333 -10.167 75.666 -30.5 102.999s-53.833 41 -100.5 41c-31.333 0 -59.166 -8.5 -83.499 -25.5s-40.833 -39.167 -49.5 -66.5l-114 45
c18 49.333 49.167 88.666 93.5 117.999s96.5 44 156.5 44c44.667 0 83.5 -7 116.5 -21s58.833 -33.5 77.5 -58.5s32.5 -52.833 41.5 -83.5s13.5 -64.334 13.5 -101.001v-178c0 -78 -22.333 -141.667 -67 -191s-108.667 -74 -192 -74c-60 0 -111.167 14.333 -153.5 43
s-72.166 68.334 -89.499 119.001z" />
    <glyph glyph-name="afii10048" unicode="&#x42e;" horiz-adv-x="814" 
d="M521 701c82 0 143.668 -23.832 185.001 -71.499s62 -111.5 62 -191.5v-180c0 -80.667 -22.167 -144.834 -66.5 -192.501s-104.833 -71.5 -181.5 -71.5c-82.667 0 -144.334 25 -185.001 75s-61 113.333 -61 190v39h-84v-298h-121v696h121v-292h84v32
c0 75.333 21 138.333 63 189s103.333 76 184 76zM521.001 587.001c-44 0 -76 -14.333 -96 -43s-30 -62.667 -30 -102v-186c0 -43.333 9.83301 -79 29.5 -107s51.5 -42 95.5 -42c42.667 0 74.167 13.667 94.5 41s30.5 63.333 30.5 108v186c0 41.333 -10 75.833 -30 103.5
s-51.333 41.5 -94 41.5z" />
    <glyph glyph-name="afii10049" unicode="&#x42f;" horiz-adv-x="632" 
d="M278 696l281.999 0.000976562v-696h-122v294h-96c-63.333 0 -106.666 -38.667 -129.999 -116l-52 -178h-128l55 197c8.66699 32 20 57.833 34 77.5s33.667 33.834 59 42.501c-40.667 10.667 -70.667 32.167 -90 64.5s-29 68.166 -29 107.499
c0 61.333 20.167 111.166 60.5 149.499s92.5 57.5 156.5 57.5zM184.999 487.001c0 -59.333 39.667 -89 119 -89h134v191h-141c-34.667 0 -62 -9 -82 -27s-30 -43 -30 -75z" />
    <glyph glyph-name="afii10065" unicode="&#x430;" horiz-adv-x="499" 
d="M245 500c136.667 0 205 -54.667 205 -164v-336h-113v44c-0.666992 0.666992 -1.33398 1 -2.00098 1c-24.667 -33.333 -67.667 -50 -129 -50c-53.333 0 -95.166 13 -125.499 39s-45.5 62.667 -45.5 110c0 42 14.833 77.333 44.5 106s70.834 43 123.501 43h134v36
c0 47.333 -32.667 71 -98 71c-50 0 -89.333 -13.667 -118 -41l-60 76c43.333 43.333 104.666 65 183.999 65zM142 152c0 -17.333 7.00098 -31.833 21.001 -43.5s36.333 -17.5 67 -17.5c65.333 0 100.666 23 105.999 69c0.666992 5.33301 1 21 1 47h-115
c-53.333 0 -80 -18.333 -80 -55z" />
    <glyph glyph-name="afii10066" unicode="&#x431;" horiz-adv-x="515" 
d="M259 379c-36 0 -62.666 -14.334 -79.999 -43.001c-14.667 -24.667 -22 -57.667 -22 -99c0 -42.667 6.66699 -74.667 20 -96c16 -30 43 -45 81 -45c43.333 0 72.666 20 87.999 60c8 18.667 12 46 12 82c0 40.667 -5 70.334 -15 89.001c-16 34.667 -44 52 -84 52z
M283.001 479.999c66 0 115.666 -23.999 148.999 -71.999c27.333 -39.333 41 -93.666 41 -162.999c0 -68 -13.333 -122.667 -40 -164c-36.667 -58.667 -96.334 -88 -179.001 -88c-75.333 0 -129.666 22 -162.999 66c-33.333 42 -50 119.333 -50 232
c1.33301 74 5.66602 128.667 12.999 164c10.667 54.667 31.5 100.167 62.5 136.5s74.5 65.166 130.5 86.499c12 4.66699 36.333 13.167 73 25.5s67.667 23.166 93 32.499l34 -86c-18.667 -8 -36.167 -15 -52.5 -21l-44 -16c-13 -4.66699 -21.167 -7.66699 -24.5 -9
c-61.333 -23.333 -103.166 -46.333 -125.499 -69s-35.833 -58 -40.5 -106c0.666992 0 1.33398 -0.333008 2.00098 -1c30.667 34.667 71 52 121 52z" />
    <glyph glyph-name="afii10067" unicode="&#x432;" horiz-adv-x="500" 
d="M475 150c0 -44 -16.001 -80.001 -48.001 -108.001s-72.333 -42 -121 -42h-250v495h233c56.667 0 100 -12.833 130 -38.5s45 -59.167 45 -100.5c0 -47.333 -22.333 -80.666 -67 -99.999c24.667 -8 43.834 -22.167 57.501 -42.5s20.5 -41.5 20.5 -63.5zM359.999 154.999
c0 16 -6 29.333 -18 40s-30.333 16 -55 16h-117v-111h117c24.667 0 43 5.16699 55 15.5s18 23.5 18 39.5zM348.999 345.999c0 34.667 -24 52 -72 52h-107v-105h107c48 0 72 17.667 72 53z" />
    <glyph glyph-name="afii10068" unicode="&#x433;" horiz-adv-x="438" 
d="M436 398h-267v-398h-113v495h380v-97z" />
    <glyph glyph-name="afii10069" unicode="&#x434;" horiz-adv-x="589" 
d="M400 399h-155l-7 -113c-2 -33.333 -4 -59.333 -6 -78s-5.5 -38.5 -10.5 -59.5s-11.833 -37.833 -20.5 -50.5h199v301zM17 90l57 11c22 16.667 37 36.667 45 60s13.667 63 17 119l14 215h362v-396h57v-237h-102v138h-347v-138h-103v228z" />
    <glyph glyph-name="afii10070" unicode="&#x435;" horiz-adv-x="507" 
d="M466 215l-311.997 0.00292969c0 -33.333 8.83301 -61.5 26.5 -84.5s43.834 -34.5 78.501 -34.5c16.667 0 36.167 4 58.5 12s41.833 19.667 58.5 35l33 -39.5l33 -39.5c-50 -46.667 -112.333 -70 -187 -70c-22.667 0 -43.834 2.16699 -63.501 6.5s-39.167 12.333 -58.5 24
s-35.833 26.667 -49.5 45s-24.834 42.666 -33.501 72.999s-13 64.833 -13 103.5c0 45.333 6.33301 85.166 19 119.499s29.667 61 51 80s44.166 33 68.499 42s50.166 13.5 77.499 13.5c66 0 118 -21.333 156 -64s57 -100.334 57 -173.001v-49zM252.003 398.003
c-26 0 -47.832 -9.16699 -65.499 -27.5s-27.834 -43.5 -30.501 -75.5h190c-2 32.667 -11.667 58 -29 76s-39 27 -65 27z" />
    <glyph glyph-name="afii10072" unicode="&#x436;" horiz-adv-x="763" 
d="M326 204h-73.998c-36.667 0 -63.334 -25.667 -80.001 -77l-19.5 -67l-17.5 -60h-115l23.5 76l25.5 84c16 56.667 42.667 89.334 80 98.001c-34.667 9.33301 -59.667 40.333 -75 93l-45 144h111l40 -130c14 -48 45 -72 93 -72h53v202h113v-202h51
c46.667 0 79 28.667 97 86l36 116h111l-45 -144c-15.333 -52.667 -40.333 -83.667 -75 -93c37.333 -8.66699 64 -41.334 80 -98.001l25.5 -84l23.5 -76h-115l-17.5 60l-19.5 67c-10 30 -22.333 50.333 -37 61s-33.334 16 -56.001 16h-59v-204h-113v204z" />
    <glyph glyph-name="afii10073" unicode="&#x437;" horiz-adv-x="457" 
d="M297 349c0 16 -7.16504 28.499 -21.498 37.499s-33.833 13.5 -58.5 13.5c-52.667 0 -93.334 -13 -122.001 -39l-57 78c47.333 42 108.333 63 183 63c62 0 108.833 -12.333 140.5 -37s47.5 -58.667 47.5 -102c0 -18.667 -6 -38.167 -18 -58.5s-30 -35.833 -54 -46.5v-2
c54 -19.333 81 -55 81 -107c0 -46 -18.333 -83.167 -55 -111.5s-85.334 -42.5 -146.001 -42.5c-89.333 0 -156.666 22.333 -201.999 67l66 76c11.333 -12.667 29.5 -23.167 54.5 -31.5s49.833 -12.5 74.5 -12.5c28.667 0 51.667 5.83301 69 17.5s26 26.834 26 45.501
s-8 32.667 -24 42s-35.333 14 -58 14h-74v83h79c21.333 0 38.166 5 50.499 15s18.5 22.667 18.5 38z" />
    <glyph glyph-name="afii10074" unicode="&#x438;" horiz-adv-x="550" 
d="M158 0l-101 -0.000976562v495h111v-329h2l42 59l46 66l144 204h92v-495h-112v313h-2c-12.667 -19.333 -31.167 -45.666 -55.5 -78.999l-49.5 -69z" />
    <glyph glyph-name="afii10075" unicode="&#x439;" horiz-adv-x="550" 
d="M286 564c-50 0 -86.835 15.166 -110.502 45.499s-36.834 63.833 -39.501 100.5h87c0.666992 -15.333 6.66699 -30.166 18 -44.499s26.333 -21.5 45 -21.5c20 0 35.667 7 47 21s17 29 17 45h86c-1.33301 -12.667 -3.66602 -25 -6.99902 -37
s-8.66602 -24.833 -15.999 -38.5s-16.333 -25.5 -27 -35.5s-24.667 -18.333 -42 -25s-36.666 -10 -57.999 -10zM157.998 -0.000976562l-101 -0.000976562v495h111v-329h2l42 59l46 66l144 204h92v-495h-112v313h-2c-12.667 -19.333 -31.167 -45.666 -55.5 -78.999l-49.5 -69
z" />
    <glyph glyph-name="afii10076" unicode="&#x43a;" horiz-adv-x="506" 
d="M167 0l-113 0.000976562v494h113v-201h64c47.333 0 78 24 92 72l40 130h112l-45 -144c-15.333 -52.667 -40.333 -83.667 -75 -93c37.333 -8.66699 64 -41.334 80 -98.001l49 -160h-116l-36 127c-10 30 -22.5 50.167 -37.5 60.5s-33.833 15.5 -56.5 15.5h-71v-203z" />
    <glyph glyph-name="afii10077" unicode="&#x43b;" horiz-adv-x="538" 
d="M363 397l-144.001 0.00195312v-127c0 -92.667 -14.167 -161.334 -42.5 -206.001s-76.166 -69.334 -143.499 -74.001c-9.33301 37.333 -16 65.333 -20 84c42 12 69.833 30.333 83.5 55s20.5 72 20.5 142v224h359v-495h-113v397z" />
    <glyph glyph-name="afii10078" unicode="&#x43c;" horiz-adv-x="623" 
d="M567 0h-111v270h-1l-68 -135l-35 -67h-81l-44 84l-60 119h-1v-271h-111v495h102l64 -120.5l33 -63l10 -19.5l48 -91l21.5 43l24.5 48c12 25.333 30.167 60.833 54.5 106.5l50.5 96.5h104v-495z" />
    <glyph glyph-name="afii10079" unicode="&#x43d;" horiz-adv-x="532" 
d="M476 0h-111v205h-197v-205h-112v495h112v-201h197v201h111v-495z" />
    <glyph glyph-name="afii10080" unicode="&#x43e;" horiz-adv-x="515" 
d="M264 501c77.333 0 134.667 -27.6689 172 -83.002c25.333 -39.333 37.333 -93.666 36 -162.999c0 -72.667 -11.333 -128.667 -34 -168c-18.667 -30.667 -44.334 -54 -77.001 -70s-69 -24 -109 -24c-78.667 0 -135.667 26 -171 78
c-27.333 40.667 -40.333 99.334 -39 176.001c0 59.333 8.33301 106 25 140c16.667 36 42.334 64 77.001 84s74.667 30 120 30zM260.001 398.998c-40.667 0 -69.667 -18.666 -87 -55.999c-10 -22 -15.667 -54.333 -17 -97c0 -43.333 5 -75 15 -95c16 -36.667 44 -55 84 -55
c47.333 0 78.333 23.667 93 71c6 19.333 9 48.666 9 87.999c0 38.667 -4.33301 67.667 -13 87c-14.667 38 -42.667 57 -84 57z" />
    <glyph glyph-name="afii10081" unicode="&#x43f;" horiz-adv-x="536" 
d="M473 0h-113v398h-187v-398h-113v495h413v-495z" />
    <glyph glyph-name="afii10082" unicode="&#x440;" horiz-adv-x="516" 
d="M60 495l112.001 -0.000976562v-44l3 -1c30 33.333 70.333 50 121 50c37.333 0 68.5 -7.5 93.5 -22.5s43.333 -35.833 55 -62.5s19.667 -53.167 24 -79.5s6.5 -56.166 6.5 -89.499c0 -32 -2.66699 -61.5 -8 -88.5s-14.5 -53.5 -27.5 -79.5s-32.667 -46.5 -59 -61.5
s-58.5 -22.5 -96.5 -22.5c-48.667 0 -85.334 15.667 -110.001 47h-2v-241h-112v695zM172.001 245.999c0 -97.333 30.668 -146 92.001 -146c20 0 36.667 4.33301 50 13s23 20.667 29 36s10 30.5 12 45.5s3 32.167 3 51.5c0 16 -0.333008 29.5 -1 40.5
s-2.83398 23.833 -6.50098 38.5s-8.5 26.5 -14.5 35.5s-15 16.833 -27 23.5s-26.333 10 -43 10c-62.667 0 -94 -49.333 -94 -148z" />
    <glyph glyph-name="afii10083" unicode="&#x441;" horiz-adv-x="447" 
d="M430 67c-50.667 -48.667 -109.002 -73 -175.002 -73c-64.667 0 -118.667 21.167 -162 63.5s-65 105.5 -65 189.5s22.333 147.167 67 189.5s99.334 63.5 164.001 63.5c66 0 122.333 -23.333 169 -70l-73 -79c-29.333 30.667 -60.666 46 -93.999 46
c-78 0 -117 -50 -117 -150c0 -99.333 38.667 -149 116 -149c32.667 0 64.667 15.667 96 47z" />
    <glyph glyph-name="afii10084" unicode="&#x442;" horiz-adv-x="431" 
d="M421 398h-151v-398h-113v398h-150v97h414v-97z" />
    <glyph glyph-name="afii10085" unicode="&#x443;" horiz-adv-x="470" 
d="M470 495l-218 -595c-24.667 -66.667 -72.667 -100 -144 -100h-42v95h31c27.333 0 47.333 17.333 60 52l25 78l-182 470h122l64 -182l49 -156h4l49 154l63 184h119z" />
    <glyph glyph-name="afii10086" unicode="&#x444;" horiz-adv-x="649" 
d="M379 727v-225.998c38 0 74 -7.83301 108 -23.5s59.667 -36.5 77 -62.5c27.333 -41.333 41 -98 41 -170c0 -65.333 -12.333 -117.333 -37 -156c-18.667 -30 -45 -53.333 -79 -70s-70.667 -25.667 -110 -27v-188h-111v188c-38 0.666992 -73.5 8 -106.5 22
s-58.5 33.333 -76.5 58c-28 38 -42 96.333 -42 175c1.33301 57.333 10 103.666 26 138.999c16 33.333 42.5 60.666 79.5 81.999s76.5 32.333 118.5 33v226h112zM267 93.002l-0.000976562 305c-20 0 -38.667 -5 -56 -15s-30 -23.333 -38 -40
c-9.33301 -20.667 -14.666 -53 -15.999 -97c0 -42 5.33301 -73.667 16 -95c8 -16.667 20.833 -30.5 38.5 -41.5s36.167 -16.5 55.5 -16.5zM378.999 398.002v-305.002c22.667 0 43.667 6.83301 63 20.5s32.333 31.834 39 54.501c6 18 9 44.333 9 79
c0 40.667 -4.66699 72 -14 94c-7.33301 18 -19.833 31.833 -37.5 41.5s-37.5 14.834 -59.5 15.501z" />
    <glyph glyph-name="afii10087" unicode="&#x445;" horiz-adv-x="501" 
d="M490 0h-136l-104 167l-103 -167h-136l180 253l-172 242h135l96 -160l97 160h135l-172 -243z" />
    </font>
</defs>
</svg>
